G04 Layer_Physical_Order=2*
G04 Layer_Color=16711680*
%FSLAX25Y25*%
%MOIN*%
G70*
G01*
G75*
%ADD12C,0.06299*%
%ADD13C,0.07087*%
%ADD14R,0.06299X0.06299*%
%ADD15C,0.05905*%
%ADD16R,0.05905X0.05905*%
%ADD17C,0.07874*%
%ADD18R,0.08661X0.08661*%
%ADD19C,0.08661*%
%ADD20O,0.14173X0.38583*%
%ADD21C,0.02400*%
G36*
X205257Y230145D02*
X205730Y229829D01*
X206045Y229357D01*
X206143Y228867D01*
X206129Y228799D01*
Y225048D01*
X205629Y224896D01*
X204858Y226050D01*
X203761Y227147D01*
X202472Y228009D01*
X201039Y228602D01*
X199518Y228905D01*
X197966D01*
X196445Y228602D01*
X195012Y228009D01*
X193723Y227147D01*
X192626Y226050D01*
X191764Y224760D01*
X191171Y223327D01*
X190868Y221806D01*
Y220255D01*
X191171Y218734D01*
X191764Y217301D01*
X192626Y216011D01*
X193723Y214915D01*
X195012Y214053D01*
X196445Y213459D01*
X197966Y213157D01*
X199518D01*
X201039Y213459D01*
X202472Y214053D01*
X203761Y214915D01*
X204858Y216011D01*
X205629Y217165D01*
X206129Y217014D01*
Y159641D01*
X203541Y158895D01*
X200422Y157603D01*
X197467Y155970D01*
X194713Y154016D01*
X192196Y151767D01*
X189946Y149249D01*
X187992Y146496D01*
X186359Y143541D01*
X185067Y140422D01*
X184133Y137177D01*
X183567Y133849D01*
X183378Y130489D01*
X183376Y130478D01*
Y105697D01*
X175879Y98200D01*
X125379D01*
X122479Y98200D01*
X110079Y110600D01*
X110079Y188800D01*
X101679Y197200D01*
X24880Y197200D01*
X20879Y201201D01*
X20879Y226600D01*
X24508Y230229D01*
X204699D01*
X204767Y230242D01*
X205257Y230145D01*
D02*
G37*
%LPC*%
G36*
X151637Y144600D02*
X147574D01*
X147619Y144256D01*
X148138Y143003D01*
X148964Y141927D01*
X150040Y141102D01*
X151292Y140583D01*
X151637Y140538D01*
Y144600D01*
D02*
G37*
G36*
X172321Y150794D02*
X170977Y150617D01*
X169725Y150098D01*
X168649Y149273D01*
X167823Y148197D01*
X167304Y146944D01*
X167127Y145600D01*
X167304Y144256D01*
X167823Y143003D01*
X168649Y141927D01*
X169725Y141102D01*
X170977Y140583D01*
X172321Y140406D01*
X173666Y140583D01*
X174918Y141102D01*
X175994Y141927D01*
X176820Y143003D01*
X177339Y144256D01*
X177515Y145600D01*
X177339Y146944D01*
X176820Y148197D01*
X175994Y149273D01*
X174918Y150098D01*
X173666Y150617D01*
X172321Y150794D01*
D02*
G37*
G36*
X131742Y144500D02*
X126479D01*
Y139237D01*
X126720Y139261D01*
X127913Y139623D01*
X129013Y140211D01*
X129977Y141002D01*
X130768Y141966D01*
X131356Y143066D01*
X131718Y144259D01*
X131742Y144500D01*
D02*
G37*
G36*
X157699Y144600D02*
X153637D01*
Y140538D01*
X153981Y140583D01*
X155234Y141102D01*
X156309Y141927D01*
X157135Y143003D01*
X157653Y144256D01*
X157699Y144600D01*
D02*
G37*
G36*
X151637Y150662D02*
X151292Y150617D01*
X150040Y150098D01*
X148964Y149273D01*
X148138Y148197D01*
X147619Y146944D01*
X147574Y146600D01*
X151637D01*
Y150662D01*
D02*
G37*
G36*
X126479Y151763D02*
Y146500D01*
X131742D01*
X131718Y146741D01*
X131356Y147934D01*
X130768Y149034D01*
X129977Y149998D01*
X129013Y150789D01*
X127913Y151377D01*
X126720Y151739D01*
X126479Y151763D01*
D02*
G37*
G36*
X124479D02*
X124238Y151739D01*
X123045Y151377D01*
X121945Y150789D01*
X120981Y149998D01*
X120190Y149034D01*
X119602Y147934D01*
X119240Y146741D01*
X119216Y146500D01*
X124479D01*
Y151763D01*
D02*
G37*
G36*
X160379Y124142D02*
X156317D01*
X156362Y123798D01*
X156881Y122545D01*
X157706Y121469D01*
X158782Y120644D01*
X160035Y120125D01*
X160379Y120080D01*
Y124142D01*
D02*
G37*
G36*
X161379Y110651D02*
X160035Y110474D01*
X158782Y109955D01*
X157706Y109130D01*
X156881Y108054D01*
X156362Y106801D01*
X156185Y105457D01*
X156362Y104113D01*
X156881Y102860D01*
X157706Y101784D01*
X158782Y100959D01*
X160035Y100440D01*
X161379Y100263D01*
X162723Y100440D01*
X163976Y100959D01*
X165052Y101784D01*
X165877Y102860D01*
X166396Y104113D01*
X166573Y105457D01*
X166396Y106801D01*
X165877Y108054D01*
X165052Y109130D01*
X163976Y109955D01*
X162723Y110474D01*
X161379Y110651D01*
D02*
G37*
G36*
X125479Y111861D02*
X124238Y111739D01*
X123045Y111377D01*
X121945Y110789D01*
X120981Y109998D01*
X120190Y109034D01*
X119602Y107934D01*
X119240Y106741D01*
X119118Y105500D01*
X119240Y104259D01*
X119602Y103066D01*
X120190Y101966D01*
X120981Y101002D01*
X121945Y100211D01*
X123045Y99623D01*
X124238Y99261D01*
X125479Y99139D01*
X126720Y99261D01*
X127913Y99623D01*
X129013Y100211D01*
X129977Y101002D01*
X130768Y101966D01*
X131356Y103066D01*
X131718Y104259D01*
X131840Y105500D01*
X131718Y106741D01*
X131356Y107934D01*
X130768Y109034D01*
X129977Y109998D01*
X129013Y110789D01*
X127913Y111377D01*
X126720Y111739D01*
X125479Y111861D01*
D02*
G37*
G36*
X166441Y124142D02*
X162379D01*
Y120080D01*
X162723Y120125D01*
X163976Y120644D01*
X165052Y121469D01*
X165877Y122545D01*
X166396Y123798D01*
X166441Y124142D01*
D02*
G37*
G36*
X124479Y144500D02*
X119216D01*
X119240Y144259D01*
X119602Y143066D01*
X120190Y141966D01*
X120981Y141002D01*
X121945Y140211D01*
X123045Y139623D01*
X124238Y139261D01*
X124479Y139237D01*
Y144500D01*
D02*
G37*
G36*
X162379Y130204D02*
Y126142D01*
X166441D01*
X166396Y126486D01*
X165877Y127739D01*
X165052Y128815D01*
X163976Y129640D01*
X162723Y130159D01*
X162379Y130204D01*
D02*
G37*
G36*
X160379Y130204D02*
X160035Y130159D01*
X158782Y129640D01*
X157706Y128815D01*
X156881Y127739D01*
X156362Y126486D01*
X156317Y126142D01*
X160379D01*
Y130204D01*
D02*
G37*
G36*
X153637Y150662D02*
Y146600D01*
X157699D01*
X157653Y146944D01*
X157135Y148197D01*
X156309Y149273D01*
X155234Y150098D01*
X153981Y150617D01*
X153637Y150662D01*
D02*
G37*
G36*
X144765Y215491D02*
X143318Y215301D01*
X141969Y214742D01*
X140811Y213854D01*
X139923Y212696D01*
X139364Y211347D01*
X139174Y209900D01*
X139364Y208453D01*
X139923Y207104D01*
X140811Y205946D01*
X141969Y205058D01*
X143318Y204499D01*
X144765Y204309D01*
X146212Y204499D01*
X147561Y205058D01*
X148719Y205946D01*
X149607Y207104D01*
X150166Y208453D01*
X150356Y209900D01*
X150166Y211347D01*
X149607Y212696D01*
X148719Y213854D01*
X147561Y214742D01*
X146212Y215301D01*
X144765Y215491D01*
D02*
G37*
G36*
X67993D02*
X66546Y215301D01*
X65197Y214742D01*
X64039Y213854D01*
X63151Y212696D01*
X62592Y211347D01*
X62402Y209900D01*
X62592Y208453D01*
X63151Y207104D01*
X64039Y205946D01*
X65197Y205058D01*
X66546Y204499D01*
X67993Y204309D01*
X69440Y204499D01*
X70789Y205058D01*
X71947Y205946D01*
X72835Y207104D01*
X73394Y208453D01*
X73584Y209900D01*
X73394Y211347D01*
X72835Y212696D01*
X71947Y213854D01*
X70789Y214742D01*
X69440Y215301D01*
X67993Y215491D01*
D02*
G37*
G36*
X162179Y191294D02*
X160835Y191117D01*
X159582Y190598D01*
X158506Y189773D01*
X157681Y188697D01*
X157429Y188089D01*
X156929D01*
X156677Y188697D01*
X155852Y189773D01*
X154776Y190598D01*
X153523Y191117D01*
X153179Y191162D01*
Y186100D01*
X152179D01*
Y185100D01*
X147117D01*
X147162Y184756D01*
X147681Y183503D01*
X148506Y182427D01*
X149582Y181602D01*
X150190Y181350D01*
Y180850D01*
X149582Y180598D01*
X148506Y179773D01*
X147681Y178697D01*
X147162Y177444D01*
X147117Y177100D01*
X152179D01*
Y176100D01*
X153179D01*
Y171038D01*
X153523Y171083D01*
X154776Y171602D01*
X155852Y172427D01*
X156677Y173503D01*
X156929Y174111D01*
X157429D01*
X157681Y173503D01*
X158506Y172427D01*
X159582Y171602D01*
X160835Y171083D01*
X162179Y170906D01*
X163523Y171083D01*
X164776Y171602D01*
X165852Y172427D01*
X166677Y173503D01*
X166929Y174111D01*
X167429D01*
X167681Y173503D01*
X168506Y172427D01*
X169582Y171602D01*
X170835Y171083D01*
X172179Y170906D01*
X173523Y171083D01*
X174776Y171602D01*
X175852Y172427D01*
X176677Y173503D01*
X177196Y174756D01*
X177373Y176100D01*
X177196Y177444D01*
X176677Y178697D01*
X175852Y179773D01*
X175020Y180411D01*
X175189Y180911D01*
X175329D01*
X176109Y181066D01*
X176770Y181509D01*
X177213Y182170D01*
X177368Y182950D01*
Y189250D01*
X177213Y190030D01*
X176770Y190691D01*
X176109Y191134D01*
X175329Y191289D01*
X169029D01*
X168249Y191134D01*
X167587Y190691D01*
X167145Y190030D01*
X166990Y189250D01*
Y189110D01*
X166490Y188941D01*
X165852Y189773D01*
X164776Y190598D01*
X163523Y191117D01*
X162179Y191294D01*
D02*
G37*
G36*
X41379Y208700D02*
X37317D01*
X37362Y208356D01*
X37881Y207103D01*
X38706Y206027D01*
X39782Y205202D01*
X41035Y204683D01*
X41379Y204638D01*
Y208700D01*
D02*
G37*
G36*
X52379Y214894D02*
X51035Y214717D01*
X49782Y214198D01*
X48706Y213373D01*
X47881Y212297D01*
X47629Y211689D01*
X47129D01*
X46877Y212297D01*
X46052Y213373D01*
X44976Y214198D01*
X43723Y214717D01*
X43379Y214762D01*
Y209700D01*
Y204638D01*
X43723Y204683D01*
X44976Y205202D01*
X46052Y206027D01*
X46877Y207103D01*
X47129Y207711D01*
X47629D01*
X47881Y207103D01*
X48706Y206027D01*
X49782Y205202D01*
X51035Y204683D01*
X52379Y204506D01*
X53723Y204683D01*
X54976Y205202D01*
X56052Y206027D01*
X56877Y207103D01*
X57396Y208356D01*
X57573Y209700D01*
X57396Y211044D01*
X56877Y212297D01*
X56052Y213373D01*
X54976Y214198D01*
X53723Y214717D01*
X52379Y214894D01*
D02*
G37*
G36*
X41379Y214762D02*
X41035Y214717D01*
X39782Y214198D01*
X38706Y213373D01*
X37881Y212297D01*
X37362Y211044D01*
X37317Y210700D01*
X41379D01*
Y214762D01*
D02*
G37*
G36*
X156979Y214996D02*
X155686Y214825D01*
X154481Y214326D01*
X153447Y213532D01*
X152653Y212498D01*
X152154Y211293D01*
X151983Y210000D01*
X152154Y208707D01*
X152653Y207502D01*
X153447Y206468D01*
X154481Y205674D01*
X155686Y205175D01*
X156979Y205005D01*
X158272Y205175D01*
X159477Y205674D01*
X160511Y206468D01*
X161305Y207502D01*
X161487Y207941D01*
X161987Y207842D01*
Y207047D01*
X162142Y206267D01*
X162584Y205605D01*
X163246Y205163D01*
X164026Y205008D01*
X169932D01*
X170712Y205163D01*
X171374Y205605D01*
X171816Y206267D01*
X171971Y207047D01*
Y212953D01*
X171816Y213733D01*
X171374Y214395D01*
X170712Y214837D01*
X169932Y214992D01*
X164026D01*
X163246Y214837D01*
X162584Y214395D01*
X162142Y213733D01*
X161987Y212953D01*
Y212158D01*
X161487Y212059D01*
X161305Y212498D01*
X160511Y213532D01*
X159477Y214326D01*
X158272Y214825D01*
X156979Y214996D01*
D02*
G37*
G36*
X157699Y160500D02*
X153637D01*
Y156438D01*
X153981Y156483D01*
X155234Y157002D01*
X156309Y157827D01*
X157135Y158903D01*
X157653Y160156D01*
X157699Y160500D01*
D02*
G37*
G36*
X151637D02*
X147574D01*
X147619Y160156D01*
X148138Y158903D01*
X148964Y157827D01*
X150040Y157002D01*
X151292Y156483D01*
X151637Y156438D01*
Y160500D01*
D02*
G37*
G36*
X172321Y166694D02*
X170977Y166517D01*
X169725Y165998D01*
X168649Y165173D01*
X167823Y164097D01*
X167304Y162844D01*
X167127Y161500D01*
X167304Y160156D01*
X167823Y158903D01*
X168649Y157827D01*
X169725Y157002D01*
X170977Y156483D01*
X172321Y156306D01*
X173666Y156483D01*
X174918Y157002D01*
X175994Y157827D01*
X176820Y158903D01*
X177339Y160156D01*
X177515Y161500D01*
X177339Y162844D01*
X176820Y164097D01*
X175994Y165173D01*
X174918Y165998D01*
X173666Y166517D01*
X172321Y166694D01*
D02*
G37*
G36*
X151637Y166562D02*
X151292Y166517D01*
X150040Y165998D01*
X148964Y165173D01*
X148138Y164097D01*
X147619Y162844D01*
X147574Y162500D01*
X151637D01*
Y166562D01*
D02*
G37*
G36*
X151179Y191162D02*
X150835Y191117D01*
X149582Y190598D01*
X148506Y189773D01*
X147681Y188697D01*
X147162Y187444D01*
X147117Y187100D01*
X151179D01*
Y191162D01*
D02*
G37*
G36*
Y175100D02*
X147117D01*
X147162Y174756D01*
X147681Y173503D01*
X148506Y172427D01*
X149582Y171602D01*
X150835Y171083D01*
X151179Y171038D01*
Y175100D01*
D02*
G37*
G36*
X153637Y166562D02*
Y162500D01*
X157699D01*
X157653Y162844D01*
X157135Y164097D01*
X156309Y165173D01*
X155234Y165998D01*
X153981Y166517D01*
X153637Y166562D01*
D02*
G37*
%LPD*%
D12*
X161379Y105457D02*
D03*
Y125142D02*
D03*
X152179Y176100D02*
D03*
Y186100D02*
D03*
X162179Y176100D02*
D03*
Y186100D02*
D03*
X172179Y176100D02*
D03*
X152637Y145600D02*
D03*
X172321D02*
D03*
X152637Y161500D02*
D03*
X172321D02*
D03*
X52379Y209700D02*
D03*
X42379D02*
D03*
D13*
X72197Y77034D02*
D03*
X148969D02*
D03*
X67993Y209900D02*
D03*
X144765D02*
D03*
X160079Y41600D02*
D03*
Y21600D02*
D03*
D14*
X172179Y186100D02*
D03*
D15*
X156979Y210000D02*
D03*
D16*
X166979D02*
D03*
D17*
X40279Y34540D02*
D03*
Y64060D02*
D03*
D18*
X45479Y105500D02*
D03*
D19*
Y125500D02*
D03*
X125479Y105500D02*
D03*
Y145500D02*
D03*
D20*
X123914Y22199D02*
D03*
X84516D02*
D03*
D21*
X29479Y221800D02*
D03*
X28079Y211800D02*
D03*
X29479Y204200D02*
D03*
X40879Y225200D02*
D03*
X55579Y226000D02*
D03*
X80879Y224000D02*
D03*
X111179Y223500D02*
D03*
X94779Y212100D02*
D03*
X86279Y203900D02*
D03*
X110679Y206400D02*
D03*
X123079Y195900D02*
D03*
X120579Y178400D02*
D03*
X130779Y166700D02*
D03*
X139279Y154300D02*
D03*
X140079Y137000D02*
D03*
X141279Y119900D02*
D03*
X124279Y120800D02*
D03*
X128779Y129300D02*
D03*
X201679Y163300D02*
D03*
X197679Y188300D02*
D03*
X200279Y202500D02*
D03*
X187779Y224900D02*
D03*
X192879Y210700D02*
D03*
X186879Y190300D02*
D03*
X186379Y171800D02*
D03*
X183279Y154000D02*
D03*
X180679Y205300D02*
D03*
X175879Y220300D02*
D03*
X152879Y223500D02*
D03*
X139279Y220600D02*
D03*
X150879Y197600D02*
D03*
X160979Y198800D02*
D03*
X133679Y180000D02*
D03*
X141379Y198300D02*
D03*
M02*
