G04 Layer_Color=32768*
%FSLAX25Y25*%
%MOIN*%
G70*
G01*
G75*
%ADD38C,0.00200*%
G36*
X161840Y106570D02*
X162231Y106309D01*
X162492Y105918D01*
X162584Y105457D01*
X162492Y104996D01*
X162231Y104605D01*
X161840Y104344D01*
X161379Y104252D01*
X160918Y104344D01*
X160527Y104605D01*
X160266Y104996D01*
X160174Y105457D01*
X160266Y105918D01*
X160527Y106309D01*
X160918Y106570D01*
X161379Y106662D01*
X161840Y106570D01*
D02*
G37*
G36*
X141875Y95795D02*
X141949Y95614D01*
X141875Y95433D01*
X141694Y95359D01*
X141513Y95433D01*
X141438Y95614D01*
X141513Y95795D01*
X141694Y95870D01*
X141875Y95795D01*
D02*
G37*
G36*
X60645Y83445D02*
X60720Y83265D01*
X60645Y83084D01*
X60464Y83009D01*
X60283Y83084D01*
X60208Y83265D01*
X60283Y83445D01*
X60464Y83520D01*
X60645Y83445D01*
D02*
G37*
G36*
X161840Y126255D02*
X162231Y125994D01*
X162492Y125603D01*
X162584Y125142D01*
X162492Y124681D01*
X162231Y124290D01*
X161840Y124029D01*
X161379Y123937D01*
X160918Y124029D01*
X160527Y124290D01*
X160266Y124681D01*
X160174Y125142D01*
X160266Y125603D01*
X160527Y125994D01*
X160918Y126255D01*
X161379Y126347D01*
X161840Y126255D01*
D02*
G37*
G36*
X151243Y152671D02*
X151318Y152490D01*
X151243Y152309D01*
X151062Y152234D01*
X150881Y152309D01*
X150806Y152490D01*
X150881Y152671D01*
X151062Y152745D01*
X151243Y152671D01*
D02*
G37*
G36*
X172705Y146527D02*
X173031Y146310D01*
X173249Y145984D01*
X173325Y145600D01*
X173249Y145216D01*
X173031Y144890D01*
X172705Y144673D01*
X172321Y144597D01*
X171937Y144673D01*
X171612Y144890D01*
X171394Y145216D01*
X171318Y145600D01*
X171394Y145984D01*
X171612Y146310D01*
X171937Y146527D01*
X172321Y146604D01*
X172705Y146527D01*
D02*
G37*
G36*
X153021D02*
X153346Y146310D01*
X153564Y145984D01*
X153640Y145600D01*
X153564Y145216D01*
X153346Y144890D01*
X153021Y144673D01*
X152637Y144597D01*
X152252Y144673D01*
X151927Y144890D01*
X151709Y145216D01*
X151633Y145600D01*
X151709Y145984D01*
X151927Y146310D01*
X152252Y146527D01*
X152637Y146604D01*
X153021Y146527D01*
D02*
G37*
G36*
X149093Y78615D02*
X150561D01*
Y77101D01*
X150574Y77034D01*
X150561Y76968D01*
Y75465D01*
X149151D01*
X148969Y75429D01*
X148787Y75465D01*
X133041D01*
Y78615D01*
X148845D01*
X148969Y78639D01*
X149093Y78615D01*
D02*
G37*
G36*
X41047Y36394D02*
X41698Y35959D01*
X42133Y35308D01*
X42286Y34540D01*
X42133Y33772D01*
X41698Y33121D01*
X41047Y32686D01*
X40279Y32533D01*
X39511Y32686D01*
X38860Y33121D01*
X38425Y33772D01*
X38272Y34540D01*
X38425Y35308D01*
X38860Y35959D01*
X39511Y36394D01*
X40279Y36547D01*
X41047Y36394D01*
D02*
G37*
G36*
X160540Y22713D02*
X160931Y22452D01*
X161192Y22061D01*
X161283Y21600D01*
X161192Y21139D01*
X160931Y20748D01*
X160540Y20487D01*
X160079Y20396D01*
X159618Y20487D01*
X159227Y20748D01*
X158966Y21139D01*
X158875Y21600D01*
X158966Y22061D01*
X159227Y22452D01*
X159618Y22713D01*
X160079Y22804D01*
X160540Y22713D01*
D02*
G37*
G36*
X152386Y15048D02*
X152461Y14868D01*
X152386Y14687D01*
X152205Y14612D01*
X152024Y14687D01*
X151949Y14868D01*
X152024Y15048D01*
X152205Y15123D01*
X152386Y15048D01*
D02*
G37*
G36*
X160540Y42713D02*
X160931Y42452D01*
X161192Y42061D01*
X161283Y41600D01*
X161192Y41139D01*
X160931Y40748D01*
X160540Y40487D01*
X160079Y40396D01*
X159618Y40487D01*
X159227Y40748D01*
X158966Y41139D01*
X158875Y41600D01*
X158966Y42061D01*
X159227Y42452D01*
X159618Y42713D01*
X160079Y42804D01*
X160540Y42713D01*
D02*
G37*
G36*
X72280Y78623D02*
X88144D01*
Y75473D01*
X72421D01*
X72197Y75429D01*
X71974Y75473D01*
X70625D01*
Y76870D01*
X70592Y77034D01*
X70625Y77199D01*
Y78623D01*
X72114D01*
X72197Y78639D01*
X72280Y78623D01*
D02*
G37*
G36*
X150742Y68160D02*
X150817Y67979D01*
X150742Y67799D01*
X150561Y67724D01*
X150380Y67799D01*
X150306Y67979D01*
X150380Y68160D01*
X150561Y68235D01*
X150742Y68160D01*
D02*
G37*
G36*
X41047Y65914D02*
X41698Y65479D01*
X42133Y64828D01*
X42286Y64060D01*
X42133Y63292D01*
X41698Y62641D01*
X41047Y62206D01*
X40279Y62053D01*
X39511Y62206D01*
X38860Y62641D01*
X38425Y63292D01*
X38272Y64060D01*
X38425Y64828D01*
X38860Y65479D01*
X39511Y65914D01*
X40279Y66067D01*
X41047Y65914D01*
D02*
G37*
G36*
X153021Y162427D02*
X153346Y162210D01*
X153564Y161884D01*
X153640Y161500D01*
X153564Y161116D01*
X153346Y160790D01*
X153021Y160573D01*
X152637Y160496D01*
X152252Y160573D01*
X151927Y160790D01*
X151709Y161116D01*
X151633Y161500D01*
X151709Y161884D01*
X151927Y162210D01*
X152252Y162427D01*
X152637Y162504D01*
X153021Y162427D01*
D02*
G37*
G36*
X146538Y201026D02*
X146613Y200845D01*
X146538Y200664D01*
X146357Y200589D01*
X146176Y200664D01*
X146101Y200845D01*
X146176Y201026D01*
X146357Y201100D01*
X146538Y201026D01*
D02*
G37*
G36*
X58187Y198429D02*
X58261Y198248D01*
X58187Y198068D01*
X58006Y197993D01*
X57825Y198068D01*
X57750Y198248D01*
X57825Y198429D01*
X58006Y198504D01*
X58187Y198429D01*
D02*
G37*
G36*
X177321Y191281D02*
X177395Y191100D01*
X177321Y190919D01*
X177140Y190845D01*
X176959Y190919D01*
X176884Y191100D01*
X176959Y191281D01*
X177140Y191356D01*
X177321Y191281D01*
D02*
G37*
G36*
X68076Y211489D02*
X83940D01*
Y208339D01*
X68216D01*
X67993Y208295D01*
X67770Y208339D01*
X66421D01*
Y209735D01*
X66388Y209900D01*
X66421Y210065D01*
Y211489D01*
X67910D01*
X67993Y211505D01*
X68076Y211489D01*
D02*
G37*
G36*
X52763Y210627D02*
X53089Y210410D01*
X53306Y210084D01*
X53382Y209700D01*
X53306Y209316D01*
X53089Y208990D01*
X52763Y208773D01*
X52379Y208697D01*
X51995Y208773D01*
X51669Y208990D01*
X51452Y209316D01*
X51375Y209700D01*
X51452Y210084D01*
X51669Y210410D01*
X51995Y210627D01*
X52379Y210703D01*
X52763Y210627D01*
D02*
G37*
G36*
X42763D02*
X43089Y210410D01*
X43306Y210084D01*
X43382Y209700D01*
X43306Y209316D01*
X43089Y208990D01*
X42763Y208773D01*
X42379Y208697D01*
X41995Y208773D01*
X41669Y208990D01*
X41452Y209316D01*
X41375Y209700D01*
X41452Y210084D01*
X41669Y210410D01*
X41995Y210627D01*
X42379Y210703D01*
X42763Y210627D01*
D02*
G37*
G36*
X144889Y211480D02*
X146357D01*
Y209967D01*
X146370Y209900D01*
X146357Y209833D01*
Y208331D01*
X144947D01*
X144765Y208295D01*
X144583Y208331D01*
X128837D01*
Y211480D01*
X144641D01*
X144765Y211505D01*
X144889Y211480D01*
D02*
G37*
G36*
X173439Y184840D02*
X170919D01*
Y187360D01*
X173439D01*
Y184840D01*
D02*
G37*
G36*
X153439Y174840D02*
X150919D01*
Y177360D01*
X153439D01*
Y174840D01*
D02*
G37*
G36*
X151243Y168570D02*
X151318Y168390D01*
X151243Y168209D01*
X151062Y168134D01*
X150881Y168209D01*
X150806Y168390D01*
X150881Y168570D01*
X151062Y168645D01*
X151243Y168570D01*
D02*
G37*
G36*
X172705Y162427D02*
X173031Y162210D01*
X173249Y161884D01*
X173325Y161500D01*
X173249Y161116D01*
X173031Y160790D01*
X172705Y160573D01*
X172321Y160496D01*
X171937Y160573D01*
X171612Y160790D01*
X171394Y161116D01*
X171318Y161500D01*
X171394Y161884D01*
X171612Y162210D01*
X171937Y162427D01*
X172321Y162504D01*
X172705Y162427D01*
D02*
G37*
G36*
X163439Y174840D02*
X160919D01*
Y177360D01*
X163439D01*
Y174840D01*
D02*
G37*
G36*
Y184840D02*
X160919D01*
Y187360D01*
X163439D01*
Y184840D01*
D02*
G37*
G36*
X153439D02*
X150919D01*
Y187360D01*
X153439D01*
Y184840D01*
D02*
G37*
G36*
X173439Y174840D02*
X170919D01*
Y177360D01*
X173439D01*
Y174840D01*
D02*
G37*
D38*
X161379Y134984D02*
G03*
X161379Y95614I0J-19685D01*
G01*
D02*
G03*
X161379Y134984I0J19685D01*
G01*
X87945Y67979D02*
X133221D01*
X87945D02*
Y86089D01*
X133221D01*
Y67979D02*
Y86089D01*
X177140Y171100D02*
Y191100D01*
X147218D02*
X177140D01*
X147218Y171100D02*
Y191100D01*
Y171100D02*
X177140D01*
X83741Y200845D02*
X129017D01*
Y218955D01*
X83741Y200845D02*
Y218955D01*
X129017D01*
X20094Y15335D02*
Y83265D01*
Y15335D02*
X60464D01*
X20094Y83265D02*
X60464D01*
Y15335D02*
Y83265D01*
X151652Y138710D02*
Y152490D01*
Y138710D02*
X173306D01*
Y152490D01*
X151652D02*
X173306D01*
X151652Y154610D02*
Y168390D01*
Y154610D02*
X173306D01*
Y168390D01*
X151652D02*
X173306D01*
X152205Y14868D02*
Y48332D01*
X167953D01*
Y14868D02*
Y48332D01*
X152205Y14868D02*
X167953D01*
X46352Y198248D02*
X47686Y198312D01*
X49552Y198645D01*
X51406Y199365D01*
X53019Y200258D01*
X54512Y201458D01*
X55752Y202872D01*
X56699Y204485D01*
X57406Y206018D01*
X57832Y207925D01*
X58006Y209685D01*
X57859Y211525D02*
X58006Y209685D01*
X57352Y213405D02*
X57859Y211525D01*
X56686Y215018D02*
X57352Y213405D01*
X55712Y216512D02*
X56686Y215018D01*
X54379Y218018D02*
X55712Y216512D01*
X52979Y219152D02*
X54379Y218018D01*
X51752Y219898D02*
X52979Y219152D01*
X50192Y220498D02*
X51752Y219898D01*
X48246Y220965D02*
X50192Y220498D01*
X47299Y221058D02*
X48246Y220965D01*
X46219Y221152D02*
X47299Y221058D01*
X44566Y220965D02*
X46219Y221152D01*
X42779Y220512D02*
X44566Y220965D01*
X40819Y219578D02*
X42779Y220512D01*
X38726Y218018D02*
X40819Y219578D01*
X37006Y215938D02*
X38726Y218018D01*
X36752Y215485D02*
X37006Y215938D01*
X36752Y215485D02*
X36793Y203744D01*
X37873Y202224D01*
X39233Y200891D01*
X40806Y199824D01*
X42406Y199037D01*
X44086Y198451D01*
X46352Y198248D01*
M02*
