G04 Layer_Color=32896*
%FSLAX25Y25*%
%MOIN*%
G70*
G01*
G75*
%ADD29C,0.01000*%
D29*
X230000Y138398D02*
Y132400D01*
X228001Y134399D01*
X226001Y132400D01*
Y138398D01*
X224002D02*
X220003Y132400D01*
Y138398D02*
X224002Y132400D01*
X218004Y137398D02*
X217004Y138398D01*
X215005D01*
X214005Y137398D01*
Y133400D01*
X215005Y132400D01*
X217004D01*
X218004Y133400D01*
Y137398D01*
X212006Y132400D02*
Y133400D01*
X211006D01*
Y132400D01*
X212006D01*
X207007Y137398D02*
X206008Y138398D01*
X204008D01*
X203009Y137398D01*
Y133400D01*
X204008Y132400D01*
X206008D01*
X207007Y133400D01*
Y137398D01*
X201009Y132400D02*
X199010D01*
X200010D01*
Y138398D01*
X201009Y137398D01*
X196011D02*
X195011Y138398D01*
X193012D01*
X192012Y137398D01*
Y133400D01*
X193012Y132400D01*
X195011D01*
X196011Y133400D01*
Y137398D01*
X190013Y132400D02*
Y133400D01*
X189013D01*
Y132400D01*
X190013D01*
X182016D02*
Y138398D01*
X185015Y135399D01*
X181016D01*
X179016Y132400D02*
X177017D01*
X178017D01*
Y138398D01*
X179016Y137398D01*
X174018Y132400D02*
X172019D01*
X173018D01*
Y138398D01*
X174018Y137398D01*
X169020Y132400D02*
Y138398D01*
X166021D01*
X165021Y137398D01*
Y135399D01*
X166021Y134399D01*
X169020D01*
X159023Y137398D02*
X160023Y138398D01*
X162022D01*
X163022Y137398D01*
Y133400D01*
X162022Y132400D01*
X160023D01*
X159023Y133400D01*
X157024Y138398D02*
Y132400D01*
X154025D01*
X153025Y133400D01*
Y134399D01*
X154025Y135399D01*
X157024D01*
X154025D01*
X153025Y136399D01*
Y137398D01*
X154025Y138398D01*
X157024D01*
X229400Y129198D02*
Y125199D01*
X227401Y123200D01*
X225401Y125199D01*
Y129198D01*
X223402Y123200D02*
X221403D01*
X222402D01*
Y129198D01*
X223402Y128198D01*
M02*
