G04 Layer_Color=255*
%FSLAX25Y25*%
%MOIN*%
G70*
G01*
G75*
%ADD21R,0.09842X0.14961*%
%ADD27C,0.03937*%
%ADD32C,0.05905*%
%ADD33R,0.05905X0.05905*%
%ADD34C,0.06299*%
%ADD35R,0.06299X0.06299*%
%ADD36R,0.04724X0.07874*%
%ADD37O,0.04724X0.07874*%
%ADD38C,0.13780*%
%ADD39R,0.13780X0.13780*%
%ADD40R,0.05905X0.05905*%
D21*
X172700Y31700D02*
D03*
X69300Y19300D02*
D03*
D27*
X265700Y195800D02*
D03*
X9100Y140000D02*
D03*
D32*
X125300Y62800D02*
D03*
Y72800D02*
D03*
Y82800D02*
D03*
Y92800D02*
D03*
X13200Y240300D02*
D03*
X23200Y230300D02*
D03*
Y240300D02*
D03*
X33200Y230300D02*
D03*
Y240300D02*
D03*
X43200Y230300D02*
D03*
Y240300D02*
D03*
X28800Y180700D02*
D03*
Y170700D02*
D03*
Y160700D02*
D03*
X11800Y180200D02*
D03*
Y170200D02*
D03*
Y160200D02*
D03*
D33*
X125300Y102800D02*
D03*
X28800Y150700D02*
D03*
X11800Y150200D02*
D03*
D34*
X222900Y239700D02*
D03*
X212900D02*
D03*
X202900D02*
D03*
X192900D02*
D03*
X182900D02*
D03*
X172900D02*
D03*
X162900D02*
D03*
X152900D02*
D03*
X142900D02*
D03*
X132900D02*
D03*
X222900Y229700D02*
D03*
X212900D02*
D03*
X202900D02*
D03*
X192900D02*
D03*
X182900D02*
D03*
X172900D02*
D03*
X162900D02*
D03*
X152900D02*
D03*
X142900D02*
D03*
X267179Y67900D02*
D03*
X253400D02*
D03*
X16220Y80500D02*
D03*
X30000D02*
D03*
X104900Y18420D02*
D03*
Y32200D02*
D03*
X138100Y31879D02*
D03*
Y18100D02*
D03*
D35*
X132900Y229700D02*
D03*
D36*
X143200Y166600D02*
D03*
D37*
X133200Y166600D02*
D03*
D38*
X261600Y40485D02*
D03*
X22000Y40385D02*
D03*
D39*
X261600Y20800D02*
D03*
X22000Y20700D02*
D03*
D40*
X13200Y230300D02*
D03*
M02*
