G04 Layer_Color=16711935*
%FSLAX25Y25*%
%MOIN*%
G70*
G01*
G75*
%ADD29C,0.01000*%
D29*
X283800Y2700D02*
Y4600D01*
Y504700D02*
Y508400D01*
X579411Y0D02*
Y512600D01*
X-11811Y0D02*
Y512600D01*
X0D01*
X567600D02*
X579411D01*
X567600Y0D02*
X579411D01*
X-11811D02*
X0D01*
X279200Y256300D02*
X283800Y260900D01*
Y504700D01*
X275900Y512600D02*
X283800Y504700D01*
X4200Y512600D02*
X275900D01*
X0Y508400D02*
X4200Y512600D01*
X0Y506900D02*
Y508400D01*
Y259000D02*
Y508400D01*
Y259000D02*
X2700Y256300D01*
X279200D01*
X0D02*
Y259000D01*
Y508000D02*
Y512600D01*
X4200D01*
X563000Y256300D02*
X567600Y260900D01*
Y504700D01*
X559700Y512600D02*
X567600Y504700D01*
X288000Y512600D02*
X559700D01*
X283800Y508400D02*
X288000Y512600D01*
X283800Y506900D02*
Y508400D01*
Y259000D02*
Y508400D01*
Y259000D02*
X286500Y256300D01*
X563000D01*
X567600Y504700D02*
Y512600D01*
X563000Y256300D02*
X567600D01*
Y256400D02*
Y260900D01*
X567500Y256300D02*
X567600Y256400D01*
X563000Y0D02*
X567600Y4600D01*
Y248400D01*
X559700Y256300D02*
X567600Y248400D01*
X288000Y256300D02*
X559700D01*
X283800Y252100D02*
X288000Y256300D01*
X283800Y250600D02*
Y252100D01*
Y2700D02*
Y252100D01*
Y2700D02*
X286500Y0D01*
X563000D01*
X559700Y256300D02*
X567600D01*
Y248400D02*
Y256300D01*
Y100D02*
Y4600D01*
X0Y251700D02*
Y256300D01*
Y100D02*
X100Y0D01*
X2700D01*
X0D02*
Y2700D01*
X2700Y0D02*
X279200D01*
X0Y2700D02*
X2700Y0D01*
X0Y2700D02*
Y252100D01*
Y250600D02*
Y252100D01*
X4200Y256300D01*
X275900D01*
X283800Y248400D01*
Y4600D02*
Y248400D01*
X279200Y0D02*
X283800Y4600D01*
M02*
