G04 Layer_Color=8388736*
%FSLAX25Y25*%
%MOIN*%
G70*
G01*
G75*
%ADD52R,0.03900X0.04300*%
%ADD53R,0.04300X0.03900*%
%ADD54R,0.22060X0.13792*%
%ADD55R,0.05918X0.04737*%
%ADD56R,0.04800X0.04800*%
%ADD57R,0.05918X0.06312*%
%ADD58R,0.05800X0.03950*%
%ADD59R,0.10800X0.03950*%
%ADD60O,0.13792X0.08674*%
%ADD61R,0.08800X0.09855*%
%ADD62R,0.08674X0.03162*%
%ADD63R,0.10642X0.15761*%
%ADD64O,0.07493X0.01981*%
%ADD65O,0.01981X0.07493*%
%ADD66R,0.06312X0.05918*%
%ADD67R,0.09855X0.08800*%
%ADD68O,0.03200X0.08800*%
%ADD69C,0.04737*%
%ADD70C,0.06706*%
%ADD71R,0.06706X0.06706*%
%ADD72C,0.07099*%
%ADD73R,0.07099X0.07099*%
%ADD74R,0.05524X0.08674*%
%ADD75O,0.05524X0.08674*%
%ADD76C,0.14579*%
%ADD77R,0.14579X0.14579*%
%ADD78R,0.06706X0.06706*%
%ADD79C,0.04000*%
D52*
X20300Y171100D02*
D03*
Y177800D02*
D03*
X73000Y116651D02*
D03*
Y123351D02*
D03*
X109600Y112149D02*
D03*
Y105449D02*
D03*
X116600Y112000D02*
D03*
Y105300D02*
D03*
X65300Y123549D02*
D03*
Y116849D02*
D03*
X59400Y123649D02*
D03*
Y116949D02*
D03*
X44900Y117651D02*
D03*
Y124351D02*
D03*
X20200Y159800D02*
D03*
Y153100D02*
D03*
X235200Y147300D02*
D03*
Y154000D02*
D03*
X228800Y147200D02*
D03*
Y153900D02*
D03*
X178000Y198500D02*
D03*
Y205200D02*
D03*
X170900Y198700D02*
D03*
Y205400D02*
D03*
X164500Y197600D02*
D03*
Y204300D02*
D03*
X86100Y210500D02*
D03*
Y203800D02*
D03*
X79800Y210500D02*
D03*
Y203800D02*
D03*
X73500Y210500D02*
D03*
Y203800D02*
D03*
X60900Y210500D02*
D03*
Y203800D02*
D03*
X67200Y210500D02*
D03*
Y203800D02*
D03*
X42700Y13000D02*
D03*
Y19700D02*
D03*
Y26000D02*
D03*
Y32700D02*
D03*
Y39100D02*
D03*
Y45800D02*
D03*
X213500Y170000D02*
D03*
Y176700D02*
D03*
X207600Y170000D02*
D03*
Y176700D02*
D03*
D53*
X44600Y153700D02*
D03*
X37900D02*
D03*
X115400Y90100D02*
D03*
X108700D02*
D03*
X115300Y95900D02*
D03*
X108600D02*
D03*
X170700Y129500D02*
D03*
X177400D02*
D03*
X170600Y97500D02*
D03*
X177300D02*
D03*
X177200Y123500D02*
D03*
X170500D02*
D03*
X176900Y76900D02*
D03*
X170200D02*
D03*
X170600Y103100D02*
D03*
X177300D02*
D03*
X273000Y92100D02*
D03*
X266300D02*
D03*
X273100Y118200D02*
D03*
X266400D02*
D03*
X273100Y112300D02*
D03*
X266400D02*
D03*
X255500Y92400D02*
D03*
X248800D02*
D03*
X255600Y118600D02*
D03*
X248900D02*
D03*
X255600Y112900D02*
D03*
X248900D02*
D03*
X216100Y93400D02*
D03*
X209400D02*
D03*
X209500Y113800D02*
D03*
X216200D02*
D03*
X216100Y140300D02*
D03*
X209400D02*
D03*
X209500Y119800D02*
D03*
X216200D02*
D03*
X209400Y146500D02*
D03*
X216100D02*
D03*
X198500Y97800D02*
D03*
X191800D02*
D03*
X235200Y140500D02*
D03*
X228500D02*
D03*
X221049Y159900D02*
D03*
X214349D02*
D03*
X228851Y160100D02*
D03*
X235551D02*
D03*
X228500Y119800D02*
D03*
X235200D02*
D03*
X228300Y93400D02*
D03*
X235000D02*
D03*
X228600Y113800D02*
D03*
X235300D02*
D03*
X159300Y77100D02*
D03*
X152600D02*
D03*
X152700Y131300D02*
D03*
X159400D02*
D03*
X159300Y125300D02*
D03*
X152600D02*
D03*
X152900Y104800D02*
D03*
X159600D02*
D03*
X152800Y99000D02*
D03*
X159500D02*
D03*
X192000Y124700D02*
D03*
X198700D02*
D03*
X192000Y119000D02*
D03*
X198700D02*
D03*
X198900Y145300D02*
D03*
X192200D02*
D03*
X192300Y151200D02*
D03*
X199000D02*
D03*
X26051Y100200D02*
D03*
X32751D02*
D03*
X33849Y138900D02*
D03*
X27149D02*
D03*
X33849Y133100D02*
D03*
X27149D02*
D03*
X33849Y127300D02*
D03*
X27149D02*
D03*
X175600Y54300D02*
D03*
X168900D02*
D03*
X188800Y46600D02*
D03*
X182100D02*
D03*
X188700Y54300D02*
D03*
X182000D02*
D03*
X158951Y13000D02*
D03*
X165651D02*
D03*
X83049Y39100D02*
D03*
X76349D02*
D03*
X62349Y40000D02*
D03*
X55649D02*
D03*
X163300Y46600D02*
D03*
X156600D02*
D03*
X176000D02*
D03*
X169300D02*
D03*
X176851Y14600D02*
D03*
X183551D02*
D03*
X29100Y55600D02*
D03*
X35800D02*
D03*
X15300D02*
D03*
X22000D02*
D03*
X117800Y166200D02*
D03*
X124500D02*
D03*
X44500Y160500D02*
D03*
X37800D02*
D03*
D54*
X65400Y58224D02*
D03*
Y98776D02*
D03*
X217800Y34424D02*
D03*
Y74976D02*
D03*
D55*
X52000Y125143D02*
D03*
Y115300D02*
D03*
D56*
X173680Y92065D02*
D03*
X169940Y82616D02*
D03*
X177421D02*
D03*
X173800Y118024D02*
D03*
X170060Y108576D02*
D03*
X177540D02*
D03*
X269500Y133324D02*
D03*
X265760Y123876D02*
D03*
X273240D02*
D03*
X269700Y106924D02*
D03*
X265960Y97476D02*
D03*
X273440D02*
D03*
X252280Y133665D02*
D03*
X248540Y124216D02*
D03*
X256021D02*
D03*
X252100Y107424D02*
D03*
X248360Y97976D02*
D03*
X255840D02*
D03*
X212700Y108324D02*
D03*
X208960Y98876D02*
D03*
X216440D02*
D03*
X212900Y134824D02*
D03*
X209160Y125376D02*
D03*
X216640D02*
D03*
X195200Y113224D02*
D03*
X191460Y103776D02*
D03*
X198940D02*
D03*
X231900Y134924D02*
D03*
X228160Y125476D02*
D03*
X235640D02*
D03*
X231700Y108324D02*
D03*
X227960Y98876D02*
D03*
X235440D02*
D03*
X156100Y119824D02*
D03*
X152360Y110376D02*
D03*
X159840D02*
D03*
X156000Y93424D02*
D03*
X152260Y83976D02*
D03*
X159740D02*
D03*
X195500Y139524D02*
D03*
X191760Y130076D02*
D03*
X199240D02*
D03*
D57*
X245591Y140900D02*
D03*
X257009D02*
D03*
D58*
X33643Y107595D02*
D03*
Y119405D02*
D03*
D59*
X31143Y113500D02*
D03*
D60*
X22226D02*
D03*
D61*
X203950Y14300D02*
D03*
X222450D02*
D03*
D62*
X161314Y27700D02*
D03*
Y37700D02*
D03*
Y32700D02*
D03*
Y22700D02*
D03*
X184700Y37700D02*
D03*
Y32700D02*
D03*
Y27700D02*
D03*
Y22700D02*
D03*
X80686Y23300D02*
D03*
Y13300D02*
D03*
Y18300D02*
D03*
Y28300D02*
D03*
X57300Y13300D02*
D03*
Y18300D02*
D03*
Y23300D02*
D03*
Y28300D02*
D03*
D63*
X172700Y31700D02*
D03*
X69300Y19300D02*
D03*
D64*
X105884Y140499D02*
D03*
Y142468D02*
D03*
Y144436D02*
D03*
Y146405D02*
D03*
Y148373D02*
D03*
Y150342D02*
D03*
Y152310D02*
D03*
Y154279D02*
D03*
Y156247D02*
D03*
Y158216D02*
D03*
Y160184D02*
D03*
Y162153D02*
D03*
Y164121D02*
D03*
Y166090D02*
D03*
Y168058D02*
D03*
Y170027D02*
D03*
Y171995D02*
D03*
Y173964D02*
D03*
Y175932D02*
D03*
Y177901D02*
D03*
X53916D02*
D03*
Y175932D02*
D03*
Y173964D02*
D03*
Y171995D02*
D03*
Y170027D02*
D03*
Y168058D02*
D03*
Y166090D02*
D03*
Y164121D02*
D03*
Y162153D02*
D03*
Y160184D02*
D03*
Y158216D02*
D03*
Y156247D02*
D03*
Y154279D02*
D03*
Y152310D02*
D03*
Y150342D02*
D03*
Y148373D02*
D03*
Y146405D02*
D03*
Y144436D02*
D03*
Y142468D02*
D03*
Y140499D02*
D03*
D65*
X98601Y185184D02*
D03*
X96632D02*
D03*
X94664D02*
D03*
X92695D02*
D03*
X90727D02*
D03*
X88758D02*
D03*
X86790D02*
D03*
X84821D02*
D03*
X82853D02*
D03*
X80884D02*
D03*
X78916D02*
D03*
X76947D02*
D03*
X74979D02*
D03*
X73010D02*
D03*
X71042D02*
D03*
X69073D02*
D03*
X67105D02*
D03*
X65136D02*
D03*
X63168D02*
D03*
X61199D02*
D03*
Y133216D02*
D03*
X63168D02*
D03*
X65136D02*
D03*
X67105D02*
D03*
X69073D02*
D03*
X71042D02*
D03*
X73010D02*
D03*
X74979D02*
D03*
X76947D02*
D03*
X78916D02*
D03*
X80884D02*
D03*
X82853D02*
D03*
X84821D02*
D03*
X86790D02*
D03*
X88758D02*
D03*
X90727D02*
D03*
X92695D02*
D03*
X94664D02*
D03*
X96632D02*
D03*
X98601D02*
D03*
D66*
X269100Y150809D02*
D03*
Y139391D02*
D03*
D67*
X98600Y67250D02*
D03*
Y48750D02*
D03*
D68*
X235300Y170300D02*
D03*
X230300D02*
D03*
X225300D02*
D03*
X220300D02*
D03*
Y192300D02*
D03*
X225300D02*
D03*
X230300D02*
D03*
X235300D02*
D03*
D69*
X265700Y195800D02*
D03*
X9100Y140000D02*
D03*
D70*
X125300Y62800D02*
D03*
Y72800D02*
D03*
Y82800D02*
D03*
Y92800D02*
D03*
X13200Y240300D02*
D03*
X23200Y230300D02*
D03*
Y240300D02*
D03*
X33200Y230300D02*
D03*
Y240300D02*
D03*
X43200Y230300D02*
D03*
Y240300D02*
D03*
X28800Y180700D02*
D03*
Y170700D02*
D03*
Y160700D02*
D03*
X11800Y180200D02*
D03*
Y170200D02*
D03*
Y160200D02*
D03*
D71*
X125300Y102800D02*
D03*
X28800Y150700D02*
D03*
X11800Y150200D02*
D03*
D72*
X222900Y239700D02*
D03*
X212900D02*
D03*
X202900D02*
D03*
X192900D02*
D03*
X182900D02*
D03*
X172900D02*
D03*
X162900D02*
D03*
X152900D02*
D03*
X142900D02*
D03*
X132900D02*
D03*
X222900Y229700D02*
D03*
X212900D02*
D03*
X202900D02*
D03*
X192900D02*
D03*
X182900D02*
D03*
X172900D02*
D03*
X162900D02*
D03*
X152900D02*
D03*
X142900D02*
D03*
X267179Y67900D02*
D03*
X253400D02*
D03*
X16220Y80500D02*
D03*
X30000D02*
D03*
X104900Y18420D02*
D03*
Y32200D02*
D03*
X138100Y31879D02*
D03*
Y18100D02*
D03*
D73*
X132900Y229700D02*
D03*
D74*
X143200Y166600D02*
D03*
D75*
X133200Y166600D02*
D03*
D76*
X261600Y40485D02*
D03*
X22000Y40385D02*
D03*
D77*
X261600Y20800D02*
D03*
X22000Y20700D02*
D03*
D78*
X13200Y230300D02*
D03*
D79*
X172989Y31400D02*
D03*
Y36400D02*
D03*
Y26400D02*
D03*
X69011Y19600D02*
D03*
Y14600D02*
D03*
Y24600D02*
D03*
M02*
