G04 Layer_Color=2752767*
%FSLAX25Y25*%
%MOIN*%
G70*
G01*
G75*
%ADD10C,0.00394*%
%ADD11C,0.00200*%
%ADD12C,0.00267*%
D10*
X101947Y139121D02*
G03*
X101947Y139121I-1969J0D01*
G01*
X103522Y135578D02*
Y182822D01*
X56278Y135578D02*
Y182822D01*
Y135578D02*
X103522D01*
X56278Y182822D02*
X103522D01*
D11*
X124500Y62000D02*
Y63600D01*
X126100D01*
Y62000D01*
X124500D01*
Y72000D02*
Y73600D01*
X126100D01*
Y72000D01*
X124500D01*
Y82000D02*
Y83600D01*
X126100D01*
Y82000D01*
X124500D01*
Y92000D02*
Y93600D01*
X126100D01*
Y92000D01*
X124500D01*
Y102000D02*
Y103600D01*
X126100D01*
Y102000D01*
X124500D01*
X143200Y165800D02*
X142400Y167400D01*
X144000D01*
X143200Y165800D01*
X133200Y165800D02*
X132400Y167400D01*
X134000D01*
X133200Y165800D01*
X267179Y67100D02*
X267580Y67500D01*
X267980D01*
X267580Y67900D01*
X267980Y68300D01*
X267580D01*
X267179Y68700D01*
X266779Y68300D01*
X266379D01*
X266779Y67900D01*
X266379Y67500D01*
X266779D01*
X267179Y67100D01*
X253400D02*
X253800Y67500D01*
X254200D01*
X253800Y67900D01*
X254200Y68300D01*
X253800D01*
X253400Y68700D01*
X253000Y68300D01*
X252600D01*
X253000Y67900D01*
X252600Y67500D01*
X253000D01*
X253400Y67100D01*
X16220Y79700D02*
X16621Y80100D01*
X17020D01*
X16621Y80500D01*
X17020Y80900D01*
X16621D01*
X16220Y81300D01*
X15821Y80900D01*
X15420D01*
X15821Y80500D01*
X15420Y80100D01*
X15821D01*
X16220Y79700D01*
X30000D02*
X30400Y80100D01*
X30800D01*
X30400Y80500D01*
X30800Y80900D01*
X30400D01*
X30000Y81300D01*
X29600Y80900D01*
X29200D01*
X29600Y80500D01*
X29200Y80100D01*
X29600D01*
X30000Y79700D01*
X260800Y39685D02*
X261200Y40485D01*
X260800Y41285D01*
X261600Y40885D01*
X262400Y41285D01*
X262000Y40485D01*
X262400Y39685D01*
X261600Y40085D01*
X260800Y39685D01*
Y20000D02*
X261200Y20800D01*
X260800Y21600D01*
X261600Y21200D01*
X262400Y21600D01*
X262000Y20800D01*
X262400Y20000D01*
X261600Y20400D01*
X260800Y20000D01*
X104900Y17620D02*
X105300Y18021D01*
X105700D01*
X105300Y18420D01*
X105700Y18821D01*
X105300D01*
X104900Y19220D01*
X104500Y18821D01*
X104100D01*
X104500Y18420D01*
X104100Y18021D01*
X104500D01*
X104900Y17620D01*
Y31400D02*
X105300Y31800D01*
X105700D01*
X105300Y32200D01*
X105700Y32600D01*
X105300D01*
X104900Y33000D01*
X104500Y32600D01*
X104100D01*
X104500Y32200D01*
X104100Y31800D01*
X104500D01*
X104900Y31400D01*
X21200Y39585D02*
X21600Y40385D01*
X21200Y41185D01*
X22000Y40785D01*
X22800Y41185D01*
X22400Y40385D01*
X22800Y39585D01*
X22000Y39985D01*
X21200Y39585D01*
Y19900D02*
X21600Y20700D01*
X21200Y21500D01*
X22000Y21100D01*
X22800Y21500D01*
X22400Y20700D01*
X22800Y19900D01*
X22000Y20300D01*
X21200Y19900D01*
X12400Y229500D02*
Y231100D01*
X14000D01*
Y229500D01*
X12400D01*
Y239500D02*
Y241100D01*
X14000D01*
Y239500D01*
X12400D01*
X22400Y229500D02*
Y231100D01*
X24000D01*
Y229500D01*
X22400D01*
Y239500D02*
Y241100D01*
X24000D01*
Y239500D01*
X22400D01*
X32400Y229500D02*
Y231100D01*
X34000D01*
Y229500D01*
X32400D01*
Y239500D02*
Y241100D01*
X34000D01*
Y239500D01*
X32400D01*
X42400Y229500D02*
Y231100D01*
X44000D01*
Y229500D01*
X42400D01*
Y239500D02*
Y241100D01*
X44000D01*
Y239500D01*
X42400D01*
X28000Y179900D02*
Y181500D01*
X29600D01*
Y179900D01*
X28000D01*
Y169900D02*
Y171500D01*
X29600D01*
Y169900D01*
X28000D01*
Y159900D02*
Y161500D01*
X29600D01*
Y159900D01*
X28000D01*
Y149900D02*
Y151500D01*
X29600D01*
Y149900D01*
X28000D01*
X11000Y179400D02*
Y181000D01*
X12600D01*
Y179400D01*
X11000D01*
Y169400D02*
Y171000D01*
X12600D01*
Y169400D01*
X11000D01*
Y159400D02*
Y161000D01*
X12600D01*
Y159400D01*
X11000D01*
Y149400D02*
Y151000D01*
X12600D01*
Y149400D01*
X11000D01*
X138100Y31080D02*
X138500Y31479D01*
X138900D01*
X138500Y31879D01*
X138900Y32280D01*
X138500D01*
X138100Y32680D01*
X137700Y32280D01*
X137300D01*
X137700Y31879D01*
X137300Y31479D01*
X137700D01*
X138100Y31080D01*
Y17300D02*
X138500Y17700D01*
X138900D01*
X138500Y18100D01*
X138900Y18500D01*
X138500D01*
X138100Y18900D01*
X137700Y18500D01*
X137300D01*
X137700Y18100D01*
X137300Y17700D01*
X137700D01*
X138100Y17300D01*
X149400Y134800D02*
Y134400D01*
X150200D01*
Y134800D01*
X150600D01*
Y135600D01*
X150200D01*
Y136000D01*
X149400D01*
Y135600D01*
X149000D01*
Y134800D01*
X149400D01*
X155100Y137800D02*
Y137400D01*
X155900D01*
Y137800D01*
X156300D01*
Y138600D01*
X155900D01*
Y139000D01*
X155100D01*
Y138600D01*
X154700D01*
Y137800D01*
X155100D01*
X159300Y134000D02*
Y133600D01*
X160100D01*
Y134000D01*
X160500D01*
Y134800D01*
X160100D01*
Y135200D01*
X159300D01*
Y134800D01*
X158900D01*
Y134000D01*
X159300D01*
X170200Y134100D02*
Y133700D01*
X171000D01*
Y134100D01*
X171400D01*
Y134900D01*
X171000D01*
Y135300D01*
X170200D01*
Y134900D01*
X169800D01*
Y134100D01*
X170200D01*
X173300Y9700D02*
Y9300D01*
X174100D01*
Y9700D01*
X174500D01*
Y10500D01*
X174100D01*
Y10900D01*
X173300D01*
Y10500D01*
X172900D01*
Y9700D01*
X173300D01*
X169400Y12300D02*
Y11900D01*
X170200D01*
Y12300D01*
X170600D01*
Y13100D01*
X170200D01*
Y13500D01*
X169400D01*
Y13100D01*
X169000D01*
Y12300D01*
X169400D01*
X221100Y143500D02*
Y143100D01*
X221900D01*
Y143500D01*
X222300D01*
Y144300D01*
X221900D01*
Y144700D01*
X221100D01*
Y144300D01*
X220700D01*
Y143500D01*
X221100D01*
X159100Y88500D02*
Y88100D01*
X159900D01*
Y88500D01*
X160300D01*
Y89300D01*
X159900D01*
Y89700D01*
X159100D01*
Y89300D01*
X158700D01*
Y88500D01*
X159100D01*
X161300Y93100D02*
Y92700D01*
X162100D01*
Y93100D01*
X162500D01*
Y93900D01*
X162100D01*
Y94300D01*
X161300D01*
Y93900D01*
X160900D01*
Y93100D01*
X161300D01*
X62100Y143700D02*
Y143300D01*
X62900D01*
Y143700D01*
X63300D01*
Y144500D01*
X62900D01*
Y144900D01*
X62100D01*
Y144500D01*
X61700D01*
Y143700D01*
X62100D01*
X64800Y139800D02*
Y139400D01*
X65600D01*
Y139800D01*
X66000D01*
Y140600D01*
X65600D01*
Y141000D01*
X64800D01*
Y140600D01*
X64400D01*
Y139800D01*
X64800D01*
X43500Y113462D02*
Y113062D01*
X44300D01*
Y113462D01*
X44700D01*
Y114262D01*
X44300D01*
Y114662D01*
X43500D01*
Y114262D01*
X43100D01*
Y113462D01*
X43500D01*
X60000Y112760D02*
Y112360D01*
X60800D01*
Y112760D01*
X61200D01*
Y113560D01*
X60800D01*
Y113960D01*
X60000D01*
Y113560D01*
X59600D01*
Y112760D01*
X60000D01*
X74100Y113300D02*
Y112900D01*
X74900D01*
Y113300D01*
X75300D01*
Y114100D01*
X74900D01*
Y114500D01*
X74100D01*
Y114100D01*
X73700D01*
Y113300D01*
X74100D01*
X70400Y41400D02*
Y41000D01*
X71200D01*
Y41400D01*
X71600D01*
Y42200D01*
X71200D01*
Y42600D01*
X70400D01*
Y42200D01*
X70000D01*
Y41400D01*
X70400D01*
X85800Y45700D02*
Y45300D01*
X86600D01*
Y45700D01*
X87000D01*
Y46500D01*
X86600D01*
Y46900D01*
X85800D01*
Y46500D01*
X85400D01*
Y45700D01*
X85800D01*
X144800Y209800D02*
Y209400D01*
X145600D01*
Y209800D01*
X146000D01*
Y210600D01*
X145600D01*
Y211000D01*
X144800D01*
Y210600D01*
X144400D01*
Y209800D01*
X144800D01*
X187100D02*
Y209400D01*
X187900D01*
Y209800D01*
X188300D01*
Y210600D01*
X187900D01*
Y211000D01*
X187100D01*
Y210600D01*
X186700D01*
Y209800D01*
X187100D01*
X183300Y204800D02*
Y204400D01*
X184100D01*
Y204800D01*
X184500D01*
Y205600D01*
X184100D01*
Y206000D01*
X183300D01*
Y205600D01*
X182900D01*
Y204800D01*
X183300D01*
X138150Y221650D02*
Y221250D01*
X138950D01*
Y221650D01*
X139350D01*
Y222450D01*
X138950D01*
Y222850D01*
X138150D01*
Y222450D01*
X137750D01*
Y221650D01*
X138150D01*
X141800Y204800D02*
Y204400D01*
X142600D01*
Y204800D01*
X143000D01*
Y205600D01*
X142600D01*
Y206000D01*
X141800D01*
Y205600D01*
X141400D01*
Y204800D01*
X141800D01*
X181000Y184100D02*
Y183700D01*
X181800D01*
Y184100D01*
X182200D01*
Y184900D01*
X181800D01*
Y185300D01*
X181000D01*
Y184900D01*
X180600D01*
Y184100D01*
X181000D01*
X183200Y168100D02*
Y167700D01*
X184000D01*
Y168100D01*
X184400D01*
Y168900D01*
X184000D01*
Y169300D01*
X183200D01*
Y168900D01*
X182800D01*
Y168100D01*
X183200D01*
X224500Y163900D02*
Y163500D01*
X225300D01*
Y163900D01*
X225700D01*
Y164700D01*
X225300D01*
Y165100D01*
X224500D01*
Y164700D01*
X224100D01*
Y163900D01*
X224500D01*
X186900Y188200D02*
Y187800D01*
X187700D01*
Y188200D01*
X188100D01*
Y189000D01*
X187700D01*
Y189400D01*
X186900D01*
Y189000D01*
X186500D01*
Y188200D01*
X186900D01*
X137100Y183600D02*
Y183200D01*
X137900D01*
Y183600D01*
X138300D01*
Y184400D01*
X137900D01*
Y184800D01*
X137100D01*
Y184400D01*
X136700D01*
Y183600D01*
X137100D01*
X137400Y188400D02*
Y188000D01*
X138200D01*
Y188400D01*
X138600D01*
Y189200D01*
X138200D01*
Y189600D01*
X137400D01*
Y189200D01*
X137000D01*
Y188400D01*
X137400D01*
X173100Y158900D02*
Y158500D01*
X173900D01*
Y158900D01*
X174300D01*
Y159700D01*
X173900D01*
Y160100D01*
X173100D01*
Y159700D01*
X172700D01*
Y158900D01*
X173100D01*
X169604Y161196D02*
Y160796D01*
X170404D01*
Y161196D01*
X170804D01*
Y161996D01*
X170404D01*
Y162396D01*
X169604D01*
Y161996D01*
X169204D01*
Y161196D01*
X169604D01*
X165900Y159100D02*
Y158700D01*
X166700D01*
Y159100D01*
X167100D01*
Y159900D01*
X166700D01*
Y160300D01*
X165900D01*
Y159900D01*
X165500D01*
Y159100D01*
X165900D01*
X121300Y146100D02*
Y145700D01*
X122100D01*
Y146100D01*
X122500D01*
Y146900D01*
X122100D01*
Y147300D01*
X121300D01*
Y146900D01*
X120900D01*
Y146100D01*
X121300D01*
X121200Y150300D02*
Y149900D01*
X122000D01*
Y150300D01*
X122400D01*
Y151100D01*
X122000D01*
Y151500D01*
X121200D01*
Y151100D01*
X120800D01*
Y150300D01*
X121200D01*
Y154400D02*
Y154000D01*
X122000D01*
Y154400D01*
X122400D01*
Y155200D01*
X122000D01*
Y155600D01*
X121200D01*
Y155200D01*
X120800D01*
Y154400D01*
X121200D01*
X177500Y132200D02*
Y131800D01*
X178300D01*
Y132200D01*
X178700D01*
Y133000D01*
X178300D01*
Y133400D01*
X177500D01*
Y133000D01*
X177100D01*
Y132200D01*
X177500D01*
X82479Y153879D02*
Y153479D01*
X83279D01*
Y153879D01*
X83679D01*
Y154679D01*
X83279D01*
Y155079D01*
X82479D01*
Y154679D01*
X82079D01*
Y153879D01*
X82479D01*
X22700Y129700D02*
Y129300D01*
X23500D01*
Y129700D01*
X23900D01*
Y130500D01*
X23500D01*
Y130900D01*
X22700D01*
Y130500D01*
X22300D01*
Y129700D01*
X22700D01*
X22600Y136000D02*
Y135600D01*
X23400D01*
Y136000D01*
X23800D01*
Y136800D01*
X23400D01*
Y137200D01*
X22600D01*
Y136800D01*
X22200D01*
Y136000D01*
X22600D01*
X135400Y142400D02*
Y142000D01*
X136200D01*
Y142400D01*
X136600D01*
Y143200D01*
X136200D01*
Y143600D01*
X135400D01*
Y143200D01*
X135000D01*
Y142400D01*
X135400D01*
X130000Y133600D02*
Y133200D01*
X130800D01*
Y133600D01*
X131200D01*
Y134400D01*
X130800D01*
Y134800D01*
X130000D01*
Y134400D01*
X129600D01*
Y133600D01*
X130000D01*
X144900Y82300D02*
Y81900D01*
X145700D01*
Y82300D01*
X146100D01*
Y83100D01*
X145700D01*
Y83500D01*
X144900D01*
Y83100D01*
X144500D01*
Y82300D01*
X144900D01*
X180592Y70008D02*
Y69608D01*
X181392D01*
Y70008D01*
X181792D01*
Y70808D01*
X181392D01*
Y71208D01*
X180592D01*
Y70808D01*
X180192D01*
Y70008D01*
X180592D01*
X144500Y78200D02*
Y77800D01*
X145300D01*
Y78200D01*
X145700D01*
Y79000D01*
X145300D01*
Y79400D01*
X144500D01*
Y79000D01*
X144100D01*
Y78200D01*
X144500D01*
X143900Y73700D02*
Y73300D01*
X144700D01*
Y73700D01*
X145100D01*
Y74500D01*
X144700D01*
Y74900D01*
X143900D01*
Y74500D01*
X143500D01*
Y73700D01*
X143900D01*
X141300Y69900D02*
Y69500D01*
X142100D01*
Y69900D01*
X142500D01*
Y70700D01*
X142100D01*
Y71100D01*
X141300D01*
Y70700D01*
X140900D01*
Y69900D01*
X141300D01*
X139900Y54800D02*
Y54400D01*
X140700D01*
Y54800D01*
X141100D01*
Y55600D01*
X140700D01*
Y56000D01*
X139900D01*
Y55600D01*
X139500D01*
Y54800D01*
X139900D01*
X143400Y46900D02*
Y46500D01*
X144200D01*
Y46900D01*
X144600D01*
Y47700D01*
X144200D01*
Y48100D01*
X143400D01*
Y47700D01*
X143000D01*
Y46900D01*
X143400D01*
X132700Y52200D02*
Y51800D01*
X133500D01*
Y52200D01*
X133900D01*
Y53000D01*
X133500D01*
Y53400D01*
X132700D01*
Y53000D01*
X132300D01*
Y52200D01*
X132700D01*
X122700Y53400D02*
Y53000D01*
X123500D01*
Y53400D01*
X123900D01*
Y54200D01*
X123500D01*
Y54600D01*
X122700D01*
Y54200D01*
X122300D01*
Y53400D01*
X122700D01*
X118600D02*
Y53000D01*
X119400D01*
Y53400D01*
X119800D01*
Y54200D01*
X119400D01*
Y54600D01*
X118600D01*
Y54200D01*
X118200D01*
Y53400D01*
X118600D01*
X118500Y39750D02*
Y39350D01*
X119300D01*
Y39750D01*
X119700D01*
Y40550D01*
X119300D01*
Y40950D01*
X118500D01*
Y40550D01*
X118100D01*
Y39750D01*
X118500D01*
X122700Y38900D02*
Y38500D01*
X123500D01*
Y38900D01*
X123900D01*
Y39700D01*
X123500D01*
Y40100D01*
X122700D01*
Y39700D01*
X122300D01*
Y38900D01*
X122700D01*
X111400Y106900D02*
Y106500D01*
X112200D01*
Y106900D01*
X112600D01*
Y107700D01*
X112200D01*
Y108100D01*
X111400D01*
Y107700D01*
X111000D01*
Y106900D01*
X111400D01*
X100184Y113784D02*
Y113384D01*
X100984D01*
Y113784D01*
X101384D01*
Y114584D01*
X100984D01*
Y114984D01*
X100184D01*
Y114584D01*
X99784D01*
Y113784D01*
X100184D01*
X118300Y81600D02*
Y81200D01*
X119100D01*
Y81600D01*
X119500D01*
Y82400D01*
X119100D01*
Y82800D01*
X118300D01*
Y82400D01*
X117900D01*
Y81600D01*
X118300D01*
Y92700D02*
Y92300D01*
X119100D01*
Y92700D01*
X119500D01*
Y93500D01*
X119100D01*
Y93900D01*
X118300D01*
Y93500D01*
X117900D01*
Y92700D01*
X118300D01*
X68700Y109000D02*
Y108600D01*
X69500D01*
Y109000D01*
X69900D01*
Y109800D01*
X69500D01*
Y110200D01*
X68700D01*
Y109800D01*
X68300D01*
Y109000D01*
X68700D01*
X92600Y118000D02*
Y117600D01*
X93400D01*
Y118000D01*
X93800D01*
Y118800D01*
X93400D01*
Y119200D01*
X92600D01*
Y118800D01*
X92200D01*
Y118000D01*
X92600D01*
X98600Y118100D02*
Y117700D01*
X99400D01*
Y118100D01*
X99800D01*
Y118900D01*
X99400D01*
Y119300D01*
X98600D01*
Y118900D01*
X98200D01*
Y118100D01*
X98600D01*
X86100Y115800D02*
Y115400D01*
X86900D01*
Y115800D01*
X87300D01*
Y116600D01*
X86900D01*
Y117000D01*
X86100D01*
Y116600D01*
X85700D01*
Y115800D01*
X86100D01*
X78400D02*
Y115400D01*
X79200D01*
Y115800D01*
X79600D01*
Y116600D01*
X79200D01*
Y117000D01*
X78400D01*
Y116600D01*
X78000D01*
Y115800D01*
X78400D01*
X90100Y113900D02*
Y113500D01*
X90900D01*
Y113900D01*
X91300D01*
Y114700D01*
X90900D01*
Y115100D01*
X90100D01*
Y114700D01*
X89700D01*
Y113900D01*
X90100D01*
X83300Y122600D02*
Y122200D01*
X84100D01*
Y122600D01*
X84500D01*
Y123400D01*
X84100D01*
Y123800D01*
X83300D01*
Y123400D01*
X82900D01*
Y122600D01*
X83300D01*
X43600Y143700D02*
Y143300D01*
X44400D01*
Y143700D01*
X44800D01*
Y144500D01*
X44400D01*
Y144900D01*
X43600D01*
Y144500D01*
X43200D01*
Y143700D01*
X43600D01*
X38200Y104400D02*
Y104000D01*
X39000D01*
Y104400D01*
X39400D01*
Y105200D01*
X39000D01*
Y105600D01*
X38200D01*
Y105200D01*
X37800D01*
Y104400D01*
X38200D01*
X68800Y139700D02*
Y139300D01*
X69600D01*
Y139700D01*
X70000D01*
Y140500D01*
X69600D01*
Y140900D01*
X68800D01*
Y140500D01*
X68400D01*
Y139700D01*
X68800D01*
X193400Y53400D02*
Y53000D01*
X194200D01*
Y53400D01*
X194600D01*
Y54200D01*
X194200D01*
Y54600D01*
X193400D01*
Y54200D01*
X193000D01*
Y53400D01*
X193400D01*
Y46400D02*
Y46000D01*
X194200D01*
Y46400D01*
X194600D01*
Y47200D01*
X194200D01*
Y47600D01*
X193400D01*
Y47200D01*
X193000D01*
Y46400D01*
X193400D01*
X37300Y99400D02*
Y99000D01*
X38100D01*
Y99400D01*
X38500D01*
Y100200D01*
X38100D01*
Y100600D01*
X37300D01*
Y100200D01*
X36900D01*
Y99400D01*
X37300D01*
X177600Y85400D02*
Y85000D01*
X178400D01*
Y85400D01*
X178800D01*
Y86200D01*
X178400D01*
Y86600D01*
X177600D01*
Y86200D01*
X177200D01*
Y85400D01*
X177600D01*
X198000Y154300D02*
Y153900D01*
X198800D01*
Y154300D01*
X199200D01*
Y155100D01*
X198800D01*
Y155500D01*
X198000D01*
Y155100D01*
X197600D01*
Y154300D01*
X198000D01*
X199600Y108000D02*
Y107600D01*
X200400D01*
Y108000D01*
X200800D01*
Y108800D01*
X200400D01*
Y109200D01*
X199600D01*
Y108800D01*
X199200D01*
Y108000D01*
X199600D01*
X213200Y149800D02*
Y149400D01*
X214000D01*
Y149800D01*
X214400D01*
Y150600D01*
X214000D01*
Y151000D01*
X213200D01*
Y150600D01*
X212800D01*
Y149800D01*
X213200D01*
X236600Y102400D02*
Y102000D01*
X237400D01*
Y102400D01*
X237800D01*
Y103200D01*
X237400D01*
Y103600D01*
X236600D01*
Y103200D01*
X236200D01*
Y102400D01*
X236600D01*
X218000Y102300D02*
Y101900D01*
X218800D01*
Y102300D01*
X219200D01*
Y103100D01*
X218800D01*
Y103500D01*
X218000D01*
Y103100D01*
X217600D01*
Y102300D01*
X218000D01*
X259700Y118200D02*
Y117800D01*
X260500D01*
Y118200D01*
X260900D01*
Y119000D01*
X260500D01*
Y119400D01*
X259700D01*
Y119000D01*
X259300D01*
Y118200D01*
X259700D01*
X257800Y101700D02*
Y101300D01*
X258600D01*
Y101700D01*
X259000D01*
Y102500D01*
X258600D01*
Y102900D01*
X257800D01*
Y102500D01*
X257400D01*
Y101700D01*
X257800D01*
X261100Y116800D02*
Y116400D01*
X261900D01*
Y116800D01*
X262300D01*
Y117600D01*
X261900D01*
Y118000D01*
X261100D01*
Y117600D01*
X260700D01*
Y116800D01*
X261100D01*
X278200Y114900D02*
Y114500D01*
X279000D01*
Y114900D01*
X279400D01*
Y115700D01*
X279000D01*
Y116100D01*
X278200D01*
Y115700D01*
X277800D01*
Y114900D01*
X278200D01*
X276700Y116400D02*
Y116000D01*
X277500D01*
Y116400D01*
X277900D01*
Y117200D01*
X277500D01*
Y117600D01*
X276700D01*
Y117200D01*
X276300D01*
Y116400D01*
X276700D01*
X47600Y9600D02*
Y9200D01*
X48400D01*
Y9600D01*
X48800D01*
Y10400D01*
X48400D01*
Y10800D01*
X47600D01*
Y10400D01*
X47200D01*
Y9600D01*
X47600D01*
X150500Y32600D02*
Y32200D01*
X151300D01*
Y32600D01*
X151700D01*
Y33400D01*
X151300D01*
Y33800D01*
X150500D01*
Y33400D01*
X150100D01*
Y32600D01*
X150500D01*
X154000Y33700D02*
Y33300D01*
X154800D01*
Y33700D01*
X155200D01*
Y34500D01*
X154800D01*
Y34900D01*
X154000D01*
Y34500D01*
X153600D01*
Y33700D01*
X154000D01*
X88400Y15900D02*
Y15500D01*
X89200D01*
Y15900D01*
X89600D01*
Y16700D01*
X89200D01*
Y17100D01*
X88400D01*
Y16700D01*
X88000D01*
Y15900D01*
X88400D01*
X87100Y17800D02*
Y17400D01*
X87900D01*
Y17800D01*
X88300D01*
Y18600D01*
X87900D01*
Y19000D01*
X87100D01*
Y18600D01*
X86700D01*
Y17800D01*
X87100D01*
X273900Y101500D02*
Y101100D01*
X274700D01*
Y101500D01*
X275100D01*
Y102300D01*
X274700D01*
Y102700D01*
X273900D01*
Y102300D01*
X273500D01*
Y101500D01*
X273900D01*
X172189Y30600D02*
X172589D01*
X172989Y31000D01*
X173389Y30600D01*
X173789D01*
Y31000D01*
X173389Y31400D01*
X173789Y31800D01*
Y32200D01*
X173389D01*
X172989Y31800D01*
X172589Y32200D01*
X172189D01*
Y31800D01*
X172589Y31400D01*
X172189Y31000D01*
Y30600D01*
Y35600D02*
X172589D01*
X172989Y36000D01*
X173389Y35600D01*
X173789D01*
Y36000D01*
X173389Y36400D01*
X173789Y36800D01*
Y37200D01*
X173389D01*
X172989Y36800D01*
X172589Y37200D01*
X172189D01*
Y36800D01*
X172589Y36400D01*
X172189Y36000D01*
Y35600D01*
Y25600D02*
X172589D01*
X172989Y26000D01*
X173389Y25600D01*
X173789D01*
Y26000D01*
X173389Y26400D01*
X173789Y26800D01*
Y27200D01*
X173389D01*
X172989Y26800D01*
X172589Y27200D01*
X172189D01*
Y26800D01*
X172589Y26400D01*
X172189Y26000D01*
Y25600D01*
X68211Y18800D02*
X68611D01*
X69011Y19200D01*
X69411Y18800D01*
X69811D01*
Y19200D01*
X69411Y19600D01*
X69811Y20000D01*
Y20400D01*
X69411D01*
X69011Y20000D01*
X68611Y20400D01*
X68211D01*
Y20000D01*
X68611Y19600D01*
X68211Y19200D01*
Y18800D01*
Y13800D02*
X68611D01*
X69011Y14200D01*
X69411Y13800D01*
X69811D01*
Y14200D01*
X69411Y14600D01*
X69811Y15000D01*
Y15400D01*
X69411D01*
X69011Y15000D01*
X68611Y15400D01*
X68211D01*
Y15000D01*
X68611Y14600D01*
X68211Y14200D01*
Y13800D01*
Y23800D02*
X68611D01*
X69011Y24200D01*
X69411Y23800D01*
X69811D01*
Y24200D01*
X69411Y24600D01*
X69811Y25000D01*
Y25400D01*
X69411D01*
X69011Y25000D01*
X68611Y25400D01*
X68211D01*
Y25000D01*
X68611Y24600D01*
X68211Y24200D01*
Y23800D01*
X5381Y9740D02*
Y9340D01*
X6180D01*
Y9740D01*
X6581D01*
Y10540D01*
X6180D01*
Y10940D01*
X5381D01*
Y10540D01*
X4981D01*
Y9740D01*
X5381D01*
X10380Y19740D02*
Y19340D01*
X11180D01*
Y19740D01*
X11581D01*
Y20540D01*
X11180D01*
Y20940D01*
X10380D01*
Y20540D01*
X9980D01*
Y19740D01*
X10380D01*
X5381Y29740D02*
Y29340D01*
X6180D01*
Y29740D01*
X6581D01*
Y30540D01*
X6180D01*
Y30940D01*
X5381D01*
Y30540D01*
X4981D01*
Y29740D01*
X5381D01*
X10380Y39740D02*
Y39340D01*
X11180D01*
Y39740D01*
X11581D01*
Y40540D01*
X11180D01*
Y40940D01*
X10380D01*
Y40540D01*
X9980D01*
Y39740D01*
X10380D01*
X5381Y49740D02*
Y49340D01*
X6180D01*
Y49740D01*
X6581D01*
Y50540D01*
X6180D01*
Y50940D01*
X5381D01*
Y50540D01*
X4981D01*
Y49740D01*
X5381D01*
X10380Y59740D02*
Y59340D01*
X11180D01*
Y59740D01*
X11581D01*
Y60540D01*
X11180D01*
Y60940D01*
X10380D01*
Y60540D01*
X9980D01*
Y59740D01*
X10380D01*
X5381Y69740D02*
Y69340D01*
X6180D01*
Y69740D01*
X6581D01*
Y70540D01*
X6180D01*
Y70940D01*
X5381D01*
Y70540D01*
X4981D01*
Y69740D01*
X5381D01*
Y149740D02*
Y149340D01*
X6180D01*
Y149740D01*
X6581D01*
Y150540D01*
X6180D01*
Y150940D01*
X5381D01*
Y150540D01*
X4981D01*
Y149740D01*
X5381D01*
Y169740D02*
Y169340D01*
X6180D01*
Y169740D01*
X6581D01*
Y170540D01*
X6180D01*
Y170940D01*
X5381D01*
Y170540D01*
X4981D01*
Y169740D01*
X5381D01*
Y189740D02*
Y189340D01*
X6180D01*
Y189740D01*
X6581D01*
Y190540D01*
X6180D01*
Y190940D01*
X5381D01*
Y190540D01*
X4981D01*
Y189740D01*
X5381D01*
X10380Y199740D02*
Y199340D01*
X11180D01*
Y199740D01*
X11581D01*
Y200540D01*
X11180D01*
Y200940D01*
X10380D01*
Y200540D01*
X9980D01*
Y199740D01*
X10380D01*
X5381Y209740D02*
Y209340D01*
X6180D01*
Y209740D01*
X6581D01*
Y210540D01*
X6180D01*
Y210940D01*
X5381D01*
Y210540D01*
X4981D01*
Y209740D01*
X5381D01*
X10380Y219740D02*
Y219340D01*
X11180D01*
Y219740D01*
X11581D01*
Y220540D01*
X11180D01*
Y220940D01*
X10380D01*
Y220540D01*
X9980D01*
Y219740D01*
X10380D01*
X5381Y229740D02*
Y229340D01*
X6180D01*
Y229740D01*
X6581D01*
Y230540D01*
X6180D01*
Y230940D01*
X5381D01*
Y230540D01*
X4981D01*
Y229740D01*
X5381D01*
X15381Y9740D02*
Y9340D01*
X16181D01*
Y9740D01*
X16580D01*
Y10540D01*
X16181D01*
Y10940D01*
X15381D01*
Y10540D01*
X14980D01*
Y9740D01*
X15381D01*
Y49740D02*
Y49340D01*
X16181D01*
Y49740D01*
X16580D01*
Y50540D01*
X16181D01*
Y50940D01*
X15381D01*
Y50540D01*
X14980D01*
Y49740D01*
X15381D01*
Y89740D02*
Y89340D01*
X16181D01*
Y89740D01*
X16580D01*
Y90540D01*
X16181D01*
Y90940D01*
X15381D01*
Y90540D01*
X14980D01*
Y89740D01*
X15381D01*
X20380Y99740D02*
Y99340D01*
X21181D01*
Y99740D01*
X21580D01*
Y100540D01*
X21181D01*
Y100940D01*
X20380D01*
Y100540D01*
X19981D01*
Y99740D01*
X20380D01*
Y119740D02*
Y119340D01*
X21181D01*
Y119740D01*
X21580D01*
Y120540D01*
X21181D01*
Y120940D01*
X20380D01*
Y120540D01*
X19981D01*
Y119740D01*
X20380D01*
X15381Y129740D02*
Y129340D01*
X16181D01*
Y129740D01*
X16580D01*
Y130540D01*
X16181D01*
Y130940D01*
X15381D01*
Y130540D01*
X14980D01*
Y129740D01*
X15381D01*
Y189740D02*
Y189340D01*
X16181D01*
Y189740D01*
X16580D01*
Y190540D01*
X16181D01*
Y190940D01*
X15381D01*
Y190540D01*
X14980D01*
Y189740D01*
X15381D01*
X20380Y199740D02*
Y199340D01*
X21181D01*
Y199740D01*
X21580D01*
Y200540D01*
X21181D01*
Y200940D01*
X20380D01*
Y200540D01*
X19981D01*
Y199740D01*
X20380D01*
X15381Y209740D02*
Y209340D01*
X16181D01*
Y209740D01*
X16580D01*
Y210540D01*
X16181D01*
Y210940D01*
X15381D01*
Y210540D01*
X14980D01*
Y209740D01*
X15381D01*
X25381Y9740D02*
Y9340D01*
X26180D01*
Y9740D01*
X26581D01*
Y10540D01*
X26180D01*
Y10940D01*
X25381D01*
Y10540D01*
X24981D01*
Y9740D01*
X25381D01*
X30380Y39740D02*
Y39340D01*
X31181D01*
Y39740D01*
X31580D01*
Y40540D01*
X31181D01*
Y40940D01*
X30380D01*
Y40540D01*
X29980D01*
Y39740D01*
X30380D01*
X25381Y49740D02*
Y49340D01*
X26180D01*
Y49740D01*
X26581D01*
Y50540D01*
X26180D01*
Y50940D01*
X25381D01*
Y50540D01*
X24981D01*
Y49740D01*
X25381D01*
X30380Y59740D02*
Y59340D01*
X31181D01*
Y59740D01*
X31580D01*
Y60540D01*
X31181D01*
Y60940D01*
X30380D01*
Y60540D01*
X29980D01*
Y59740D01*
X30380D01*
X25381Y69740D02*
Y69340D01*
X26180D01*
Y69740D01*
X26581D01*
Y70540D01*
X26180D01*
Y70940D01*
X25381D01*
Y70540D01*
X24981D01*
Y69740D01*
X25381D01*
Y189740D02*
Y189340D01*
X26180D01*
Y189740D01*
X26581D01*
Y190540D01*
X26180D01*
Y190940D01*
X25381D01*
Y190540D01*
X24981D01*
Y189740D01*
X25381D01*
X30380Y199740D02*
Y199340D01*
X31181D01*
Y199740D01*
X31580D01*
Y200540D01*
X31181D01*
Y200940D01*
X30380D01*
Y200540D01*
X29980D01*
Y199740D01*
X30380D01*
X35381Y29740D02*
Y29340D01*
X36180D01*
Y29740D01*
X36581D01*
Y30540D01*
X36180D01*
Y30940D01*
X35381D01*
Y30540D01*
X34980D01*
Y29740D01*
X35381D01*
X40380Y59740D02*
Y59340D01*
X41181D01*
Y59740D01*
X41581D01*
Y60540D01*
X41181D01*
Y60940D01*
X40380D01*
Y60540D01*
X39981D01*
Y59740D01*
X40380D01*
X35381Y89740D02*
Y89340D01*
X36180D01*
Y89740D01*
X36581D01*
Y90540D01*
X36180D01*
Y90940D01*
X35381D01*
Y90540D01*
X34980D01*
Y89740D01*
X35381D01*
X40380Y99740D02*
Y99340D01*
X41181D01*
Y99740D01*
X41581D01*
Y100540D01*
X41181D01*
Y100940D01*
X40380D01*
Y100540D01*
X39981D01*
Y99740D01*
X40380D01*
X35381Y169740D02*
Y169340D01*
X36180D01*
Y169740D01*
X36581D01*
Y170540D01*
X36180D01*
Y170940D01*
X35381D01*
Y170540D01*
X34980D01*
Y169740D01*
X35381D01*
X40380Y179740D02*
Y179340D01*
X41181D01*
Y179740D01*
X41581D01*
Y180540D01*
X41181D01*
Y180940D01*
X40380D01*
Y180540D01*
X39981D01*
Y179740D01*
X40380D01*
X35381Y189740D02*
Y189340D01*
X36180D01*
Y189740D01*
X36581D01*
Y190540D01*
X36180D01*
Y190940D01*
X35381D01*
Y190540D01*
X34980D01*
Y189740D01*
X35381D01*
X45380Y49740D02*
Y49340D01*
X46180D01*
Y49740D01*
X46580D01*
Y50540D01*
X46180D01*
Y50940D01*
X45380D01*
Y50540D01*
X44980D01*
Y49740D01*
X45380D01*
X50380Y59740D02*
Y59340D01*
X51180D01*
Y59740D01*
X51581D01*
Y60540D01*
X51180D01*
Y60940D01*
X50380D01*
Y60540D01*
X49981D01*
Y59740D01*
X50380D01*
X45380Y69740D02*
Y69340D01*
X46180D01*
Y69740D01*
X46580D01*
Y70540D01*
X46180D01*
Y70940D01*
X45380D01*
Y70540D01*
X44980D01*
Y69740D01*
X45380D01*
X50380Y79740D02*
Y79340D01*
X51180D01*
Y79740D01*
X51581D01*
Y80540D01*
X51180D01*
Y80940D01*
X50380D01*
Y80540D01*
X49981D01*
Y79740D01*
X50380D01*
Y99740D02*
Y99340D01*
X51180D01*
Y99740D01*
X51581D01*
Y100540D01*
X51180D01*
Y100940D01*
X50380D01*
Y100540D01*
X49981D01*
Y99740D01*
X50380D01*
X45380Y129740D02*
Y129340D01*
X46180D01*
Y129740D01*
X46580D01*
Y130540D01*
X46180D01*
Y130940D01*
X45380D01*
Y130540D01*
X44980D01*
Y129740D01*
X45380D01*
Y169740D02*
Y169340D01*
X46180D01*
Y169740D01*
X46580D01*
Y170540D01*
X46180D01*
Y170940D01*
X45380D01*
Y170540D01*
X44980D01*
Y169740D01*
X45380D01*
X50380Y219740D02*
Y219340D01*
X51180D01*
Y219740D01*
X51581D01*
Y220540D01*
X51180D01*
Y220940D01*
X50380D01*
Y220540D01*
X49981D01*
Y219740D01*
X50380D01*
Y239740D02*
Y239340D01*
X51180D01*
Y239740D01*
X51581D01*
Y240540D01*
X51180D01*
Y240940D01*
X50380D01*
Y240540D01*
X49981D01*
Y239740D01*
X50380D01*
X55380Y129740D02*
Y129340D01*
X56181D01*
Y129740D01*
X56581D01*
Y130540D01*
X56181D01*
Y130940D01*
X55380D01*
Y130540D01*
X54980D01*
Y129740D01*
X55380D01*
X60381Y139740D02*
Y139340D01*
X61181D01*
Y139740D01*
X61580D01*
Y140540D01*
X61181D01*
Y140940D01*
X60381D01*
Y140540D01*
X59980D01*
Y139740D01*
X60381D01*
Y159740D02*
Y159340D01*
X61181D01*
Y159740D01*
X61580D01*
Y160540D01*
X61181D01*
Y160940D01*
X60381D01*
Y160540D01*
X59980D01*
Y159740D01*
X60381D01*
X55380Y209740D02*
Y209340D01*
X56181D01*
Y209740D01*
X56581D01*
Y210540D01*
X56181D01*
Y210940D01*
X55380D01*
Y210540D01*
X54980D01*
Y209740D01*
X55380D01*
X60381Y219740D02*
Y219340D01*
X61181D01*
Y219740D01*
X61580D01*
Y220540D01*
X61181D01*
Y220940D01*
X60381D01*
Y220540D01*
X59980D01*
Y219740D01*
X60381D01*
X55380Y229740D02*
Y229340D01*
X56181D01*
Y229740D01*
X56581D01*
Y230540D01*
X56181D01*
Y230940D01*
X55380D01*
Y230540D01*
X54980D01*
Y229740D01*
X55380D01*
X60381Y239740D02*
Y239340D01*
X61181D01*
Y239740D01*
X61580D01*
Y240540D01*
X61181D01*
Y240940D01*
X60381D01*
Y240540D01*
X59980D01*
Y239740D01*
X60381D01*
X65381Y29740D02*
Y29340D01*
X66180D01*
Y29740D01*
X66580D01*
Y30540D01*
X66180D01*
Y30940D01*
X65381D01*
Y30540D01*
X64981D01*
Y29740D01*
X65381D01*
X70381Y159740D02*
Y159340D01*
X71180D01*
Y159740D01*
X71580D01*
Y160540D01*
X71180D01*
Y160940D01*
X70381D01*
Y160540D01*
X69981D01*
Y159740D01*
X70381D01*
X65381Y169740D02*
Y169340D01*
X66180D01*
Y169740D01*
X66580D01*
Y170540D01*
X66180D01*
Y170940D01*
X65381D01*
Y170540D01*
X64981D01*
Y169740D01*
X65381D01*
Y229740D02*
Y229340D01*
X66180D01*
Y229740D01*
X66580D01*
Y230540D01*
X66180D01*
Y230940D01*
X65381D01*
Y230540D01*
X64981D01*
Y229740D01*
X65381D01*
X70381Y239740D02*
Y239340D01*
X71180D01*
Y239740D01*
X71580D01*
Y240540D01*
X71180D01*
Y240940D01*
X70381D01*
Y240540D01*
X69981D01*
Y239740D01*
X70381D01*
X80380Y79740D02*
Y79340D01*
X81181D01*
Y79740D01*
X81581D01*
Y80540D01*
X81181D01*
Y80940D01*
X80380D01*
Y80540D01*
X79980D01*
Y79740D01*
X80380D01*
Y99740D02*
Y99340D01*
X81181D01*
Y99740D01*
X81581D01*
Y100540D01*
X81181D01*
Y100940D01*
X80380D01*
Y100540D01*
X79980D01*
Y99740D01*
X80380D01*
Y159740D02*
Y159340D01*
X81181D01*
Y159740D01*
X81581D01*
Y160540D01*
X81181D01*
Y160940D01*
X80380D01*
Y160540D01*
X79980D01*
Y159740D01*
X80380D01*
X75380Y169740D02*
Y169340D01*
X76180D01*
Y169740D01*
X76581D01*
Y170540D01*
X76180D01*
Y170940D01*
X75380D01*
Y170540D01*
X74980D01*
Y169740D01*
X75380D01*
Y229740D02*
Y229340D01*
X76180D01*
Y229740D01*
X76581D01*
Y230540D01*
X76180D01*
Y230940D01*
X75380D01*
Y230540D01*
X74980D01*
Y229740D01*
X75380D01*
X80380Y239740D02*
Y239340D01*
X81181D01*
Y239740D01*
X81581D01*
Y240540D01*
X81181D01*
Y240940D01*
X80380D01*
Y240540D01*
X79980D01*
Y239740D01*
X80380D01*
X85381Y49740D02*
Y49340D01*
X86181D01*
Y49740D01*
X86580D01*
Y50540D01*
X86181D01*
Y50940D01*
X85381D01*
Y50540D01*
X84980D01*
Y49740D01*
X85381D01*
Y69740D02*
Y69340D01*
X86181D01*
Y69740D01*
X86580D01*
Y70540D01*
X86181D01*
Y70940D01*
X85381D01*
Y70540D01*
X84980D01*
Y69740D01*
X85381D01*
X90381Y79740D02*
Y79340D01*
X91180D01*
Y79740D01*
X91580D01*
Y80540D01*
X91180D01*
Y80940D01*
X90381D01*
Y80540D01*
X89981D01*
Y79740D01*
X90381D01*
X85381Y89740D02*
Y89340D01*
X86181D01*
Y89740D01*
X86580D01*
Y90540D01*
X86181D01*
Y90940D01*
X85381D01*
Y90540D01*
X84980D01*
Y89740D01*
X85381D01*
Y169740D02*
Y169340D01*
X86181D01*
Y169740D01*
X86580D01*
Y170540D01*
X86181D01*
Y170940D01*
X85381D01*
Y170540D01*
X84980D01*
Y169740D01*
X85381D01*
X90381Y199740D02*
Y199340D01*
X91180D01*
Y199740D01*
X91580D01*
Y200540D01*
X91180D01*
Y200940D01*
X90381D01*
Y200540D01*
X89981D01*
Y199740D01*
X90381D01*
X85381Y229740D02*
Y229340D01*
X86181D01*
Y229740D01*
X86580D01*
Y230540D01*
X86181D01*
Y230940D01*
X85381D01*
Y230540D01*
X84980D01*
Y229740D01*
X85381D01*
X90381Y239740D02*
Y239340D01*
X91180D01*
Y239740D01*
X91580D01*
Y240540D01*
X91180D01*
Y240940D01*
X90381D01*
Y240540D01*
X89981D01*
Y239740D01*
X90381D01*
X95381Y9740D02*
Y9340D01*
X96180D01*
Y9740D01*
X96580D01*
Y10540D01*
X96180D01*
Y10940D01*
X95381D01*
Y10540D01*
X94981D01*
Y9740D01*
X95381D01*
Y29740D02*
Y29340D01*
X96180D01*
Y29740D01*
X96580D01*
Y30540D01*
X96180D01*
Y30940D01*
X95381D01*
Y30540D01*
X94981D01*
Y29740D01*
X95381D01*
X100381Y59740D02*
Y59340D01*
X101181D01*
Y59740D01*
X101581D01*
Y60540D01*
X101181D01*
Y60940D01*
X100381D01*
Y60540D01*
X99980D01*
Y59740D01*
X100381D01*
X95381Y149740D02*
Y149340D01*
X96180D01*
Y149740D01*
X96580D01*
Y150540D01*
X96180D01*
Y150940D01*
X95381D01*
Y150540D01*
X94981D01*
Y149740D01*
X95381D01*
Y169740D02*
Y169340D01*
X96180D01*
Y169740D01*
X96580D01*
Y170540D01*
X96180D01*
Y170940D01*
X95381D01*
Y170540D01*
X94981D01*
Y169740D01*
X95381D01*
X100381Y199740D02*
Y199340D01*
X101181D01*
Y199740D01*
X101581D01*
Y200540D01*
X101181D01*
Y200940D01*
X100381D01*
Y200540D01*
X99980D01*
Y199740D01*
X100381D01*
X95381Y209740D02*
Y209340D01*
X96180D01*
Y209740D01*
X96580D01*
Y210540D01*
X96180D01*
Y210940D01*
X95381D01*
Y210540D01*
X94981D01*
Y209740D01*
X95381D01*
X100381Y219740D02*
Y219340D01*
X101181D01*
Y219740D01*
X101581D01*
Y220540D01*
X101181D01*
Y220940D01*
X100381D01*
Y220540D01*
X99980D01*
Y219740D01*
X100381D01*
X105380Y9740D02*
Y9340D01*
X106181D01*
Y9740D01*
X106580D01*
Y10540D01*
X106181D01*
Y10940D01*
X105380D01*
Y10540D01*
X104981D01*
Y9740D01*
X105380D01*
X110380Y19740D02*
Y19340D01*
X111180D01*
Y19740D01*
X111581D01*
Y20540D01*
X111180D01*
Y20940D01*
X110380D01*
Y20540D01*
X109980D01*
Y19740D01*
X110380D01*
Y119740D02*
Y119340D01*
X111180D01*
Y119740D01*
X111581D01*
Y120540D01*
X111180D01*
Y120940D01*
X110380D01*
Y120540D01*
X109980D01*
Y119740D01*
X110380D01*
X105380Y129740D02*
Y129340D01*
X106181D01*
Y129740D01*
X106580D01*
Y130540D01*
X106181D01*
Y130940D01*
X105380D01*
Y130540D01*
X104981D01*
Y129740D01*
X105380D01*
X110380Y199740D02*
Y199340D01*
X111180D01*
Y199740D01*
X111581D01*
Y200540D01*
X111180D01*
Y200940D01*
X110380D01*
Y200540D01*
X109980D01*
Y199740D01*
X110380D01*
X105380Y209740D02*
Y209340D01*
X106181D01*
Y209740D01*
X106580D01*
Y210540D01*
X106181D01*
Y210940D01*
X105380D01*
Y210540D01*
X104981D01*
Y209740D01*
X105380D01*
X110380Y219740D02*
Y219340D01*
X111180D01*
Y219740D01*
X111581D01*
Y220540D01*
X111180D01*
Y220940D01*
X110380D01*
Y220540D01*
X109980D01*
Y219740D01*
X110380D01*
X115381Y9740D02*
Y9340D01*
X116181D01*
Y9740D01*
X116580D01*
Y10540D01*
X116181D01*
Y10940D01*
X115381D01*
Y10540D01*
X114980D01*
Y9740D01*
X115381D01*
X120380Y119740D02*
Y119340D01*
X121180D01*
Y119740D01*
X121581D01*
Y120540D01*
X121180D01*
Y120940D01*
X120380D01*
Y120540D01*
X119981D01*
Y119740D01*
X120380D01*
X115381Y129740D02*
Y129340D01*
X116181D01*
Y129740D01*
X116580D01*
Y130540D01*
X116181D01*
Y130940D01*
X115381D01*
Y130540D01*
X114980D01*
Y129740D01*
X115381D01*
X120380Y139740D02*
Y139340D01*
X121180D01*
Y139740D01*
X121581D01*
Y140540D01*
X121180D01*
Y140940D01*
X120380D01*
Y140540D01*
X119981D01*
Y139740D01*
X120380D01*
Y179740D02*
Y179340D01*
X121180D01*
Y179740D01*
X121581D01*
Y180540D01*
X121180D01*
Y180940D01*
X120380D01*
Y180540D01*
X119981D01*
Y179740D01*
X120380D01*
Y199740D02*
Y199340D01*
X121180D01*
Y199740D01*
X121581D01*
Y200540D01*
X121180D01*
Y200940D01*
X120380D01*
Y200540D01*
X119981D01*
Y199740D01*
X120380D01*
X115381Y209740D02*
Y209340D01*
X116181D01*
Y209740D01*
X116580D01*
Y210540D01*
X116181D01*
Y210940D01*
X115381D01*
Y210540D01*
X114980D01*
Y209740D01*
X115381D01*
X120380Y219740D02*
Y219340D01*
X121180D01*
Y219740D01*
X121581D01*
Y220540D01*
X121180D01*
Y220940D01*
X120380D01*
Y220540D01*
X119981D01*
Y219740D01*
X120380D01*
X115381Y229740D02*
Y229340D01*
X116181D01*
Y229740D01*
X116580D01*
Y230540D01*
X116181D01*
Y230940D01*
X115381D01*
Y230540D01*
X114980D01*
Y229740D01*
X115381D01*
X120380Y239740D02*
Y239340D01*
X121180D01*
Y239740D01*
X121581D01*
Y240540D01*
X121180D01*
Y240940D01*
X120380D01*
Y240540D01*
X119981D01*
Y239740D01*
X120380D01*
X125381Y29740D02*
Y29340D01*
X126181D01*
Y29740D01*
X126581D01*
Y30540D01*
X126181D01*
Y30940D01*
X125381D01*
Y30540D01*
X124980D01*
Y29740D01*
X125381D01*
Y109740D02*
Y109340D01*
X126181D01*
Y109740D01*
X126581D01*
Y110540D01*
X126181D01*
Y110940D01*
X125381D01*
Y110540D01*
X124980D01*
Y109740D01*
X125381D01*
Y129740D02*
Y129340D01*
X126181D01*
Y129740D01*
X126581D01*
Y130540D01*
X126181D01*
Y130940D01*
X125381D01*
Y130540D01*
X124980D01*
Y129740D01*
X125381D01*
X130380Y179740D02*
Y179340D01*
X131181D01*
Y179740D01*
X131580D01*
Y180540D01*
X131181D01*
Y180940D01*
X130380D01*
Y180540D01*
X129981D01*
Y179740D01*
X130380D01*
Y199740D02*
Y199340D01*
X131181D01*
Y199740D01*
X131580D01*
Y200540D01*
X131181D01*
Y200940D01*
X130380D01*
Y200540D01*
X129981D01*
Y199740D01*
X130380D01*
X125381Y209740D02*
Y209340D01*
X126181D01*
Y209740D01*
X126581D01*
Y210540D01*
X126181D01*
Y210940D01*
X125381D01*
Y210540D01*
X124980D01*
Y209740D01*
X125381D01*
X130380Y219740D02*
Y219340D01*
X131181D01*
Y219740D01*
X131580D01*
Y220540D01*
X131181D01*
Y220940D01*
X130380D01*
Y220540D01*
X129981D01*
Y219740D01*
X130380D01*
X125381Y229740D02*
Y229340D01*
X126181D01*
Y229740D01*
X126581D01*
Y230540D01*
X126181D01*
Y230940D01*
X125381D01*
Y230540D01*
X124980D01*
Y229740D01*
X125381D01*
X135380Y9740D02*
Y9340D01*
X136180D01*
Y9740D01*
X136581D01*
Y10540D01*
X136180D01*
Y10940D01*
X135380D01*
Y10540D01*
X134980D01*
Y9740D01*
X135380D01*
X140381Y199740D02*
Y199340D01*
X141181D01*
Y199740D01*
X141580D01*
Y200540D01*
X141181D01*
Y200940D01*
X140381D01*
Y200540D01*
X139980D01*
Y199740D01*
X140381D01*
X150381Y19740D02*
Y19340D01*
X151181D01*
Y19740D01*
X151581D01*
Y20540D01*
X151181D01*
Y20940D01*
X150381D01*
Y20540D01*
X149980D01*
Y19740D01*
X150381D01*
X180380Y139740D02*
Y139340D01*
X181181D01*
Y139740D01*
X181580D01*
Y140540D01*
X181181D01*
Y140940D01*
X180380D01*
Y140540D01*
X179981D01*
Y139740D01*
X180380D01*
Y179740D02*
Y179340D01*
X181181D01*
Y179740D01*
X181580D01*
Y180540D01*
X181181D01*
Y180940D01*
X180380D01*
Y180540D01*
X179981D01*
Y179740D01*
X180380D01*
X185380Y149740D02*
Y149340D01*
X186180D01*
Y149740D01*
X186581D01*
Y150540D01*
X186180D01*
Y150940D01*
X185380D01*
Y150540D01*
X184980D01*
Y149740D01*
X185380D01*
X190381Y179740D02*
Y179340D01*
X191181D01*
Y179740D01*
X191580D01*
Y180540D01*
X191181D01*
Y180940D01*
X190381D01*
Y180540D01*
X189980D01*
Y179740D01*
X190381D01*
Y199740D02*
Y199340D01*
X191181D01*
Y199740D01*
X191580D01*
Y200540D01*
X191181D01*
Y200940D01*
X190381D01*
Y200540D01*
X189980D01*
Y199740D01*
X190381D01*
X195380Y29740D02*
Y29340D01*
X196180D01*
Y29740D01*
X196581D01*
Y30540D01*
X196180D01*
Y30940D01*
X195380D01*
Y30540D01*
X194981D01*
Y29740D01*
X195380D01*
X200380Y39740D02*
Y39340D01*
X201181D01*
Y39740D01*
X201581D01*
Y40540D01*
X201181D01*
Y40940D01*
X200380D01*
Y40540D01*
X199980D01*
Y39740D01*
X200380D01*
X195380Y69740D02*
Y69340D01*
X196180D01*
Y69740D01*
X196581D01*
Y70540D01*
X196180D01*
Y70940D01*
X195380D01*
Y70540D01*
X194981D01*
Y69740D01*
X195380D01*
X200380Y79740D02*
Y79340D01*
X201181D01*
Y79740D01*
X201581D01*
Y80540D01*
X201181D01*
Y80940D01*
X200380D01*
Y80540D01*
X199980D01*
Y79740D01*
X200380D01*
Y199740D02*
Y199340D01*
X201181D01*
Y199740D01*
X201581D01*
Y200540D01*
X201181D01*
Y200940D01*
X200380D01*
Y200540D01*
X199980D01*
Y199740D01*
X200380D01*
X210381Y19740D02*
Y19340D01*
X211180D01*
Y19740D01*
X211580D01*
Y20540D01*
X211180D01*
Y20940D01*
X210381D01*
Y20540D01*
X209981D01*
Y19740D01*
X210381D01*
X205381Y49740D02*
Y49340D01*
X206181D01*
Y49740D01*
X206580D01*
Y50540D01*
X206181D01*
Y50940D01*
X205381D01*
Y50540D01*
X204980D01*
Y49740D01*
X205381D01*
X210381Y199740D02*
Y199340D01*
X211180D01*
Y199740D01*
X211580D01*
Y200540D01*
X211180D01*
Y200940D01*
X210381D01*
Y200540D01*
X209981D01*
Y199740D01*
X210381D01*
X220380Y119740D02*
Y119340D01*
X221181D01*
Y119740D01*
X221581D01*
Y120540D01*
X221181D01*
Y120940D01*
X220380D01*
Y120540D01*
X219981D01*
Y119740D01*
X220380D01*
X215381Y129740D02*
Y129340D01*
X216180D01*
Y129740D01*
X216581D01*
Y130540D01*
X216180D01*
Y130940D01*
X215381D01*
Y130540D01*
X214981D01*
Y129740D01*
X215381D01*
X220380Y139740D02*
Y139340D01*
X221181D01*
Y139740D01*
X221581D01*
Y140540D01*
X221181D01*
Y140940D01*
X220380D01*
Y140540D01*
X219981D01*
Y139740D01*
X220380D01*
Y179740D02*
Y179340D01*
X221181D01*
Y179740D01*
X221581D01*
Y180540D01*
X221181D01*
Y180940D01*
X220380D01*
Y180540D01*
X219981D01*
Y179740D01*
X220380D01*
Y219740D02*
Y219340D01*
X221181D01*
Y219740D01*
X221581D01*
Y220540D01*
X221181D01*
Y220940D01*
X220380D01*
Y220540D01*
X219981D01*
Y219740D01*
X220380D01*
X230381Y19740D02*
Y19340D01*
X231181D01*
Y19740D01*
X231580D01*
Y20540D01*
X231181D01*
Y20940D01*
X230381D01*
Y20540D01*
X229980D01*
Y19740D01*
X230381D01*
Y59740D02*
Y59340D01*
X231181D01*
Y59740D01*
X231580D01*
Y60540D01*
X231181D01*
Y60940D01*
X230381D01*
Y60540D01*
X229980D01*
Y59740D01*
X230381D01*
Y179740D02*
Y179340D01*
X231181D01*
Y179740D01*
X231580D01*
Y180540D01*
X231181D01*
Y180940D01*
X230381D01*
Y180540D01*
X229980D01*
Y179740D01*
X230381D01*
Y199740D02*
Y199340D01*
X231181D01*
Y199740D01*
X231580D01*
Y200540D01*
X231181D01*
Y200940D01*
X230381D01*
Y200540D01*
X229980D01*
Y199740D01*
X230381D01*
Y219740D02*
Y219340D01*
X231181D01*
Y219740D01*
X231580D01*
Y220540D01*
X231181D01*
Y220940D01*
X230381D01*
Y220540D01*
X229980D01*
Y219740D01*
X230381D01*
Y239740D02*
Y239340D01*
X231181D01*
Y239740D01*
X231580D01*
Y240540D01*
X231181D01*
Y240940D01*
X230381D01*
Y240540D01*
X229980D01*
Y239740D01*
X230381D01*
X235381Y9740D02*
Y9340D01*
X236180D01*
Y9740D01*
X236580D01*
Y10540D01*
X236180D01*
Y10940D01*
X235381D01*
Y10540D01*
X234981D01*
Y9740D01*
X235381D01*
X240381Y19740D02*
Y19340D01*
X241180D01*
Y19740D01*
X241581D01*
Y20540D01*
X241180D01*
Y20940D01*
X240381D01*
Y20540D01*
X239981D01*
Y19740D01*
X240381D01*
X235381Y29740D02*
Y29340D01*
X236180D01*
Y29740D01*
X236580D01*
Y30540D01*
X236180D01*
Y30940D01*
X235381D01*
Y30540D01*
X234981D01*
Y29740D01*
X235381D01*
X240381Y39740D02*
Y39340D01*
X241180D01*
Y39740D01*
X241581D01*
Y40540D01*
X241180D01*
Y40940D01*
X240381D01*
Y40540D01*
X239981D01*
Y39740D01*
X240381D01*
X235381Y49740D02*
Y49340D01*
X236180D01*
Y49740D01*
X236580D01*
Y50540D01*
X236180D01*
Y50940D01*
X235381D01*
Y50540D01*
X234981D01*
Y49740D01*
X235381D01*
X240381Y59740D02*
Y59340D01*
X241180D01*
Y59740D01*
X241581D01*
Y60540D01*
X241180D01*
Y60940D01*
X240381D01*
Y60540D01*
X239981D01*
Y59740D01*
X240381D01*
X235381Y69740D02*
Y69340D01*
X236180D01*
Y69740D01*
X236580D01*
Y70540D01*
X236180D01*
Y70940D01*
X235381D01*
Y70540D01*
X234981D01*
Y69740D01*
X235381D01*
X240381Y79740D02*
Y79340D01*
X241180D01*
Y79740D01*
X241581D01*
Y80540D01*
X241180D01*
Y80940D01*
X240381D01*
Y80540D01*
X239981D01*
Y79740D01*
X240381D01*
Y99740D02*
Y99340D01*
X241180D01*
Y99740D01*
X241581D01*
Y100540D01*
X241180D01*
Y100940D01*
X240381D01*
Y100540D01*
X239981D01*
Y99740D01*
X240381D01*
Y119740D02*
Y119340D01*
X241180D01*
Y119740D01*
X241581D01*
Y120540D01*
X241180D01*
Y120940D01*
X240381D01*
Y120540D01*
X239981D01*
Y119740D01*
X240381D01*
Y159740D02*
Y159340D01*
X241180D01*
Y159740D01*
X241581D01*
Y160540D01*
X241180D01*
Y160940D01*
X240381D01*
Y160540D01*
X239981D01*
Y159740D01*
X240381D01*
Y219740D02*
Y219340D01*
X241180D01*
Y219740D01*
X241581D01*
Y220540D01*
X241180D01*
Y220940D01*
X240381D01*
Y220540D01*
X239981D01*
Y219740D01*
X240381D01*
X235381Y229740D02*
Y229340D01*
X236180D01*
Y229740D01*
X236580D01*
Y230540D01*
X236180D01*
Y230940D01*
X235381D01*
Y230540D01*
X234981D01*
Y229740D01*
X235381D01*
X240381Y239740D02*
Y239340D01*
X241180D01*
Y239740D01*
X241581D01*
Y240540D01*
X241180D01*
Y240940D01*
X240381D01*
Y240540D01*
X239981D01*
Y239740D01*
X240381D01*
X250380Y19740D02*
Y19340D01*
X251181D01*
Y19740D01*
X251581D01*
Y20540D01*
X251181D01*
Y20940D01*
X250380D01*
Y20540D01*
X249980D01*
Y19740D01*
X250380D01*
X245380Y29740D02*
Y29340D01*
X246181D01*
Y29740D01*
X246581D01*
Y30540D01*
X246181D01*
Y30940D01*
X245380D01*
Y30540D01*
X244981D01*
Y29740D01*
X245380D01*
X250380Y39740D02*
Y39340D01*
X251181D01*
Y39740D01*
X251581D01*
Y40540D01*
X251181D01*
Y40940D01*
X250380D01*
Y40540D01*
X249980D01*
Y39740D01*
X250380D01*
X245380Y49740D02*
Y49340D01*
X246181D01*
Y49740D01*
X246581D01*
Y50540D01*
X246181D01*
Y50940D01*
X245380D01*
Y50540D01*
X244981D01*
Y49740D01*
X245380D01*
X250380Y59740D02*
Y59340D01*
X251181D01*
Y59740D01*
X251581D01*
Y60540D01*
X251181D01*
Y60940D01*
X250380D01*
Y60540D01*
X249980D01*
Y59740D01*
X250380D01*
Y79740D02*
Y79340D01*
X251181D01*
Y79740D01*
X251581D01*
Y80540D01*
X251181D01*
Y80940D01*
X250380D01*
Y80540D01*
X249980D01*
Y79740D01*
X250380D01*
X245380Y129740D02*
Y129340D01*
X246181D01*
Y129740D01*
X246581D01*
Y130540D01*
X246181D01*
Y130940D01*
X245380D01*
Y130540D01*
X244981D01*
Y129740D01*
X245380D01*
Y149740D02*
Y149340D01*
X246181D01*
Y149740D01*
X246581D01*
Y150540D01*
X246181D01*
Y150940D01*
X245380D01*
Y150540D01*
X244981D01*
Y149740D01*
X245380D01*
X250380Y159740D02*
Y159340D01*
X251181D01*
Y159740D01*
X251581D01*
Y160540D01*
X251181D01*
Y160940D01*
X250380D01*
Y160540D01*
X249980D01*
Y159740D01*
X250380D01*
Y179740D02*
Y179340D01*
X251181D01*
Y179740D01*
X251581D01*
Y180540D01*
X251181D01*
Y180940D01*
X250380D01*
Y180540D01*
X249980D01*
Y179740D01*
X250380D01*
Y199740D02*
Y199340D01*
X251181D01*
Y199740D01*
X251581D01*
Y200540D01*
X251181D01*
Y200940D01*
X250380D01*
Y200540D01*
X249980D01*
Y199740D01*
X250380D01*
X245380Y209740D02*
Y209340D01*
X246181D01*
Y209740D01*
X246581D01*
Y210540D01*
X246181D01*
Y210940D01*
X245380D01*
Y210540D01*
X244981D01*
Y209740D01*
X245380D01*
X250380Y219740D02*
Y219340D01*
X251181D01*
Y219740D01*
X251581D01*
Y220540D01*
X251181D01*
Y220940D01*
X250380D01*
Y220540D01*
X249980D01*
Y219740D01*
X250380D01*
X245380Y229740D02*
Y229340D01*
X246181D01*
Y229740D01*
X246581D01*
Y230540D01*
X246181D01*
Y230940D01*
X245380D01*
Y230540D01*
X244981D01*
Y229740D01*
X245380D01*
X250380Y239740D02*
Y239340D01*
X251181D01*
Y239740D01*
X251581D01*
Y240540D01*
X251181D01*
Y240940D01*
X250380D01*
Y240540D01*
X249980D01*
Y239740D01*
X250380D01*
X255381Y49740D02*
Y49340D01*
X256181D01*
Y49740D01*
X256580D01*
Y50540D01*
X256181D01*
Y50940D01*
X255381D01*
Y50540D01*
X254980D01*
Y49740D01*
X255381D01*
X260381Y59740D02*
Y59340D01*
X261180D01*
Y59740D01*
X261580D01*
Y60540D01*
X261180D01*
Y60940D01*
X260381D01*
Y60540D01*
X259981D01*
Y59740D01*
X260381D01*
Y99740D02*
Y99340D01*
X261180D01*
Y99740D01*
X261580D01*
Y100540D01*
X261180D01*
Y100940D01*
X260381D01*
Y100540D01*
X259981D01*
Y99740D01*
X260381D01*
X255381Y149740D02*
Y149340D01*
X256181D01*
Y149740D01*
X256580D01*
Y150540D01*
X256181D01*
Y150940D01*
X255381D01*
Y150540D01*
X254980D01*
Y149740D01*
X255381D01*
Y169740D02*
Y169340D01*
X256181D01*
Y169740D01*
X256580D01*
Y170540D01*
X256181D01*
Y170940D01*
X255381D01*
Y170540D01*
X254980D01*
Y169740D01*
X255381D01*
X260381Y179740D02*
Y179340D01*
X261180D01*
Y179740D01*
X261580D01*
Y180540D01*
X261180D01*
Y180940D01*
X260381D01*
Y180540D01*
X259981D01*
Y179740D01*
X260381D01*
X255381Y189740D02*
Y189340D01*
X256181D01*
Y189740D01*
X256580D01*
Y190540D01*
X256181D01*
Y190940D01*
X255381D01*
Y190540D01*
X254980D01*
Y189740D01*
X255381D01*
X260381Y199740D02*
Y199340D01*
X261180D01*
Y199740D01*
X261580D01*
Y200540D01*
X261180D01*
Y200940D01*
X260381D01*
Y200540D01*
X259981D01*
Y199740D01*
X260381D01*
X255381Y209740D02*
Y209340D01*
X256181D01*
Y209740D01*
X256580D01*
Y210540D01*
X256181D01*
Y210940D01*
X255381D01*
Y210540D01*
X254980D01*
Y209740D01*
X255381D01*
X260381Y219740D02*
Y219340D01*
X261180D01*
Y219740D01*
X261580D01*
Y220540D01*
X261180D01*
Y220940D01*
X260381D01*
Y220540D01*
X259981D01*
Y219740D01*
X260381D01*
X255381Y229740D02*
Y229340D01*
X256181D01*
Y229740D01*
X256580D01*
Y230540D01*
X256181D01*
Y230940D01*
X255381D01*
Y230540D01*
X254980D01*
Y229740D01*
X255381D01*
X260381Y239740D02*
Y239340D01*
X261180D01*
Y239740D01*
X261580D01*
Y240540D01*
X261180D01*
Y240940D01*
X260381D01*
Y240540D01*
X259981D01*
Y239740D01*
X260381D01*
X265381Y9740D02*
Y9340D01*
X266180D01*
Y9740D01*
X266581D01*
Y10540D01*
X266180D01*
Y10940D01*
X265381D01*
Y10540D01*
X264981D01*
Y9740D01*
X265381D01*
X270380Y39740D02*
Y39340D01*
X271181D01*
Y39740D01*
X271581D01*
Y40540D01*
X271181D01*
Y40940D01*
X270380D01*
Y40540D01*
X269981D01*
Y39740D01*
X270380D01*
X265381Y49740D02*
Y49340D01*
X266180D01*
Y49740D01*
X266581D01*
Y50540D01*
X266180D01*
Y50940D01*
X265381D01*
Y50540D01*
X264981D01*
Y49740D01*
X265381D01*
X270380Y59740D02*
Y59340D01*
X271181D01*
Y59740D01*
X271581D01*
Y60540D01*
X271181D01*
Y60940D01*
X270380D01*
Y60540D01*
X269981D01*
Y59740D01*
X270380D01*
Y159740D02*
Y159340D01*
X271181D01*
Y159740D01*
X271581D01*
Y160540D01*
X271181D01*
Y160940D01*
X270380D01*
Y160540D01*
X269981D01*
Y159740D01*
X270380D01*
X265381Y169740D02*
Y169340D01*
X266180D01*
Y169740D01*
X266581D01*
Y170540D01*
X266180D01*
Y170940D01*
X265381D01*
Y170540D01*
X264981D01*
Y169740D01*
X265381D01*
X270380Y179740D02*
Y179340D01*
X271181D01*
Y179740D01*
X271581D01*
Y180540D01*
X271181D01*
Y180940D01*
X270380D01*
Y180540D01*
X269981D01*
Y179740D01*
X270380D01*
Y199740D02*
Y199340D01*
X271181D01*
Y199740D01*
X271581D01*
Y200540D01*
X271181D01*
Y200940D01*
X270380D01*
Y200540D01*
X269981D01*
Y199740D01*
X270380D01*
X265381Y209740D02*
Y209340D01*
X266180D01*
Y209740D01*
X266581D01*
Y210540D01*
X266180D01*
Y210940D01*
X265381D01*
Y210540D01*
X264981D01*
Y209740D01*
X265381D01*
X270380Y219740D02*
Y219340D01*
X271181D01*
Y219740D01*
X271581D01*
Y220540D01*
X271181D01*
Y220940D01*
X270380D01*
Y220540D01*
X269981D01*
Y219740D01*
X270380D01*
X265381Y229740D02*
Y229340D01*
X266180D01*
Y229740D01*
X266581D01*
Y230540D01*
X266180D01*
Y230940D01*
X265381D01*
Y230540D01*
X264981D01*
Y229740D01*
X265381D01*
X270380Y239740D02*
Y239340D01*
X271181D01*
Y239740D01*
X271581D01*
Y240540D01*
X271181D01*
Y240940D01*
X270380D01*
Y240540D01*
X269981D01*
Y239740D01*
X270380D01*
X275380Y9740D02*
Y9340D01*
X276181D01*
Y9740D01*
X276581D01*
Y10540D01*
X276181D01*
Y10940D01*
X275380D01*
Y10540D01*
X274980D01*
Y9740D01*
X275380D01*
Y29740D02*
Y29340D01*
X276181D01*
Y29740D01*
X276581D01*
Y30540D01*
X276181D01*
Y30940D01*
X275380D01*
Y30540D01*
X274980D01*
Y29740D01*
X275380D01*
Y49740D02*
Y49340D01*
X276181D01*
Y49740D01*
X276581D01*
Y50540D01*
X276181D01*
Y50940D01*
X275380D01*
Y50540D01*
X274980D01*
Y49740D01*
X275380D01*
Y69740D02*
Y69340D01*
X276181D01*
Y69740D01*
X276581D01*
Y70540D01*
X276181D01*
Y70940D01*
X275380D01*
Y70540D01*
X274980D01*
Y69740D01*
X275380D01*
Y129740D02*
Y129340D01*
X276181D01*
Y129740D01*
X276581D01*
Y130540D01*
X276181D01*
Y130940D01*
X275380D01*
Y130540D01*
X274980D01*
Y129740D01*
X275380D01*
Y149740D02*
Y149340D01*
X276181D01*
Y149740D01*
X276581D01*
Y150540D01*
X276181D01*
Y150940D01*
X275380D01*
Y150540D01*
X274980D01*
Y149740D01*
X275380D01*
Y169740D02*
Y169340D01*
X276181D01*
Y169740D01*
X276581D01*
Y170540D01*
X276181D01*
Y170940D01*
X275380D01*
Y170540D01*
X274980D01*
Y169740D01*
X275380D01*
Y189740D02*
Y189340D01*
X276181D01*
Y189740D01*
X276581D01*
Y190540D01*
X276181D01*
Y190940D01*
X275380D01*
Y190540D01*
X274980D01*
Y189740D01*
X275380D01*
Y209740D02*
Y209340D01*
X276181D01*
Y209740D01*
X276581D01*
Y210540D01*
X276181D01*
Y210940D01*
X275380D01*
Y210540D01*
X274980D01*
Y209740D01*
X275380D01*
Y229740D02*
Y229340D01*
X276181D01*
Y229740D01*
X276581D01*
Y230540D01*
X276181D01*
Y230940D01*
X275380D01*
Y230540D01*
X274980D01*
Y229740D01*
X275380D01*
D12*
X223700Y239700D02*
G03*
X223700Y239700I-800J0D01*
G01*
X213700D02*
G03*
X213700Y239700I-800J0D01*
G01*
X203700D02*
G03*
X203700Y239700I-800J0D01*
G01*
X193700D02*
G03*
X193700Y239700I-800J0D01*
G01*
X183700D02*
G03*
X183700Y239700I-800J0D01*
G01*
X173700D02*
G03*
X173700Y239700I-800J0D01*
G01*
X163700D02*
G03*
X163700Y239700I-800J0D01*
G01*
X153700D02*
G03*
X153700Y239700I-800J0D01*
G01*
X143700D02*
G03*
X143700Y239700I-800J0D01*
G01*
X133700D02*
G03*
X133700Y239700I-800J0D01*
G01*
X223700Y229700D02*
G03*
X223700Y229700I-800J0D01*
G01*
X213700D02*
G03*
X213700Y229700I-800J0D01*
G01*
X203700D02*
G03*
X203700Y229700I-800J0D01*
G01*
X193700D02*
G03*
X193700Y229700I-800J0D01*
G01*
X183700D02*
G03*
X183700Y229700I-800J0D01*
G01*
X173700D02*
G03*
X173700Y229700I-800J0D01*
G01*
X163700D02*
G03*
X163700Y229700I-800J0D01*
G01*
X153700D02*
G03*
X153700Y229700I-800J0D01*
G01*
X143700D02*
G03*
X143700Y229700I-800J0D01*
G01*
X133700D02*
G03*
X133700Y229700I-800J0D01*
G01*
M02*
