M48
;Layer_Color=9474304
;FILE_FORMAT=2:5
INCH,TZ
;TYPE=PLATED
T1F00S00C0.01181
T2F00S00C0.01600
T3F00S00C0.03150
T4F00S00C0.03200
T5F00S00C0.03543
T6F00S00C0.03937
T7F00S00C0.07874
%
T01
X5781Y10140
X15780
X25780
X48000Y10000
X35781Y30140
X30781Y40140
X25780Y50140
X15780
X5781
X10780Y40140
X5781Y30140
X10780Y20140
Y60140
X5781Y70140
X25780
X30781Y60140
X40780
X50780
X45781Y50140
Y70140
X50780Y80140
Y100140
X40780
X37700Y99800
X38600Y104800
X43900Y113862
X60400Y113160
X20780Y120140
Y100140
X15780Y90140
X35781
X85781
X80781Y80140
X90781
X85781Y70140
Y50140
X86200Y46100
X70800Y41800
X65781Y30140
X95780
Y10140
X105780
X115780
X110781Y20140
X125780Y30140
X123100Y39300
X118900Y40150
X119000Y53800
X123100
X133100Y52600
X140300Y55200
X143800Y47300
X150900Y33000
X154400Y34100
X150780Y20140
X135781Y10140
X169800Y12700
X173700Y10100
X195781Y30140
X200781Y40140
X193800Y46800
Y53800
X205781Y50140
X195781Y70140
X200781Y80140
X178000Y85800
X180992Y70408
X141700Y70300
X144300Y74100
X144900Y78600
X145300Y82700
X159500Y88900
X161700Y93500
X118700Y93100
Y82000
X111800Y107300
X110781Y120140
X120781
X125780Y110140
X100584Y114184
X99000Y118500
X93000Y118400
X90500Y114300
X86500Y116200
X78800
X74500Y113700
X69100Y109400
X80781Y100140
X100780Y60140
X87500Y18200
X88800Y16300
X210781Y20140
X218400Y102700
X200000Y108400
X220780Y120140
X240780
Y100140
X237000Y102800
X258200Y102100
X260781Y100140
X274300Y101900
X278600Y115300
X277100Y116800
X261500Y117200
X260100Y118600
X250781Y80140
X240780
X235781Y70140
X230781Y60140
X240780
X250781
X260781
X270780
X265780Y50140
X255781
X245780
X235781
X240780Y40140
X250781
X245780Y30140
X235781
X230781Y20140
X240780
X250781
X235781Y10140
X265780
X275781
Y30140
X270780Y40140
X275781Y50140
Y70140
Y130140
Y150140
X270780Y160140
X265780Y170140
X255781
X250781Y160140
X240780
X245780Y150140
X255781
X245780Y130140
X220780Y140140
X221500Y143900
X224900Y164300
X220780Y180140
X230781
Y200140
Y220140
X220780
X240780
X250781
X260781
X270780
X265780Y210140
X255781
X245780
X250781Y200140
X260781
X270780
X275781Y190140
X270780Y180140
X260781
X250781
X255781Y190140
Y230140
X245780
X235781
X230781Y240140
X240780
X250781
X260781
X270780
X265780Y230140
X275781
Y210140
Y170140
X213600Y150200
X198400Y154700
X185781Y150140
X180780Y140140
X177900Y132600
X170600Y134500
X159700Y134400
X155500Y138200
X149800Y135200
X130400Y134000
X125780Y130140
X115780
X105780
X120781Y140140
X121700Y146500
X121600Y150700
Y154800
X120781Y180140
X130780
X137500Y184000
X137800Y188800
X140780Y200140
X142200Y205200
X145200Y210200
X138550Y222050
X130780Y220140
X120781
X110781
X100780
X95780Y210140
X105780
X115780
X125780
X120781Y200140
X110781
X100780
X90781
X85781Y170140
X75780
X65781
X70780Y160140
X80781
X82879Y154279
X95780Y150140
Y170140
X69200Y140100
X65200Y140200
X83700Y123000
X135800Y142800
X166300Y159500
X170004Y161596
X173500Y159300
X183600Y168500
X180780Y180140
X181400Y184500
X187300Y188600
X190780Y180140
Y200140
X200781
X210781
X183700Y205200
X187500Y210200
X130780Y200140
X125780Y230140
X115780
X120781Y240140
X90781
X80781
X70780
X65781Y230140
X75780
X85781
X215780Y130140
X55781
X45781
X44000Y144100
X62500
X60781Y140140
Y160140
X45781Y170140
X35781
X40780Y180140
X35781Y190140
X25780
X15780
X5781
X10780Y200140
X20780
X30781
X15780Y210140
X5781
X10780Y220140
X5781Y230140
X55781
X50780Y220140
X60781
X55781Y210140
X50780Y240140
X60781
X5781Y170140
Y150140
X15780Y130140
X23100Y130100
X23000Y136400
T02
X69011Y14600
Y19600
Y24600
X172989Y26400
Y31400
Y36400
T03
X16220Y80500
X30000
X104900Y32200
Y18420
X138100Y18100
Y31879
X253400Y67900
X267179
T04
X133200Y166600
X143200Y166600
T05
X125300Y62800
Y72800
Y82800
Y92800
Y102800
X28800Y150700
Y160700
Y170700
Y180700
X11800Y180200
Y170200
Y160200
Y150200
X13200Y230300
Y240300
X23200
Y230300
X33200
Y240300
X43200
Y230300
T06
X222900Y229700
Y239700
X212900
X202900
X192900
X182900
X172900
X162900
X152900
X142900
X132900
Y229700
X142900
X152900
X162900
X172900
X182900
X192900
X202900
X212900
T07
X22000Y20700
Y40385
X261600Y40485
Y20800
M30
