G04 Layer_Color=16711935*
%FSLAX25Y25*%
%MOIN*%
G70*
G01*
G75*
%ADD63R,0.10642X0.15761*%
%ADD69C,0.04737*%
%ADD70C,0.06706*%
%ADD71R,0.06706X0.06706*%
%ADD72C,0.07099*%
%ADD73R,0.07099X0.07099*%
%ADD74R,0.05524X0.08674*%
%ADD75O,0.05524X0.08674*%
%ADD76C,0.14579*%
%ADD77R,0.14579X0.14579*%
%ADD78R,0.06706X0.06706*%
%ADD79C,0.04000*%
D63*
X172700Y31700D02*
D03*
X69300Y19300D02*
D03*
D69*
X265700Y195800D02*
D03*
X9100Y140000D02*
D03*
D70*
X125300Y62800D02*
D03*
Y72800D02*
D03*
Y82800D02*
D03*
Y92800D02*
D03*
X13200Y240300D02*
D03*
X23200Y230300D02*
D03*
Y240300D02*
D03*
X33200Y230300D02*
D03*
Y240300D02*
D03*
X43200Y230300D02*
D03*
Y240300D02*
D03*
X28800Y180700D02*
D03*
Y170700D02*
D03*
Y160700D02*
D03*
X11800Y180200D02*
D03*
Y170200D02*
D03*
Y160200D02*
D03*
D71*
X125300Y102800D02*
D03*
X28800Y150700D02*
D03*
X11800Y150200D02*
D03*
D72*
X222900Y239700D02*
D03*
X212900D02*
D03*
X202900D02*
D03*
X192900D02*
D03*
X182900D02*
D03*
X172900D02*
D03*
X162900D02*
D03*
X152900D02*
D03*
X142900D02*
D03*
X132900D02*
D03*
X222900Y229700D02*
D03*
X212900D02*
D03*
X202900D02*
D03*
X192900D02*
D03*
X182900D02*
D03*
X172900D02*
D03*
X162900D02*
D03*
X152900D02*
D03*
X142900D02*
D03*
X267179Y67900D02*
D03*
X253400D02*
D03*
X16220Y80500D02*
D03*
X30000D02*
D03*
X104900Y18420D02*
D03*
Y32200D02*
D03*
X138100Y31879D02*
D03*
Y18100D02*
D03*
D73*
X132900Y229700D02*
D03*
D74*
X143200Y166600D02*
D03*
D75*
X133200Y166600D02*
D03*
D76*
X261600Y40485D02*
D03*
X22000Y40385D02*
D03*
D77*
X261600Y20800D02*
D03*
X22000Y20700D02*
D03*
D78*
X13200Y230300D02*
D03*
D79*
X172989Y31400D02*
D03*
Y36400D02*
D03*
Y26400D02*
D03*
X69011Y19600D02*
D03*
Y14600D02*
D03*
Y24600D02*
D03*
M02*
