G04 Layer_Color=128*
%FSLAX25Y25*%
%MOIN*%
G70*
G01*
G75*
%ADD10C,0.00394*%
%ADD11C,0.00200*%
D10*
X101947Y139121D02*
G03*
X101947Y139121I-1969J0D01*
G01*
X103522Y135578D02*
Y182822D01*
X56278Y135578D02*
Y182822D01*
Y135578D02*
X103522D01*
X56278Y182822D02*
X103522D01*
D11*
X123528Y62800D02*
X127072D01*
X125300Y61028D02*
Y64572D01*
X123528Y72800D02*
X127072D01*
X125300Y71028D02*
Y74572D01*
X123528Y82800D02*
X127072D01*
X125300Y81028D02*
Y84572D01*
X123528Y92800D02*
X127072D01*
X125300Y91028D02*
Y94572D01*
X123528Y102800D02*
X127072D01*
X125300Y101028D02*
Y104572D01*
X220932Y239700D02*
X224868D01*
X222900Y237732D02*
Y241669D01*
X210931Y239700D02*
X214868D01*
X212900Y237732D02*
Y241669D01*
X200932Y239700D02*
X204869D01*
X202900Y237732D02*
Y241669D01*
X190931Y239700D02*
X194869D01*
X192900Y237732D02*
Y241669D01*
X180931Y239700D02*
X184869D01*
X182900Y237732D02*
Y241669D01*
X170931Y239700D02*
X174869D01*
X172900Y237732D02*
Y241669D01*
X160932Y239700D02*
X164868D01*
X162900Y237732D02*
Y241669D01*
X150932Y239700D02*
X154868D01*
X152900Y237732D02*
Y241669D01*
X140931Y239700D02*
X144869D01*
X142900Y237732D02*
Y241669D01*
X130931Y239700D02*
X134869D01*
X132900Y237732D02*
Y241669D01*
X220932Y229700D02*
X224868D01*
X222900Y227731D02*
Y231668D01*
X210931Y229700D02*
X214868D01*
X212900Y227731D02*
Y231668D01*
X200932Y229700D02*
X204869D01*
X202900Y227731D02*
Y231668D01*
X190931Y229700D02*
X194869D01*
X192900Y227731D02*
Y231668D01*
X180931Y229700D02*
X184869D01*
X182900Y227731D02*
Y231668D01*
X170931Y229700D02*
X174869D01*
X172900Y227731D02*
Y231668D01*
X160932Y229700D02*
X164868D01*
X162900Y227731D02*
Y231668D01*
X150932Y229700D02*
X154868D01*
X152900Y227731D02*
Y231668D01*
X140931Y229700D02*
X144869D01*
X142900Y227731D02*
Y231668D01*
X130931Y229700D02*
X134869D01*
X132900Y227731D02*
Y231668D01*
X141600Y166600D02*
X144800D01*
X143200Y165000D02*
Y168200D01*
X131600Y166600D02*
X134800D01*
X133200Y165000D02*
Y168200D01*
X265605Y67900D02*
X268754D01*
X267179Y66325D02*
Y69475D01*
X251825Y67900D02*
X254975D01*
X253400Y66325D02*
Y69475D01*
X14646Y80500D02*
X17795D01*
X16220Y78925D02*
Y82075D01*
X28425Y80500D02*
X31575D01*
X30000Y78925D02*
Y82075D01*
X257663Y40485D02*
X265537D01*
X261600Y36548D02*
Y44422D01*
X257663Y20800D02*
X265537D01*
X261600Y16863D02*
Y24737D01*
X103325Y18420D02*
X106475D01*
X104900Y16846D02*
Y19995D01*
X103325Y32200D02*
X106475D01*
X104900Y30625D02*
Y33775D01*
X18063Y40385D02*
X25937D01*
X22000Y36448D02*
Y44322D01*
X18063Y20700D02*
X25937D01*
X22000Y16763D02*
Y24637D01*
X11428Y230300D02*
X14972D01*
X13200Y228528D02*
Y232072D01*
X11428Y240300D02*
X14972D01*
X13200Y238528D02*
Y242072D01*
X21428Y230300D02*
X24972D01*
X23200Y228528D02*
Y232072D01*
X21428Y240300D02*
X24972D01*
X23200Y238528D02*
Y242072D01*
X31428Y230300D02*
X34972D01*
X33200Y228528D02*
Y232072D01*
X31428Y240300D02*
X34972D01*
X33200Y238528D02*
Y242072D01*
X41428Y230300D02*
X44972D01*
X43200Y228528D02*
Y232072D01*
X41428Y240300D02*
X44972D01*
X43200Y238528D02*
Y242072D01*
X27028Y180700D02*
X30572D01*
X28800Y178928D02*
Y182472D01*
X27028Y170700D02*
X30572D01*
X28800Y168928D02*
Y172472D01*
X27028Y160700D02*
X30572D01*
X28800Y158928D02*
Y162472D01*
X27028Y150700D02*
X30572D01*
X28800Y148928D02*
Y152472D01*
X10028Y180200D02*
X13572D01*
X11800Y178428D02*
Y181972D01*
X10028Y170200D02*
X13572D01*
X11800Y168428D02*
Y171972D01*
X10028Y160200D02*
X13572D01*
X11800Y158428D02*
Y161972D01*
X10028Y150200D02*
X13572D01*
X11800Y148428D02*
Y151972D01*
X136525Y31879D02*
X139675D01*
X138100Y30305D02*
Y33454D01*
X136525Y18100D02*
X139675D01*
X138100Y16525D02*
Y19675D01*
X149209Y135200D02*
X150391D01*
X149800Y134609D02*
Y135791D01*
X154909Y138200D02*
X156091D01*
X155500Y137609D02*
Y138791D01*
X159109Y134400D02*
X160291D01*
X159700Y133809D02*
Y134991D01*
X170009Y134500D02*
X171191D01*
X170600Y133909D02*
Y135091D01*
X173109Y10100D02*
X174291D01*
X173700Y9509D02*
Y10691D01*
X169209Y12700D02*
X170391D01*
X169800Y12109D02*
Y13291D01*
X220910Y143900D02*
X222091D01*
X221500Y143309D02*
Y144491D01*
X158909Y88900D02*
X160091D01*
X159500Y88310D02*
Y89490D01*
X161109Y93500D02*
X162291D01*
X161700Y92909D02*
Y94090D01*
X61910Y144100D02*
X63090D01*
X62500Y143509D02*
Y144691D01*
X64609Y140200D02*
X65790D01*
X65200Y139609D02*
Y140791D01*
X43310Y113862D02*
X44491D01*
X43900Y113271D02*
Y114452D01*
X59809Y113160D02*
X60991D01*
X60400Y112569D02*
Y113751D01*
X73909Y113700D02*
X75090D01*
X74500Y113109D02*
Y114291D01*
X70209Y41800D02*
X71390D01*
X70800Y41209D02*
Y42391D01*
X85610Y46100D02*
X86791D01*
X86200Y45509D02*
Y46691D01*
X144609Y210200D02*
X145791D01*
X145200Y209610D02*
Y210790D01*
X186909Y210200D02*
X188091D01*
X187500Y209610D02*
Y210790D01*
X183109Y205200D02*
X184291D01*
X183700Y204609D02*
Y205790D01*
X137959Y222050D02*
X139141D01*
X138550Y221460D02*
Y222640D01*
X141609Y205200D02*
X142791D01*
X142200Y204609D02*
Y205790D01*
X180809Y184500D02*
X181991D01*
X181400Y183909D02*
Y185091D01*
X183009Y168500D02*
X184191D01*
X183600Y167909D02*
Y169091D01*
X224309Y164300D02*
X225490D01*
X224900Y163709D02*
Y164891D01*
X186709Y188600D02*
X187891D01*
X187300Y188009D02*
Y189191D01*
X136909Y184000D02*
X138091D01*
X137500Y183409D02*
Y184591D01*
X137209Y188800D02*
X138391D01*
X137800Y188209D02*
Y189391D01*
X172909Y159300D02*
X174091D01*
X173500Y158709D02*
Y159891D01*
X169414Y161596D02*
X170595D01*
X170004Y161005D02*
Y162186D01*
X165709Y159500D02*
X166891D01*
X166300Y158909D02*
Y160091D01*
X121109Y146500D02*
X122291D01*
X121700Y145909D02*
Y147091D01*
X121009Y150700D02*
X122191D01*
X121600Y150109D02*
Y151291D01*
X121009Y154800D02*
X122191D01*
X121600Y154209D02*
Y155391D01*
X177309Y132600D02*
X178491D01*
X177900Y132009D02*
Y133191D01*
X82288Y154279D02*
X83469D01*
X82879Y153688D02*
Y154869D01*
X22510Y130100D02*
X23690D01*
X23100Y129509D02*
Y130691D01*
X22410Y136400D02*
X23591D01*
X23000Y135809D02*
Y136991D01*
X135209Y142800D02*
X136391D01*
X135800Y142209D02*
Y143391D01*
X129809Y134000D02*
X130991D01*
X130400Y133409D02*
Y134591D01*
X144709Y82700D02*
X145891D01*
X145300Y82109D02*
Y83290D01*
X180401Y70408D02*
X181582D01*
X180992Y69818D02*
Y70999D01*
X144309Y78600D02*
X145491D01*
X144900Y78009D02*
Y79190D01*
X143709Y74100D02*
X144891D01*
X144300Y73510D02*
Y74691D01*
X141109Y70300D02*
X142291D01*
X141700Y69709D02*
Y70890D01*
X139709Y55200D02*
X140891D01*
X140300Y54610D02*
Y55791D01*
X143209Y47300D02*
X144391D01*
X143800Y46709D02*
Y47891D01*
X132509Y52600D02*
X133691D01*
X133100Y52009D02*
Y53190D01*
X122509Y53800D02*
X123691D01*
X123100Y53210D02*
Y54391D01*
X118409Y53800D02*
X119591D01*
X119000Y53210D02*
Y54391D01*
X118309Y40150D02*
X119491D01*
X118900Y39559D02*
Y40741D01*
X122509Y39300D02*
X123691D01*
X123100Y38709D02*
Y39891D01*
X111209Y107300D02*
X112391D01*
X111800Y106709D02*
Y107891D01*
X99994Y114184D02*
X101175D01*
X100584Y113594D02*
Y114775D01*
X118109Y82000D02*
X119291D01*
X118700Y81410D02*
Y82591D01*
X118109Y93100D02*
X119291D01*
X118700Y92510D02*
Y93691D01*
X68510Y109400D02*
X69691D01*
X69100Y108809D02*
Y109991D01*
X92409Y118400D02*
X93590D01*
X93000Y117809D02*
Y118991D01*
X98409Y118500D02*
X99590D01*
X99000Y117909D02*
Y119091D01*
X85909Y116200D02*
X87090D01*
X86500Y115609D02*
Y116791D01*
X78210Y116200D02*
X79391D01*
X78800Y115609D02*
Y116791D01*
X89909Y114300D02*
X91091D01*
X90500Y113709D02*
Y114891D01*
X83109Y123000D02*
X84290D01*
X83700Y122409D02*
Y123591D01*
X43409Y144100D02*
X44591D01*
X44000Y143509D02*
Y144691D01*
X38009Y104800D02*
X39191D01*
X38600Y104209D02*
Y105391D01*
X68609Y140100D02*
X69791D01*
X69200Y139509D02*
Y140691D01*
X193209Y53800D02*
X194391D01*
X193800Y53210D02*
Y54391D01*
X193209Y46800D02*
X194391D01*
X193800Y46209D02*
Y47391D01*
X37109Y99800D02*
X38291D01*
X37700Y99209D02*
Y100391D01*
X177409Y85800D02*
X178591D01*
X178000Y85210D02*
Y86391D01*
X197809Y154700D02*
X198991D01*
X198400Y154109D02*
Y155291D01*
X199409Y108400D02*
X200591D01*
X200000Y107809D02*
Y108991D01*
X213010Y150200D02*
X214191D01*
X213600Y149609D02*
Y150791D01*
X236409Y102800D02*
X237591D01*
X237000Y102209D02*
Y103391D01*
X217810Y102700D02*
X218990D01*
X218400Y102110D02*
Y103291D01*
X259509Y118600D02*
X260690D01*
X260100Y118009D02*
Y119191D01*
X257610Y102100D02*
X258790D01*
X258200Y101509D02*
Y102691D01*
X260910Y117200D02*
X262090D01*
X261500Y116609D02*
Y117791D01*
X278010Y115300D02*
X279190D01*
X278600Y114709D02*
Y115891D01*
X276509Y116800D02*
X277691D01*
X277100Y116209D02*
Y117391D01*
X47409Y10000D02*
X48591D01*
X48000Y9409D02*
Y10591D01*
X150309Y33000D02*
X151491D01*
X150900Y32409D02*
Y33591D01*
X153809Y34100D02*
X154991D01*
X154400Y33509D02*
Y34691D01*
X88209Y16300D02*
X89390D01*
X88800Y15710D02*
Y16891D01*
X86910Y18200D02*
X88090D01*
X87500Y17609D02*
Y18790D01*
X273710Y101900D02*
X274890D01*
X274300Y101310D02*
Y102491D01*
X172189Y31400D02*
X173789D01*
X172989Y30600D02*
Y32200D01*
X172189Y36400D02*
X173789D01*
X172989Y35600D02*
Y37200D01*
X172189Y26400D02*
X173789D01*
X172989Y25600D02*
Y27200D01*
X68211Y19600D02*
X69811D01*
X69011Y18800D02*
Y20400D01*
X68211Y14600D02*
X69811D01*
X69011Y13800D02*
Y15400D01*
X68211Y24600D02*
X69811D01*
X69011Y23800D02*
Y25400D01*
X5190Y10140D02*
X6371D01*
X5781Y9550D02*
Y10731D01*
X10190Y20140D02*
X11371D01*
X10780Y19550D02*
Y20731D01*
X5190Y30140D02*
X6371D01*
X5781Y29550D02*
Y30731D01*
X10190Y40140D02*
X11371D01*
X10780Y39550D02*
Y40731D01*
X5190Y50140D02*
X6371D01*
X5781Y49550D02*
Y50731D01*
X10190Y60140D02*
X11371D01*
X10780Y59550D02*
Y60731D01*
X5190Y70140D02*
X6371D01*
X5781Y69550D02*
Y70731D01*
X5190Y150140D02*
X6371D01*
X5781Y149550D02*
Y150731D01*
X5190Y170140D02*
X6371D01*
X5781Y169550D02*
Y170731D01*
X5190Y190140D02*
X6371D01*
X5781Y189550D02*
Y190731D01*
X10190Y200140D02*
X11371D01*
X10780Y199550D02*
Y200731D01*
X5190Y210140D02*
X6371D01*
X5781Y209550D02*
Y210731D01*
X10190Y220140D02*
X11371D01*
X10780Y219550D02*
Y220731D01*
X5190Y230140D02*
X6371D01*
X5781Y229550D02*
Y230731D01*
X15190Y10140D02*
X16371D01*
X15780Y9550D02*
Y10731D01*
X15190Y50140D02*
X16371D01*
X15780Y49550D02*
Y50731D01*
X15190Y90140D02*
X16371D01*
X15780Y89550D02*
Y90731D01*
X20190Y100140D02*
X21371D01*
X20780Y99550D02*
Y100731D01*
X20190Y120140D02*
X21371D01*
X20780Y119550D02*
Y120731D01*
X15190Y130140D02*
X16371D01*
X15780Y129550D02*
Y130731D01*
X15190Y190140D02*
X16371D01*
X15780Y189550D02*
Y190731D01*
X20190Y200140D02*
X21371D01*
X20780Y199550D02*
Y200731D01*
X15190Y210140D02*
X16371D01*
X15780Y209550D02*
Y210731D01*
X25190Y10140D02*
X26371D01*
X25780Y9550D02*
Y10731D01*
X30190Y40140D02*
X31371D01*
X30781Y39550D02*
Y40731D01*
X25190Y50140D02*
X26371D01*
X25780Y49550D02*
Y50731D01*
X30190Y60140D02*
X31371D01*
X30781Y59550D02*
Y60731D01*
X25190Y70140D02*
X26371D01*
X25780Y69550D02*
Y70731D01*
X25190Y190140D02*
X26371D01*
X25780Y189550D02*
Y190731D01*
X30190Y200140D02*
X31371D01*
X30781Y199550D02*
Y200731D01*
X35190Y30140D02*
X36371D01*
X35781Y29550D02*
Y30731D01*
X40190Y60140D02*
X41371D01*
X40780Y59550D02*
Y60731D01*
X35190Y90140D02*
X36371D01*
X35781Y89550D02*
Y90731D01*
X40190Y100140D02*
X41371D01*
X40780Y99550D02*
Y100731D01*
X35190Y170140D02*
X36371D01*
X35781Y169550D02*
Y170731D01*
X40190Y180140D02*
X41371D01*
X40780Y179550D02*
Y180731D01*
X35190Y190140D02*
X36371D01*
X35781Y189550D02*
Y190731D01*
X45190Y50140D02*
X46371D01*
X45781Y49550D02*
Y50731D01*
X50190Y60140D02*
X51371D01*
X50780Y59550D02*
Y60731D01*
X45190Y70140D02*
X46371D01*
X45781Y69550D02*
Y70731D01*
X50190Y80140D02*
X51371D01*
X50780Y79550D02*
Y80731D01*
X50190Y100140D02*
X51371D01*
X50780Y99550D02*
Y100731D01*
X45190Y130140D02*
X46371D01*
X45781Y129550D02*
Y130731D01*
X45190Y170140D02*
X46371D01*
X45781Y169550D02*
Y170731D01*
X50190Y220140D02*
X51371D01*
X50780Y219550D02*
Y220731D01*
X50190Y240140D02*
X51371D01*
X50780Y239550D02*
Y240731D01*
X55190Y130140D02*
X56371D01*
X55781Y129550D02*
Y130731D01*
X60190Y140140D02*
X61371D01*
X60781Y139550D02*
Y140731D01*
X60190Y160140D02*
X61371D01*
X60781Y159550D02*
Y160731D01*
X55190Y210140D02*
X56371D01*
X55781Y209550D02*
Y210731D01*
X60190Y220140D02*
X61371D01*
X60781Y219550D02*
Y220731D01*
X55190Y230140D02*
X56371D01*
X55781Y229550D02*
Y230731D01*
X60190Y240140D02*
X61371D01*
X60781Y239550D02*
Y240731D01*
X65190Y30140D02*
X66371D01*
X65781Y29550D02*
Y30731D01*
X70190Y160140D02*
X71371D01*
X70780Y159550D02*
Y160731D01*
X65190Y170140D02*
X66371D01*
X65781Y169550D02*
Y170731D01*
X65190Y230140D02*
X66371D01*
X65781Y229550D02*
Y230731D01*
X70190Y240140D02*
X71371D01*
X70780Y239550D02*
Y240731D01*
X80190Y80140D02*
X81371D01*
X80781Y79550D02*
Y80731D01*
X80190Y100140D02*
X81371D01*
X80781Y99550D02*
Y100731D01*
X80190Y160140D02*
X81371D01*
X80781Y159550D02*
Y160731D01*
X75190Y170140D02*
X76371D01*
X75780Y169550D02*
Y170731D01*
X75190Y230140D02*
X76371D01*
X75780Y229550D02*
Y230731D01*
X80190Y240140D02*
X81371D01*
X80781Y239550D02*
Y240731D01*
X85190Y50140D02*
X86371D01*
X85781Y49550D02*
Y50731D01*
X85190Y70140D02*
X86371D01*
X85781Y69550D02*
Y70731D01*
X90190Y80140D02*
X91371D01*
X90781Y79550D02*
Y80731D01*
X85190Y90140D02*
X86371D01*
X85781Y89550D02*
Y90731D01*
X85190Y170140D02*
X86371D01*
X85781Y169550D02*
Y170731D01*
X90190Y200140D02*
X91371D01*
X90781Y199550D02*
Y200731D01*
X85190Y230140D02*
X86371D01*
X85781Y229550D02*
Y230731D01*
X90190Y240140D02*
X91371D01*
X90781Y239550D02*
Y240731D01*
X95190Y10140D02*
X96371D01*
X95780Y9550D02*
Y10731D01*
X95190Y30140D02*
X96371D01*
X95780Y29550D02*
Y30731D01*
X100190Y60140D02*
X101371D01*
X100780Y59550D02*
Y60731D01*
X95190Y150140D02*
X96371D01*
X95780Y149550D02*
Y150731D01*
X95190Y170140D02*
X96371D01*
X95780Y169550D02*
Y170731D01*
X100190Y200140D02*
X101371D01*
X100780Y199550D02*
Y200731D01*
X95190Y210140D02*
X96371D01*
X95780Y209550D02*
Y210731D01*
X100190Y220140D02*
X101371D01*
X100780Y219550D02*
Y220731D01*
X105190Y10140D02*
X106371D01*
X105780Y9550D02*
Y10731D01*
X110190Y20140D02*
X111371D01*
X110781Y19550D02*
Y20731D01*
X110190Y120140D02*
X111371D01*
X110781Y119550D02*
Y120731D01*
X105190Y130140D02*
X106371D01*
X105780Y129550D02*
Y130731D01*
X110190Y200140D02*
X111371D01*
X110781Y199550D02*
Y200731D01*
X105190Y210140D02*
X106371D01*
X105780Y209550D02*
Y210731D01*
X110190Y220140D02*
X111371D01*
X110781Y219550D02*
Y220731D01*
X115190Y10140D02*
X116371D01*
X115780Y9550D02*
Y10731D01*
X120190Y120140D02*
X121371D01*
X120781Y119550D02*
Y120731D01*
X115190Y130140D02*
X116371D01*
X115780Y129550D02*
Y130731D01*
X120190Y140140D02*
X121371D01*
X120781Y139550D02*
Y140731D01*
X120190Y180140D02*
X121371D01*
X120781Y179550D02*
Y180731D01*
X120190Y200140D02*
X121371D01*
X120781Y199550D02*
Y200731D01*
X115190Y210140D02*
X116371D01*
X115780Y209550D02*
Y210731D01*
X120190Y220140D02*
X121371D01*
X120781Y219550D02*
Y220731D01*
X115190Y230140D02*
X116371D01*
X115780Y229550D02*
Y230731D01*
X120190Y240140D02*
X121371D01*
X120781Y239550D02*
Y240731D01*
X125190Y30140D02*
X126371D01*
X125780Y29550D02*
Y30731D01*
X125190Y110140D02*
X126371D01*
X125780Y109550D02*
Y110731D01*
X125190Y130140D02*
X126371D01*
X125780Y129550D02*
Y130731D01*
X130190Y180140D02*
X131371D01*
X130780Y179550D02*
Y180731D01*
X130190Y200140D02*
X131371D01*
X130780Y199550D02*
Y200731D01*
X125190Y210140D02*
X126371D01*
X125780Y209550D02*
Y210731D01*
X130190Y220140D02*
X131371D01*
X130780Y219550D02*
Y220731D01*
X125190Y230140D02*
X126371D01*
X125780Y229550D02*
Y230731D01*
X135190Y10140D02*
X136371D01*
X135781Y9550D02*
Y10731D01*
X140190Y200140D02*
X141371D01*
X140780Y199550D02*
Y200731D01*
X150190Y20140D02*
X151371D01*
X150780Y19550D02*
Y20731D01*
X180190Y140140D02*
X181371D01*
X180780Y139550D02*
Y140731D01*
X180190Y180140D02*
X181371D01*
X180780Y179550D02*
Y180731D01*
X185190Y150140D02*
X186371D01*
X185781Y149550D02*
Y150731D01*
X190190Y180140D02*
X191371D01*
X190780Y179550D02*
Y180731D01*
X190190Y200140D02*
X191371D01*
X190780Y199550D02*
Y200731D01*
X195190Y30140D02*
X196371D01*
X195781Y29550D02*
Y30731D01*
X200190Y40140D02*
X201371D01*
X200781Y39550D02*
Y40731D01*
X195190Y70140D02*
X196371D01*
X195781Y69550D02*
Y70731D01*
X200190Y80140D02*
X201371D01*
X200781Y79550D02*
Y80731D01*
X200190Y200140D02*
X201371D01*
X200781Y199550D02*
Y200731D01*
X210190Y20140D02*
X211371D01*
X210781Y19550D02*
Y20731D01*
X205190Y50140D02*
X206371D01*
X205781Y49550D02*
Y50731D01*
X210190Y200140D02*
X211371D01*
X210781Y199550D02*
Y200731D01*
X220190Y120140D02*
X221371D01*
X220780Y119550D02*
Y120731D01*
X215190Y130140D02*
X216371D01*
X215780Y129550D02*
Y130731D01*
X220190Y140140D02*
X221371D01*
X220780Y139550D02*
Y140731D01*
X220190Y180140D02*
X221371D01*
X220780Y179550D02*
Y180731D01*
X220190Y220140D02*
X221371D01*
X220780Y219550D02*
Y220731D01*
X230190Y20140D02*
X231371D01*
X230781Y19550D02*
Y20731D01*
X230190Y60140D02*
X231371D01*
X230781Y59550D02*
Y60731D01*
X230190Y180140D02*
X231371D01*
X230781Y179550D02*
Y180731D01*
X230190Y200140D02*
X231371D01*
X230781Y199550D02*
Y200731D01*
X230190Y220140D02*
X231371D01*
X230781Y219550D02*
Y220731D01*
X230190Y240140D02*
X231371D01*
X230781Y239550D02*
Y240731D01*
X235190Y10140D02*
X236371D01*
X235781Y9550D02*
Y10731D01*
X240190Y20140D02*
X241371D01*
X240780Y19550D02*
Y20731D01*
X235190Y30140D02*
X236371D01*
X235781Y29550D02*
Y30731D01*
X240190Y40140D02*
X241371D01*
X240780Y39550D02*
Y40731D01*
X235190Y50140D02*
X236371D01*
X235781Y49550D02*
Y50731D01*
X240190Y60140D02*
X241371D01*
X240780Y59550D02*
Y60731D01*
X235190Y70140D02*
X236371D01*
X235781Y69550D02*
Y70731D01*
X240190Y80140D02*
X241371D01*
X240780Y79550D02*
Y80731D01*
X240190Y100140D02*
X241371D01*
X240780Y99550D02*
Y100731D01*
X240190Y120140D02*
X241371D01*
X240780Y119550D02*
Y120731D01*
X240190Y160140D02*
X241371D01*
X240780Y159550D02*
Y160731D01*
X240190Y220140D02*
X241371D01*
X240780Y219550D02*
Y220731D01*
X235190Y230140D02*
X236371D01*
X235781Y229550D02*
Y230731D01*
X240190Y240140D02*
X241371D01*
X240780Y239550D02*
Y240731D01*
X250190Y20140D02*
X251371D01*
X250781Y19550D02*
Y20731D01*
X245190Y30140D02*
X246371D01*
X245780Y29550D02*
Y30731D01*
X250190Y40140D02*
X251371D01*
X250781Y39550D02*
Y40731D01*
X245190Y50140D02*
X246371D01*
X245780Y49550D02*
Y50731D01*
X250190Y60140D02*
X251371D01*
X250781Y59550D02*
Y60731D01*
X250190Y80140D02*
X251371D01*
X250781Y79550D02*
Y80731D01*
X245190Y130140D02*
X246371D01*
X245780Y129550D02*
Y130731D01*
X245190Y150140D02*
X246371D01*
X245780Y149550D02*
Y150731D01*
X250190Y160140D02*
X251371D01*
X250781Y159550D02*
Y160731D01*
X250190Y180140D02*
X251371D01*
X250781Y179550D02*
Y180731D01*
X250190Y200140D02*
X251371D01*
X250781Y199550D02*
Y200731D01*
X245190Y210140D02*
X246371D01*
X245780Y209550D02*
Y210731D01*
X250190Y220140D02*
X251371D01*
X250781Y219550D02*
Y220731D01*
X245190Y230140D02*
X246371D01*
X245780Y229550D02*
Y230731D01*
X250190Y240140D02*
X251371D01*
X250781Y239550D02*
Y240731D01*
X255190Y50140D02*
X256371D01*
X255781Y49550D02*
Y50731D01*
X260190Y60140D02*
X261371D01*
X260781Y59550D02*
Y60731D01*
X260190Y100140D02*
X261371D01*
X260781Y99550D02*
Y100731D01*
X255190Y150140D02*
X256371D01*
X255781Y149550D02*
Y150731D01*
X255190Y170140D02*
X256371D01*
X255781Y169550D02*
Y170731D01*
X260190Y180140D02*
X261371D01*
X260781Y179550D02*
Y180731D01*
X255190Y190140D02*
X256371D01*
X255781Y189550D02*
Y190731D01*
X260190Y200140D02*
X261371D01*
X260781Y199550D02*
Y200731D01*
X255190Y210140D02*
X256371D01*
X255781Y209550D02*
Y210731D01*
X260190Y220140D02*
X261371D01*
X260781Y219550D02*
Y220731D01*
X255190Y230140D02*
X256371D01*
X255781Y229550D02*
Y230731D01*
X260190Y240140D02*
X261371D01*
X260781Y239550D02*
Y240731D01*
X265190Y10140D02*
X266371D01*
X265780Y9550D02*
Y10731D01*
X270190Y40140D02*
X271371D01*
X270780Y39550D02*
Y40731D01*
X265190Y50140D02*
X266371D01*
X265780Y49550D02*
Y50731D01*
X270190Y60140D02*
X271371D01*
X270780Y59550D02*
Y60731D01*
X270190Y160140D02*
X271371D01*
X270780Y159550D02*
Y160731D01*
X265190Y170140D02*
X266371D01*
X265780Y169550D02*
Y170731D01*
X270190Y180140D02*
X271371D01*
X270780Y179550D02*
Y180731D01*
X270190Y200140D02*
X271371D01*
X270780Y199550D02*
Y200731D01*
X265190Y210140D02*
X266371D01*
X265780Y209550D02*
Y210731D01*
X270190Y220140D02*
X271371D01*
X270780Y219550D02*
Y220731D01*
X265190Y230140D02*
X266371D01*
X265780Y229550D02*
Y230731D01*
X270190Y240140D02*
X271371D01*
X270780Y239550D02*
Y240731D01*
X275190Y10140D02*
X276371D01*
X275781Y9550D02*
Y10731D01*
X275190Y30140D02*
X276371D01*
X275781Y29550D02*
Y30731D01*
X275190Y50140D02*
X276371D01*
X275781Y49550D02*
Y50731D01*
X275190Y70140D02*
X276371D01*
X275781Y69550D02*
Y70731D01*
X275190Y130140D02*
X276371D01*
X275781Y129550D02*
Y130731D01*
X275190Y150140D02*
X276371D01*
X275781Y149550D02*
Y150731D01*
X275190Y170140D02*
X276371D01*
X275781Y169550D02*
Y170731D01*
X275190Y190140D02*
X276371D01*
X275781Y189550D02*
Y190731D01*
X275190Y210140D02*
X276371D01*
X275781Y209550D02*
Y210731D01*
X275190Y230140D02*
X276371D01*
X275781Y229550D02*
Y230731D01*
M02*
