G04*
G04 #@! TF.GenerationSoftware,Altium Limited,Altium Designer,18.1.8 (232)*
G04*
G04 Layer_Color=8388736*
%FSLAX25Y25*%
%MOIN*%
G70*
G01*
G75*
%ADD17R,0.04737X0.04737*%
%ADD18R,0.09461X0.04737*%
%ADD19R,0.04934X0.04737*%
%ADD20O,0.12611X0.07887*%
%ADD21R,0.07099X0.07099*%
%ADD22C,0.07099*%
D17*
X43500Y15500D02*
D03*
D18*
X37198Y9693D02*
D03*
Y21307D02*
D03*
D19*
X31096Y15500D02*
D03*
D20*
X66500Y239500D02*
D03*
X153707Y236500D02*
D03*
X231500Y209500D02*
D03*
X66500Y249500D02*
D03*
X7800Y25500D02*
D03*
Y5500D02*
D03*
Y15500D02*
D03*
X289513Y82547D02*
D03*
Y92547D02*
D03*
Y102547D02*
D03*
Y112547D02*
D03*
X289513Y72547D02*
D03*
X286500Y239500D02*
D03*
Y259500D02*
D03*
Y249500D02*
D03*
Y229500D02*
D03*
Y219500D02*
D03*
X12100Y133640D02*
D03*
Y143640D02*
D03*
Y153640D02*
D03*
X11873Y82657D02*
D03*
X11873Y102657D02*
D03*
X11873Y112657D02*
D03*
Y72658D02*
D03*
Y92658D02*
D03*
D21*
X194000Y115500D02*
D03*
D22*
X184000D02*
D03*
X174000D02*
D03*
X164000D02*
D03*
X154000D02*
D03*
X144000D02*
D03*
X134000D02*
D03*
X124000D02*
D03*
X114000D02*
D03*
X104000D02*
D03*
X194000Y105500D02*
D03*
X184000D02*
D03*
X174000D02*
D03*
X164000D02*
D03*
X154000D02*
D03*
X144000D02*
D03*
X134000D02*
D03*
X124000D02*
D03*
X114000D02*
D03*
X104000D02*
D03*
M02*
