G04*
G04 #@! TF.GenerationSoftware,Altium Limited,Altium Designer,18.1.8 (232)*
G04*
G04 Layer_Color=2752767*
%FSLAX25Y25*%
%MOIN*%
G70*
G01*
G75*
%ADD30C,0.00200*%
%ADD31C,0.00267*%
D30*
X65700Y238700D02*
Y240300D01*
X67300D01*
Y238700D01*
X65700D01*
X152907Y235700D02*
Y237300D01*
X154507D01*
Y235700D01*
X152907D01*
X230700Y208700D02*
Y210300D01*
X232300D01*
Y208700D01*
X230700D01*
X65700Y248700D02*
Y250300D01*
X67300D01*
Y248700D01*
X65700D01*
X7000Y24700D02*
Y26300D01*
X8600D01*
Y24700D01*
X7000D01*
Y4700D02*
Y6300D01*
X8600D01*
Y4700D01*
X7000D01*
Y14700D02*
Y16300D01*
X8600D01*
Y14700D01*
X7000D01*
X288713Y81747D02*
Y83347D01*
X290313D01*
Y81747D01*
X288713D01*
Y91747D02*
Y93347D01*
X290313D01*
Y91747D01*
X288713D01*
Y101747D02*
Y103347D01*
X290313D01*
Y101747D01*
X288713D01*
Y111747D02*
Y113347D01*
X290313D01*
Y111747D01*
X288713D01*
X288713Y71747D02*
Y73347D01*
X290313D01*
Y71747D01*
X288713D01*
X285700Y238700D02*
Y240300D01*
X287300D01*
Y238700D01*
X285700D01*
Y258700D02*
Y260300D01*
X287300D01*
Y258700D01*
X285700D01*
Y248700D02*
Y250300D01*
X287300D01*
Y248700D01*
X285700D01*
Y228700D02*
Y230300D01*
X287300D01*
Y228700D01*
X285700D01*
Y218700D02*
Y220300D01*
X287300D01*
Y218700D01*
X285700D01*
X11300Y132840D02*
Y134440D01*
X12900D01*
Y132840D01*
X11300D01*
Y142840D02*
Y144440D01*
X12900D01*
Y142840D01*
X11300D01*
Y152840D02*
Y154440D01*
X12900D01*
Y152840D01*
X11300D01*
X11073Y81858D02*
Y83457D01*
X12673D01*
Y81858D01*
X11073D01*
X11073Y101857D02*
Y103457D01*
X12673D01*
Y101857D01*
X11073D01*
X11073Y111857D02*
Y113458D01*
X12673D01*
Y111857D01*
X11073D01*
Y71858D02*
Y73457D01*
X12673D01*
Y71858D01*
X11073D01*
Y91857D02*
Y93458D01*
X12673D01*
Y91857D01*
X11073D01*
X68140Y152840D02*
X67340Y154440D01*
X68940D01*
X68140Y152840D01*
X67360Y142840D02*
X66560Y144440D01*
X68160D01*
X67360Y142840D01*
X94360Y152840D02*
X93560Y154440D01*
X95160D01*
X94360Y152840D01*
X90360Y142840D02*
X89560Y144440D01*
X91160D01*
X90360Y142840D01*
X16256Y19180D02*
X15456Y20780D01*
X17056D01*
X16256Y19180D01*
X26098Y38865D02*
X25298Y40465D01*
X26899D01*
X26098Y38865D01*
X16256Y58550D02*
X15456Y60150D01*
X17056D01*
X16256Y58550D01*
X26098Y78236D02*
X25298Y79835D01*
X26899D01*
X26098Y78236D01*
Y117605D02*
X25298Y119205D01*
X26899D01*
X26098Y117605D01*
Y156976D02*
X25298Y158576D01*
X26899D01*
X26098Y156976D01*
X16256Y176661D02*
X15456Y178261D01*
X17056D01*
X16256Y176661D01*
X26098Y196346D02*
X25298Y197946D01*
X26899D01*
X26098Y196346D01*
X16256Y216031D02*
X15456Y217631D01*
X17056D01*
X16256Y216031D01*
X26098Y235716D02*
X25298Y237316D01*
X26899D01*
X26098Y235716D01*
X45783Y38865D02*
X44984Y40465D01*
X46584D01*
X45783Y38865D01*
X35941Y58550D02*
X35141Y60150D01*
X36741D01*
X35941Y58550D01*
X45783Y78236D02*
X44984Y79835D01*
X46584D01*
X45783Y78236D01*
X35941Y97921D02*
X35141Y99520D01*
X36741D01*
X35941Y97921D01*
X45783Y117605D02*
X44984Y119205D01*
X46584D01*
X45783Y117605D01*
X35941Y137291D02*
X35141Y138891D01*
X36741D01*
X35941Y137291D01*
X45783Y156976D02*
X44984Y158576D01*
X46584D01*
X45783Y156976D01*
X35941Y176661D02*
X35141Y178261D01*
X36741D01*
X35941Y176661D01*
X45783Y196346D02*
X44984Y197946D01*
X46584D01*
X45783Y196346D01*
X35941Y216031D02*
X35141Y217631D01*
X36741D01*
X35941Y216031D01*
X45783Y235716D02*
X44984Y237316D01*
X46584D01*
X45783Y235716D01*
X65469Y78236D02*
X64669Y79835D01*
X66268D01*
X65469Y78236D01*
X55626Y97921D02*
X54826Y99520D01*
X56426D01*
X55626Y97921D01*
X65469Y117605D02*
X64669Y119205D01*
X66268D01*
X65469Y117605D01*
X55626Y137291D02*
X54826Y138891D01*
X56426D01*
X55626Y137291D01*
X65469Y156976D02*
X64669Y158576D01*
X66268D01*
X65469Y156976D01*
X55626Y176661D02*
X54826Y178261D01*
X56426D01*
X55626Y176661D01*
X65469Y196346D02*
X64669Y197946D01*
X66268D01*
X65469Y196346D01*
X55626Y216031D02*
X54826Y217631D01*
X56426D01*
X55626Y216031D01*
X75311Y97921D02*
X74511Y99520D01*
X76111D01*
X75311Y97921D01*
Y137291D02*
X74511Y138891D01*
X76111D01*
X75311Y137291D01*
Y176661D02*
X74511Y178261D01*
X76111D01*
X75311Y176661D01*
Y216031D02*
X74511Y217631D01*
X76111D01*
X75311Y216031D01*
X94996Y97921D02*
X94196Y99520D01*
X95796D01*
X94996Y97921D01*
Y137291D02*
X94196Y138891D01*
X95796D01*
X94996Y137291D01*
X104839Y156976D02*
X104039Y158576D01*
X105639D01*
X104839Y156976D01*
X94996Y176661D02*
X94196Y178261D01*
X95796D01*
X94996Y176661D01*
X104839Y196346D02*
X104039Y197946D01*
X105639D01*
X104839Y196346D01*
X94996Y216031D02*
X94196Y217631D01*
X95796D01*
X94996Y216031D01*
X104839Y235716D02*
X104039Y237316D01*
X105639D01*
X104839Y235716D01*
X114681Y97921D02*
X113881Y99520D01*
X115481D01*
X114681Y97921D01*
X124524Y156976D02*
X123724Y158576D01*
X125324D01*
X124524Y156976D01*
X114681Y176661D02*
X113881Y178261D01*
X115481D01*
X114681Y176661D01*
X124524Y196346D02*
X123724Y197946D01*
X125324D01*
X124524Y196346D01*
X114681Y216031D02*
X113881Y217631D01*
X115481D01*
X114681Y216031D01*
X124524Y235716D02*
X123724Y237316D01*
X125324D01*
X124524Y235716D01*
X134366Y97921D02*
X133566Y99520D01*
X135166D01*
X134366Y97921D01*
Y137291D02*
X133566Y138891D01*
X135166D01*
X134366Y137291D01*
X144209Y156976D02*
X143409Y158576D01*
X145009D01*
X144209Y156976D01*
X134366Y176661D02*
X133566Y178261D01*
X135166D01*
X134366Y176661D01*
X144209Y196346D02*
X143409Y197946D01*
X145009D01*
X144209Y196346D01*
X134366Y216031D02*
X133566Y217631D01*
X135166D01*
X134366Y216031D01*
X144209Y235716D02*
X143409Y237316D01*
X145009D01*
X144209Y235716D01*
X154051Y97921D02*
X153251Y99520D01*
X154851D01*
X154051Y97921D01*
X173736D02*
X172936Y99520D01*
X174536D01*
X173736Y97921D01*
Y137291D02*
X172936Y138891D01*
X174536D01*
X173736Y137291D01*
X183579Y156976D02*
X182779Y158576D01*
X184379D01*
X183579Y156976D01*
X173736Y176661D02*
X172936Y178261D01*
X174536D01*
X173736Y176661D01*
X183579Y196346D02*
X182779Y197946D01*
X184379D01*
X183579Y196346D01*
X173736Y216031D02*
X172936Y217631D01*
X174536D01*
X173736Y216031D01*
X183579Y235716D02*
X182779Y237316D01*
X184379D01*
X183579Y235716D01*
X193421Y97921D02*
X192621Y99520D01*
X194221D01*
X193421Y97921D01*
Y137291D02*
X192621Y138891D01*
X194221D01*
X193421Y137291D01*
X203264Y156976D02*
X202464Y158576D01*
X204064D01*
X203264Y156976D01*
X193421Y176661D02*
X192621Y178261D01*
X194221D01*
X193421Y176661D01*
X203264Y196346D02*
X202464Y197946D01*
X204064D01*
X203264Y196346D01*
X193421Y216031D02*
X192621Y217631D01*
X194221D01*
X193421Y216031D01*
X203264Y235716D02*
X202464Y237316D01*
X204064D01*
X203264Y235716D01*
X222949Y78236D02*
X222149Y79835D01*
X223749D01*
X222949Y78236D01*
X213106Y97921D02*
X212306Y99520D01*
X213906D01*
X213106Y97921D01*
X222949Y117605D02*
X222149Y119205D01*
X223749D01*
X222949Y117605D01*
X213106Y137291D02*
X212306Y138891D01*
X213906D01*
X213106Y137291D01*
X222949Y156976D02*
X222149Y158576D01*
X223749D01*
X222949Y156976D01*
X213106Y176661D02*
X212306Y178261D01*
X213906D01*
X213106Y176661D01*
X222949Y196346D02*
X222149Y197946D01*
X223749D01*
X222949Y196346D01*
X213106Y216031D02*
X212306Y217631D01*
X213906D01*
X213106Y216031D01*
X222949Y235716D02*
X222149Y237316D01*
X223749D01*
X222949Y235716D01*
X242634Y78236D02*
X241834Y79835D01*
X243434D01*
X242634Y78236D01*
X232791Y97921D02*
X231991Y99520D01*
X233591D01*
X232791Y97921D01*
X242634Y117605D02*
X241834Y119205D01*
X243434D01*
X242634Y117605D01*
X232791Y137291D02*
X231991Y138891D01*
X233591D01*
X232791Y137291D01*
X242634Y156976D02*
X241834Y158576D01*
X243434D01*
X242634Y156976D01*
X232791Y176661D02*
X231991Y178261D01*
X233591D01*
X232791Y176661D01*
X242634Y196346D02*
X241834Y197946D01*
X243434D01*
X242634Y196346D01*
X232791Y216031D02*
X231991Y217631D01*
X233591D01*
X232791Y216031D01*
X242634Y235716D02*
X241834Y237316D01*
X243434D01*
X242634Y235716D01*
X262319Y78236D02*
X261519Y79835D01*
X263119D01*
X262319Y78236D01*
X252476Y97921D02*
X251676Y99520D01*
X253276D01*
X252476Y97921D01*
X262319Y117605D02*
X261519Y119205D01*
X263119D01*
X262319Y117605D01*
X252476Y137291D02*
X251676Y138891D01*
X253276D01*
X252476Y137291D01*
X262319Y156976D02*
X261519Y158576D01*
X263119D01*
X262319Y156976D01*
X252476Y176661D02*
X251676Y178261D01*
X253276D01*
X252476Y176661D01*
X262319Y196346D02*
X261519Y197946D01*
X263119D01*
X262319Y196346D01*
X252476Y216031D02*
X251676Y217631D01*
X253276D01*
X252476Y216031D01*
X262319Y235716D02*
X261519Y237316D01*
X263119D01*
X262319Y235716D01*
X272162Y97921D02*
X271361Y99520D01*
X272961D01*
X272162Y97921D01*
X282004Y117605D02*
X281204Y119205D01*
X282804D01*
X282004Y117605D01*
X272162Y137291D02*
X271361Y138891D01*
X272961D01*
X272162Y137291D01*
X282004Y156976D02*
X281204Y158576D01*
X282804D01*
X282004Y156976D01*
X272162Y176661D02*
X271361Y178261D01*
X272961D01*
X272162Y176661D01*
X282004Y196346D02*
X281204Y197946D01*
X282804D01*
X282004Y196346D01*
X272162Y216031D02*
X271361Y217631D01*
X272961D01*
X272162Y216031D01*
X25500Y27700D02*
X24700Y29300D01*
X26300D01*
X25500Y27700D01*
X30000D02*
X29200Y29300D01*
X30800D01*
X30000Y27700D01*
X34500D02*
X33700Y29300D01*
X35300D01*
X34500Y27700D01*
X39500D02*
X38700Y29300D01*
X40300D01*
X39500Y27700D01*
X43500Y27200D02*
X42700Y28800D01*
X44300D01*
X43500Y27200D01*
X46500Y25700D02*
X45700Y27300D01*
X47300D01*
X46500Y25700D01*
X48500Y22200D02*
X47700Y23800D01*
X49300D01*
X48500Y22200D01*
X49000Y18200D02*
X48200Y19800D01*
X49800D01*
X49000Y18200D01*
Y14700D02*
X48200Y16300D01*
X49800D01*
X49000Y14700D01*
Y9700D02*
X48200Y11300D01*
X49800D01*
X49000Y9700D01*
Y5700D02*
X48200Y7300D01*
X49800D01*
X49000Y5700D01*
X45500Y3200D02*
X44700Y4800D01*
X46300D01*
X45500Y3200D01*
X40500D02*
X39700Y4800D01*
X41300D01*
X40500Y3200D01*
X34000D02*
X33200Y4800D01*
X34800D01*
X34000Y3200D01*
X30000Y3700D02*
X29200Y5300D01*
X30800D01*
X30000Y3700D01*
X26500Y7200D02*
X25700Y8800D01*
X27300D01*
X26500Y7200D01*
X23500Y9700D02*
X22700Y11300D01*
X24300D01*
X23500Y9700D01*
X24000Y22700D02*
X23200Y24300D01*
X24800D01*
X24000Y22700D01*
X22500Y25700D02*
X21700Y27300D01*
X23300D01*
X22500Y25700D01*
D31*
X194800Y115500D02*
G03*
X194800Y115500I-800J0D01*
G01*
X184800D02*
G03*
X184800Y115500I-800J0D01*
G01*
X174800D02*
G03*
X174800Y115500I-800J0D01*
G01*
X164800D02*
G03*
X164800Y115500I-800J0D01*
G01*
X154800D02*
G03*
X154800Y115500I-800J0D01*
G01*
X144800D02*
G03*
X144800Y115500I-800J0D01*
G01*
X134800D02*
G03*
X134800Y115500I-800J0D01*
G01*
X124800D02*
G03*
X124800Y115500I-800J0D01*
G01*
X114800D02*
G03*
X114800Y115500I-800J0D01*
G01*
X104800D02*
G03*
X104800Y115500I-800J0D01*
G01*
X194800Y105500D02*
G03*
X194800Y105500I-800J0D01*
G01*
X184800D02*
G03*
X184800Y105500I-800J0D01*
G01*
X174800D02*
G03*
X174800Y105500I-800J0D01*
G01*
X164800D02*
G03*
X164800Y105500I-800J0D01*
G01*
X154800D02*
G03*
X154800Y105500I-800J0D01*
G01*
X144800D02*
G03*
X144800Y105500I-800J0D01*
G01*
X134800D02*
G03*
X134800Y105500I-800J0D01*
G01*
X124800D02*
G03*
X124800Y105500I-800J0D01*
G01*
X114800D02*
G03*
X114800Y105500I-800J0D01*
G01*
X104800D02*
G03*
X104800Y105500I-800J0D01*
G01*
M02*
