M48
;Layer_Color=9474304
;FILE_FORMAT=2:5
INCH,LZ
;TYPE=PLATED
T1F00S00C0.01181
T2F00S00C0.03937
T3F00S00C0.05906
%
T01
X00235Y00105
X00265Y0008
X003Y00045
X0034Y0004
X00405
X00455
X0049Y00065
Y00105
Y00155
X0193421Y0098721
X0213106
X0232791
X0252476
X0272162
X0262319Y0079036
X0242634
X0222949
Y0118405
X0242634
X0262319
X0282004
X0272162Y0138091
X0252476
X0232791
X0213106
X0193421
X0203264Y0157776
X0222949
X0242634
X0262319
X0282004
X0183579
X0173736Y0138091
X0134366
X0124524Y0157776
X0104839
X009436Y015364
X009036Y014364
X0094996Y0138091
X0075311
X006736Y014364
X006814Y015364
X0065469Y0157776
X0045783
X0035941Y0138091
X0055626
X0045783Y0118405
X0065469
X0055626Y0098721
X0035941
X0045783Y0079036
X0065469
X0075311Y0098721
X0094996
X0114681
X0134366
X0154051
X0173736
X0144209Y0157776
X0035941Y005935
X0045783Y0039665
X00465Y00265
X00435Y0028
X00395Y00285
X00345
X00485Y0023
X0049Y0019
X003Y00285
X00255
X00225Y00265
X0024Y00235
X0016256Y001998
X0026098Y0039665
X0016256Y005935
X0026098Y0079036
Y0118405
Y0157776
X0016256Y0177461
X0026098Y0197146
X0016256Y0216831
X0026098Y0236516
X0045783
X0035941Y0216831
X0055626
X0075311
X0094996
X0114681
X0134366
X0124524Y0197146
X0104839
X0094996Y0177461
X0075311
X0055626
X0035941
X0045783Y0197146
X0065469
X0114681Y0177461
X0134366
X0144209Y0197146
Y0236516
X0124524
X0104839
X0183579
X0173736Y0216831
X0183579Y0197146
X0173736Y0177461
X0193421
X0213106
X0232791
X0252476
X0272162
X0262319Y0197146
X0242634
X0222949
X0203264
X0193421Y0216831
X0213106
X0232791
X0252476
X0272162
X0262319Y0236516
X0242634
X0222949
X0203264
X0282004Y0197146
T02
X0194Y01055
Y01155
X0184
X0174
X0164
X0154
X0144
X0134
X0124
X0114
X0104
Y01055
X0114
X0124
X0134
X0144
X0154
X0164
X0174
X0184
T03
X00078Y00055
Y00155
X0289513Y0072547
X0289513Y0082547
Y0092547
Y0102547
Y0112547
X0011873Y0112657
X0011873Y0102657
X0011873Y0092658
Y0082657
Y0072658
X00078Y00255
X00121Y013364
Y014364
Y015364
X00665Y02395
Y02495
X0153707Y02365
X02315Y02095
X02865Y02195
Y02295
Y02395
Y02495
Y02595
M30
