G04*
G04 #@! TF.GenerationSoftware,Altium Limited,Altium Designer,18.1.8 (232)*
G04*
G04 Layer_Color=128*
%FSLAX25Y25*%
%MOIN*%
G70*
G01*
G75*
%ADD30C,0.00200*%
D30*
X63547Y239500D02*
X69453D01*
X66500Y236547D02*
Y242453D01*
X192032Y115500D02*
X195968D01*
X194000Y113531D02*
Y117469D01*
X182032Y115500D02*
X185968D01*
X184000Y113531D02*
Y117469D01*
X172031Y115500D02*
X175969D01*
X174000Y113531D02*
Y117469D01*
X162031Y115500D02*
X165969D01*
X164000Y113531D02*
Y117469D01*
X152032Y115500D02*
X155968D01*
X154000Y113531D02*
Y117469D01*
X142032Y115500D02*
X145968D01*
X144000Y113531D02*
Y117469D01*
X132032Y115500D02*
X135968D01*
X134000Y113531D02*
Y117469D01*
X122031Y115500D02*
X125969D01*
X124000Y113531D02*
Y117469D01*
X112031Y115500D02*
X115969D01*
X114000Y113531D02*
Y117469D01*
X102032Y115500D02*
X105968D01*
X104000Y113531D02*
Y117469D01*
X192032Y105500D02*
X195968D01*
X194000Y103532D02*
Y107468D01*
X182032Y105500D02*
X185968D01*
X184000Y103532D02*
Y107468D01*
X172031Y105500D02*
X175969D01*
X174000Y103532D02*
Y107468D01*
X162031Y105500D02*
X165969D01*
X164000Y103532D02*
Y107468D01*
X152032Y105500D02*
X155968D01*
X154000Y103532D02*
Y107468D01*
X142032Y105500D02*
X145968D01*
X144000Y103532D02*
Y107468D01*
X132032Y105500D02*
X135968D01*
X134000Y103532D02*
Y107468D01*
X122031Y105500D02*
X125969D01*
X124000Y103532D02*
Y107468D01*
X112031Y105500D02*
X115969D01*
X114000Y103532D02*
Y107468D01*
X102032Y105500D02*
X105968D01*
X104000Y103532D02*
Y107468D01*
X150754Y236500D02*
X156660D01*
X153707Y233547D02*
Y239453D01*
X228547Y209500D02*
X234453D01*
X231500Y206547D02*
Y212453D01*
X63547Y249500D02*
X69453D01*
X66500Y246547D02*
Y252453D01*
X4847Y25500D02*
X10753D01*
X7800Y22547D02*
Y28453D01*
X4847Y5500D02*
X10753D01*
X7800Y2547D02*
Y8453D01*
X4847Y15500D02*
X10753D01*
X7800Y12547D02*
Y18453D01*
X286560Y82547D02*
X292465D01*
X289513Y79594D02*
Y85500D01*
X286560Y92547D02*
X292465D01*
X289513Y89594D02*
Y95500D01*
X286560Y102547D02*
X292465D01*
X289513Y99594D02*
Y105500D01*
X286560Y112547D02*
X292465D01*
X289513Y109594D02*
Y115500D01*
X286560Y72547D02*
X292465D01*
X289513Y69594D02*
Y75500D01*
X283547Y239500D02*
X289453D01*
X286500Y236547D02*
Y242453D01*
X283547Y259500D02*
X289453D01*
X286500Y256547D02*
Y262453D01*
X283547Y249500D02*
X289453D01*
X286500Y246547D02*
Y252453D01*
X283547Y229500D02*
X289453D01*
X286500Y226547D02*
Y232453D01*
X283547Y219500D02*
X289453D01*
X286500Y216547D02*
Y222453D01*
X9147Y133640D02*
X15053D01*
X12100Y130687D02*
Y136593D01*
X9147Y143640D02*
X15053D01*
X12100Y140687D02*
Y146593D01*
X9147Y153640D02*
X15053D01*
X12100Y150687D02*
Y156593D01*
X8921Y82657D02*
X14826D01*
X11873Y79705D02*
Y85610D01*
X8921Y102657D02*
X14826D01*
X11873Y99705D02*
Y105610D01*
X8921Y112657D02*
X14826D01*
X11873Y109705D02*
Y115610D01*
X8921Y72658D02*
X14826D01*
X11873Y69705D02*
Y75610D01*
X8921Y92658D02*
X14826D01*
X11873Y89705D02*
Y95610D01*
X67550Y153640D02*
X68731D01*
X68140Y153050D02*
Y154231D01*
X66769Y143640D02*
X67951D01*
X67360Y143050D02*
Y144231D01*
X93769Y153640D02*
X94950D01*
X94360Y153050D02*
Y154231D01*
X89770Y143640D02*
X90951D01*
X90360Y143050D02*
Y144231D01*
X15665Y19980D02*
X16847D01*
X16256Y19390D02*
Y20571D01*
X25508Y39665D02*
X26689D01*
X26098Y39075D02*
Y40256D01*
X15665Y59350D02*
X16847D01*
X16256Y58760D02*
Y59941D01*
X25508Y79036D02*
X26689D01*
X26098Y78445D02*
Y79626D01*
X25508Y118405D02*
X26689D01*
X26098Y117815D02*
Y118996D01*
X25508Y157776D02*
X26689D01*
X26098Y157185D02*
Y158366D01*
X15665Y177461D02*
X16847D01*
X16256Y176870D02*
Y178051D01*
X25508Y197146D02*
X26689D01*
X26098Y196555D02*
Y197736D01*
X15665Y216831D02*
X16847D01*
X16256Y216240D02*
Y217421D01*
X25508Y236516D02*
X26689D01*
X26098Y235925D02*
Y237106D01*
X45193Y39665D02*
X46374D01*
X45783Y39075D02*
Y40256D01*
X35350Y59350D02*
X36531D01*
X35941Y58760D02*
Y59941D01*
X45193Y79036D02*
X46374D01*
X45783Y78445D02*
Y79626D01*
X35350Y98721D02*
X36531D01*
X35941Y98130D02*
Y99311D01*
X45193Y118405D02*
X46374D01*
X45783Y117815D02*
Y118996D01*
X35350Y138091D02*
X36531D01*
X35941Y137500D02*
Y138681D01*
X45193Y157776D02*
X46374D01*
X45783Y157185D02*
Y158366D01*
X35350Y177461D02*
X36531D01*
X35941Y176870D02*
Y178051D01*
X45193Y197146D02*
X46374D01*
X45783Y196555D02*
Y197736D01*
X35350Y216831D02*
X36531D01*
X35941Y216240D02*
Y217421D01*
X45193Y236516D02*
X46374D01*
X45783Y235925D02*
Y237106D01*
X64878Y79036D02*
X66059D01*
X65469Y78445D02*
Y79626D01*
X55036Y98721D02*
X56217D01*
X55626Y98130D02*
Y99311D01*
X64878Y118405D02*
X66059D01*
X65469Y117815D02*
Y118996D01*
X55036Y138091D02*
X56217D01*
X55626Y137500D02*
Y138681D01*
X64878Y157776D02*
X66059D01*
X65469Y157185D02*
Y158366D01*
X55036Y177461D02*
X56217D01*
X55626Y176870D02*
Y178051D01*
X64878Y197146D02*
X66059D01*
X65469Y196555D02*
Y197736D01*
X55036Y216831D02*
X56217D01*
X55626Y216240D02*
Y217421D01*
X74721Y98721D02*
X75902D01*
X75311Y98130D02*
Y99311D01*
X74721Y138091D02*
X75902D01*
X75311Y137500D02*
Y138681D01*
X74721Y177461D02*
X75902D01*
X75311Y176870D02*
Y178051D01*
X74721Y216831D02*
X75902D01*
X75311Y216240D02*
Y217421D01*
X94406Y98721D02*
X95587D01*
X94996Y98130D02*
Y99311D01*
X94406Y138091D02*
X95587D01*
X94996Y137500D02*
Y138681D01*
X104248Y157776D02*
X105429D01*
X104839Y157185D02*
Y158366D01*
X94406Y177461D02*
X95587D01*
X94996Y176870D02*
Y178051D01*
X104248Y197146D02*
X105429D01*
X104839Y196555D02*
Y197736D01*
X94406Y216831D02*
X95587D01*
X94996Y216240D02*
Y217421D01*
X104248Y236516D02*
X105429D01*
X104839Y235925D02*
Y237106D01*
X114091Y98721D02*
X115272D01*
X114681Y98130D02*
Y99311D01*
X123933Y157776D02*
X125114D01*
X124524Y157185D02*
Y158366D01*
X114091Y177461D02*
X115272D01*
X114681Y176870D02*
Y178051D01*
X123933Y197146D02*
X125114D01*
X124524Y196555D02*
Y197736D01*
X114091Y216831D02*
X115272D01*
X114681Y216240D02*
Y217421D01*
X123933Y236516D02*
X125114D01*
X124524Y235925D02*
Y237106D01*
X133776Y98721D02*
X134957D01*
X134366Y98130D02*
Y99311D01*
X133776Y138091D02*
X134957D01*
X134366Y137500D02*
Y138681D01*
X143618Y157776D02*
X144799D01*
X144209Y157185D02*
Y158366D01*
X133776Y177461D02*
X134957D01*
X134366Y176870D02*
Y178051D01*
X143618Y197146D02*
X144799D01*
X144209Y196555D02*
Y197736D01*
X133776Y216831D02*
X134957D01*
X134366Y216240D02*
Y217421D01*
X143618Y236516D02*
X144799D01*
X144209Y235925D02*
Y237106D01*
X153461Y98721D02*
X154642D01*
X154051Y98130D02*
Y99311D01*
X173146Y98721D02*
X174327D01*
X173736Y98130D02*
Y99311D01*
X173146Y138091D02*
X174327D01*
X173736Y137500D02*
Y138681D01*
X182988Y157776D02*
X184169D01*
X183579Y157185D02*
Y158366D01*
X173146Y177461D02*
X174327D01*
X173736Y176870D02*
Y178051D01*
X182988Y197146D02*
X184169D01*
X183579Y196555D02*
Y197736D01*
X173146Y216831D02*
X174327D01*
X173736Y216240D02*
Y217421D01*
X182988Y236516D02*
X184169D01*
X183579Y235925D02*
Y237106D01*
X192831Y98721D02*
X194012D01*
X193421Y98130D02*
Y99311D01*
X192831Y138091D02*
X194012D01*
X193421Y137500D02*
Y138681D01*
X202673Y157776D02*
X203854D01*
X203264Y157185D02*
Y158366D01*
X192831Y177461D02*
X194012D01*
X193421Y176870D02*
Y178051D01*
X202673Y197146D02*
X203854D01*
X203264Y196555D02*
Y197736D01*
X192831Y216831D02*
X194012D01*
X193421Y216240D02*
Y217421D01*
X202673Y236516D02*
X203854D01*
X203264Y235925D02*
Y237106D01*
X222358Y79036D02*
X223539D01*
X222949Y78445D02*
Y79626D01*
X212516Y98721D02*
X213697D01*
X213106Y98130D02*
Y99311D01*
X222358Y118405D02*
X223539D01*
X222949Y117815D02*
Y118996D01*
X212516Y138091D02*
X213697D01*
X213106Y137500D02*
Y138681D01*
X222358Y157776D02*
X223539D01*
X222949Y157185D02*
Y158366D01*
X212516Y177461D02*
X213697D01*
X213106Y176870D02*
Y178051D01*
X222358Y197146D02*
X223539D01*
X222949Y196555D02*
Y197736D01*
X212516Y216831D02*
X213697D01*
X213106Y216240D02*
Y217421D01*
X222358Y236516D02*
X223539D01*
X222949Y235925D02*
Y237106D01*
X242043Y79036D02*
X243224D01*
X242634Y78445D02*
Y79626D01*
X232201Y98721D02*
X233382D01*
X232791Y98130D02*
Y99311D01*
X242043Y118405D02*
X243224D01*
X242634Y117815D02*
Y118996D01*
X232201Y138091D02*
X233382D01*
X232791Y137500D02*
Y138681D01*
X242043Y157776D02*
X243224D01*
X242634Y157185D02*
Y158366D01*
X232201Y177461D02*
X233382D01*
X232791Y176870D02*
Y178051D01*
X242043Y197146D02*
X243224D01*
X242634Y196555D02*
Y197736D01*
X232201Y216831D02*
X233382D01*
X232791Y216240D02*
Y217421D01*
X242043Y236516D02*
X243224D01*
X242634Y235925D02*
Y237106D01*
X261728Y79036D02*
X262910D01*
X262319Y78445D02*
Y79626D01*
X251886Y98721D02*
X253067D01*
X252476Y98130D02*
Y99311D01*
X261728Y118405D02*
X262910D01*
X262319Y117815D02*
Y118996D01*
X251886Y138091D02*
X253067D01*
X252476Y137500D02*
Y138681D01*
X261728Y157776D02*
X262910D01*
X262319Y157185D02*
Y158366D01*
X251886Y177461D02*
X253067D01*
X252476Y176870D02*
Y178051D01*
X261728Y197146D02*
X262910D01*
X262319Y196555D02*
Y197736D01*
X251886Y216831D02*
X253067D01*
X252476Y216240D02*
Y217421D01*
X261728Y236516D02*
X262910D01*
X262319Y235925D02*
Y237106D01*
X271571Y98721D02*
X272752D01*
X272162Y98130D02*
Y99311D01*
X281413Y118405D02*
X282594D01*
X282004Y117815D02*
Y118996D01*
X271571Y138091D02*
X272752D01*
X272162Y137500D02*
Y138681D01*
X281413Y157776D02*
X282594D01*
X282004Y157185D02*
Y158366D01*
X271571Y177461D02*
X272752D01*
X272162Y176870D02*
Y178051D01*
X281413Y197146D02*
X282594D01*
X282004Y196555D02*
Y197736D01*
X271571Y216831D02*
X272752D01*
X272162Y216240D02*
Y217421D01*
X24909Y28500D02*
X26091D01*
X25500Y27909D02*
Y29091D01*
X29410Y28500D02*
X30591D01*
X30000Y27909D02*
Y29091D01*
X33909Y28500D02*
X35091D01*
X34500Y27909D02*
Y29091D01*
X38910Y28500D02*
X40091D01*
X39500Y27909D02*
Y29091D01*
X42910Y28000D02*
X44091D01*
X43500Y27409D02*
Y28591D01*
X45910Y26500D02*
X47091D01*
X46500Y25910D02*
Y27091D01*
X47910Y23000D02*
X49091D01*
X48500Y22410D02*
Y23591D01*
X48410Y19000D02*
X49591D01*
X49000Y18409D02*
Y19591D01*
X48410Y15500D02*
X49591D01*
X49000Y14909D02*
Y16091D01*
X48410Y10500D02*
X49591D01*
X49000Y9910D02*
Y11091D01*
X48410Y6500D02*
X49591D01*
X49000Y5909D02*
Y7091D01*
X44910Y4000D02*
X46091D01*
X45500Y3410D02*
Y4591D01*
X39909Y4000D02*
X41091D01*
X40500Y3410D02*
Y4591D01*
X33410Y4000D02*
X34591D01*
X34000Y3410D02*
Y4591D01*
X29410Y4500D02*
X30591D01*
X30000Y3909D02*
Y5091D01*
X25910Y8000D02*
X27091D01*
X26500Y7410D02*
Y8591D01*
X22909Y10500D02*
X24091D01*
X23500Y9910D02*
Y11091D01*
X23410Y23500D02*
X24591D01*
X24000Y22909D02*
Y24091D01*
X21910Y26500D02*
X23091D01*
X22500Y25910D02*
Y27091D01*
M02*
