G04*
G04 #@! TF.GenerationSoftware,Altium Limited,Altium Designer,18.1.8 (232)*
G04*
G04 Layer_Color=65535*
%FSLAX25Y25*%
%MOIN*%
G70*
G01*
G75*
%ADD10C,0.00600*%
%ADD11C,0.00787*%
%ADD12C,0.01500*%
%ADD13C,0.00500*%
D10*
X59413Y243437D02*
X73587D01*
X59413Y235563D02*
Y243437D01*
Y235563D02*
X73587D01*
Y243437D01*
X146621Y240437D02*
X160794D01*
X146621Y232563D02*
Y240437D01*
Y232563D02*
X160794D01*
Y240437D01*
X224413Y213437D02*
X238587D01*
X224413Y205563D02*
Y213437D01*
Y205563D02*
X238587D01*
Y213437D01*
X59413Y253437D02*
X73587D01*
X59413Y245563D02*
Y253437D01*
Y245563D02*
X73587D01*
Y253437D01*
X713Y21563D02*
X14887D01*
Y29437D01*
X713D02*
X14887D01*
X713Y21563D02*
Y29437D01*
Y1563D02*
X14887D01*
Y9437D01*
X713D02*
X14887D01*
X713Y1563D02*
Y9437D01*
Y11563D02*
X14887D01*
Y19437D01*
X713D02*
X14887D01*
X713Y11563D02*
Y19437D01*
X282426Y86484D02*
X296599D01*
X282426Y78610D02*
Y86484D01*
Y78610D02*
X296599D01*
Y86484D01*
X282426Y96484D02*
X296599D01*
X282426Y88610D02*
Y96484D01*
Y88610D02*
X296599D01*
Y96484D01*
X282426Y106484D02*
X296599D01*
X282426Y98610D02*
Y106484D01*
Y98610D02*
X296599D01*
Y106484D01*
X282426Y116484D02*
X296599D01*
X282426Y108610D02*
Y116484D01*
Y108610D02*
X296599D01*
Y116484D01*
X282426Y76484D02*
X296599D01*
X282426Y68610D02*
Y76484D01*
Y68610D02*
X296599D01*
Y76484D01*
X279413Y243437D02*
X293587D01*
X279413Y235563D02*
Y243437D01*
Y235563D02*
X293587D01*
Y243437D01*
X279413Y263437D02*
X293587D01*
X279413Y255563D02*
Y263437D01*
Y255563D02*
X293587D01*
Y263437D01*
X279413Y253437D02*
X293587D01*
X279413Y245563D02*
Y253437D01*
Y245563D02*
X293587D01*
Y253437D01*
X279413Y233437D02*
X293587D01*
X279413Y225563D02*
Y233437D01*
Y225563D02*
X293587D01*
Y233437D01*
X279413Y223437D02*
X293587D01*
X279413Y215563D02*
Y223437D01*
Y215563D02*
X293587D01*
Y223437D01*
X5013Y129703D02*
X19187D01*
Y137577D01*
X5013D02*
X19187D01*
X5013Y129703D02*
Y137577D01*
Y139703D02*
X19187D01*
Y147577D01*
X5013D02*
X19187D01*
X5013Y139703D02*
Y147577D01*
Y149703D02*
X19187D01*
Y157577D01*
X5013D02*
X19187D01*
X5013Y149703D02*
Y157577D01*
X4787Y78720D02*
X18960D01*
Y86594D01*
X4787D02*
X18960D01*
X4787Y78720D02*
Y86594D01*
X4787Y98721D02*
X18960D01*
Y106595D01*
X4787D02*
X18960D01*
X4787Y98721D02*
Y106595D01*
X4787Y108721D02*
X18960D01*
Y116595D01*
X4787D02*
X18960D01*
X4787Y108721D02*
Y116595D01*
Y68721D02*
X18960D01*
Y76595D01*
X4787D02*
X18960D01*
X4787Y68721D02*
Y76595D01*
Y88721D02*
X18960D01*
Y96595D01*
X4787D02*
X18960D01*
X4787Y88721D02*
Y96595D01*
D11*
X61205Y127626D02*
X141126D01*
X236795Y93374D02*
Y127626D01*
X156874D02*
X236795D01*
X61205Y93374D02*
Y127626D01*
Y93374D02*
X236795D01*
D12*
X28894Y6600D02*
Y12500D01*
X46450Y6600D02*
Y24400D01*
X28995D02*
X46450D01*
X28894Y6600D02*
X46450D01*
X28995Y18600D02*
Y24400D01*
D13*
X59293Y258499D02*
Y256500D01*
X60293Y255500D01*
X61292Y256500D01*
Y258499D01*
X62292D02*
X63292D01*
X62792D01*
Y255500D01*
X62292D01*
X63292D01*
X64791D02*
Y258499D01*
X66790Y255500D01*
Y258499D01*
X67790Y255000D02*
X69789D01*
X72789Y258499D02*
X70789D01*
Y256999D01*
X71789Y257499D01*
X72289D01*
X72789Y256999D01*
Y256000D01*
X72289Y255500D01*
X71289D01*
X70789Y256000D01*
X73788Y258499D02*
Y256500D01*
X74788Y255500D01*
X75788Y256500D01*
Y258499D01*
X279599Y73001D02*
Y74000D01*
Y73501D01*
X277100D01*
X276600Y74000D01*
Y74500D01*
X277100Y75000D01*
X276600Y70002D02*
Y72001D01*
X278599Y70002D01*
X279099D01*
X279599Y70502D01*
Y71501D01*
X279099Y72001D01*
X21801Y92199D02*
Y91200D01*
Y91699D01*
X24300D01*
X24800Y91200D01*
Y90700D01*
X24300Y90200D01*
X22301Y93199D02*
X21801Y93699D01*
Y94699D01*
X22301Y95198D01*
X22801D01*
X23301Y94699D01*
Y94199D01*
Y94699D01*
X23800Y95198D01*
X24300D01*
X24800Y94699D01*
Y93699D01*
X24300Y93199D01*
X243149Y125051D02*
Y126050D01*
Y125550D01*
X240650D01*
X240150Y126050D01*
Y126550D01*
X240650Y127050D01*
X240150Y122552D02*
X243149D01*
X241650Y124051D01*
Y122052D01*
X150207Y245499D02*
Y243500D01*
X151207Y242500D01*
X152207Y243500D01*
Y245499D01*
X155206Y244999D02*
X154706Y245499D01*
X153706D01*
X153206Y244999D01*
Y243000D01*
X153706Y242500D01*
X154706D01*
X155206Y243000D01*
X158205Y244999D02*
X157705Y245499D01*
X156705D01*
X156205Y244999D01*
Y243000D01*
X156705Y242500D01*
X157705D01*
X158205Y243000D01*
X268600Y220999D02*
X270599D01*
X269600D01*
Y218000D01*
X271599Y220999D02*
X273598Y218000D01*
Y220999D02*
X271599Y218000D01*
X274598Y220999D02*
Y218000D01*
X276098D01*
X276597Y218500D01*
Y220499D01*
X276098Y220999D01*
X274598D01*
X21801Y72199D02*
Y71200D01*
Y71700D01*
X24300D01*
X24800Y71200D01*
Y70700D01*
X24300Y70200D01*
X21801Y73199D02*
Y75198D01*
X22301D01*
X24300Y73199D01*
X24800D01*
X22000Y152400D02*
Y155399D01*
X23000Y154399D01*
X23999Y155399D01*
Y152400D01*
X26998Y154899D02*
X26499Y155399D01*
X25499D01*
X24999Y154899D01*
Y152900D01*
X25499Y152400D01*
X26499D01*
X26998Y152900D01*
X27998Y155399D02*
Y152900D01*
X28498Y152400D01*
X29498D01*
X29997Y152900D01*
Y155399D01*
X30997Y151900D02*
X32996D01*
X33996Y152400D02*
Y155399D01*
X35496D01*
X35996Y154899D01*
Y153900D01*
X35496Y153400D01*
X33996D01*
X34996D02*
X35996Y152400D01*
X36995Y155399D02*
X38995Y152400D01*
Y155399D02*
X36995Y152400D01*
X39994Y155399D02*
Y152400D01*
X41494D01*
X41993Y152900D01*
Y154899D01*
X41494Y155399D01*
X39994D01*
X279599Y113001D02*
Y114000D01*
Y113500D01*
X277100D01*
X276600Y114000D01*
Y114500D01*
X277100Y115000D01*
Y112001D02*
X276600Y111501D01*
Y110502D01*
X277100Y110002D01*
X279099D01*
X279599Y110502D01*
Y111501D01*
X279099Y112001D01*
X278599D01*
X278099Y111501D01*
Y110002D01*
X268600Y228000D02*
Y230999D01*
X270099D01*
X270599Y230499D01*
Y229500D01*
X270099Y229000D01*
X268600D01*
X269600D02*
X270599Y228000D01*
X271599Y230999D02*
X273598Y228000D01*
Y230999D02*
X271599Y228000D01*
X274598Y230999D02*
Y228000D01*
X276098D01*
X276597Y228500D01*
Y230499D01*
X276098Y230999D01*
X274598D01*
X22000Y142400D02*
Y145399D01*
X23000Y144399D01*
X23999Y145399D01*
Y142400D01*
X26998Y144899D02*
X26499Y145399D01*
X25499D01*
X24999Y144899D01*
Y142900D01*
X25499Y142400D01*
X26499D01*
X26998Y142900D01*
X27998Y145399D02*
Y142900D01*
X28498Y142400D01*
X29498D01*
X29997Y142900D01*
Y145399D01*
X30997Y141900D02*
X32996D01*
X33996Y145399D02*
X35996D01*
X34996D01*
Y142400D01*
X36995Y145399D02*
X38995Y142400D01*
Y145399D02*
X36995Y142400D01*
X39994Y145399D02*
Y142400D01*
X41494D01*
X41993Y142900D01*
Y144899D01*
X41494Y145399D01*
X39994D01*
X279599Y104301D02*
Y105300D01*
Y104800D01*
X277100D01*
X276600Y105300D01*
Y105800D01*
X277100Y106300D01*
X276600Y103301D02*
Y102301D01*
Y102801D01*
X279599D01*
X279099Y103301D01*
X276600Y98802D02*
Y100802D01*
X278599Y98802D01*
X279099D01*
X279599Y99302D01*
Y100302D01*
X279099Y100802D01*
X279599Y94301D02*
Y95300D01*
Y94801D01*
X277100D01*
X276600Y95300D01*
Y95800D01*
X277100Y96300D01*
X276600Y93301D02*
Y92301D01*
Y92801D01*
X279599D01*
X279099Y93301D01*
Y90802D02*
X279599Y90302D01*
Y89302D01*
X279099Y88802D01*
X278599D01*
X278099Y89302D01*
Y89802D01*
Y89302D01*
X277600Y88802D01*
X277100D01*
X276600Y89302D01*
Y90302D01*
X277100Y90802D01*
X21801Y110899D02*
Y109900D01*
Y110399D01*
X24300D01*
X24800Y109900D01*
Y109400D01*
X24300Y108900D01*
X24800Y111899D02*
Y112899D01*
Y112399D01*
X21801D01*
X22301Y111899D01*
X24800Y115898D02*
X21801D01*
X23301Y114398D01*
Y116398D01*
X21801Y100899D02*
Y99900D01*
Y100399D01*
X24300D01*
X24800Y99900D01*
Y99400D01*
X24300Y98900D01*
X24800Y101899D02*
Y102899D01*
Y102399D01*
X21801D01*
X22301Y101899D01*
X21801Y106398D02*
Y104398D01*
X23301D01*
X22801Y105398D01*
Y105898D01*
X23301Y106398D01*
X24300D01*
X24800Y105898D01*
Y104898D01*
X24300Y104398D01*
X256600Y251299D02*
Y249300D01*
X257600Y248300D01*
X258599Y249300D01*
Y251299D01*
X259599D02*
Y248300D01*
X261099D01*
X261598Y248800D01*
Y250799D01*
X261099Y251299D01*
X259599D01*
X262598D02*
Y248300D01*
X264098D01*
X264597Y248800D01*
Y250799D01*
X264098Y251299D01*
X262598D01*
X265597Y247800D02*
X267597D01*
X270596Y250799D02*
X270096Y251299D01*
X269096D01*
X268596Y250799D01*
Y250299D01*
X269096Y249799D01*
X270096D01*
X270596Y249300D01*
Y248800D01*
X270096Y248300D01*
X269096D01*
X268596Y248800D01*
X271595Y251299D02*
Y248300D01*
X273594D01*
X276593Y251299D02*
X274594D01*
Y248300D01*
X276593D01*
X274594Y249799D02*
X275594D01*
X270599Y260499D02*
X270099Y260999D01*
X269100D01*
X268600Y260499D01*
Y258500D01*
X269100Y258000D01*
X270099D01*
X270599Y258500D01*
Y259500D01*
X269600D01*
X271599Y258000D02*
Y260999D01*
X273598Y258000D01*
Y260999D01*
X274598D02*
Y258000D01*
X276098D01*
X276597Y258500D01*
Y260499D01*
X276098Y260999D01*
X274598D01*
X21801Y80899D02*
Y79900D01*
Y80400D01*
X24300D01*
X24800Y79900D01*
Y79400D01*
X24300Y78900D01*
X24800Y81899D02*
Y82899D01*
Y82399D01*
X21801D01*
X22301Y81899D01*
Y84398D02*
X21801Y84898D01*
Y85898D01*
X22301Y86398D01*
X22801D01*
X23301Y85898D01*
X23800Y86398D01*
X24300D01*
X24800Y85898D01*
Y84898D01*
X24300Y84398D01*
X23800D01*
X23301Y84898D01*
X22801Y84398D01*
X22301D01*
X23301Y84898D02*
Y85898D01*
X65292Y233999D02*
X64792Y234499D01*
X63793D01*
X63293Y233999D01*
Y232000D01*
X63793Y231500D01*
X64792D01*
X65292Y232000D01*
Y232999D01*
X64293D01*
X66292Y231500D02*
Y234499D01*
X68291Y231500D01*
Y234499D01*
X69291D02*
Y231500D01*
X70790D01*
X71290Y232000D01*
Y233999D01*
X70790Y234499D01*
X69291D01*
X226293Y217999D02*
Y215000D01*
X227792D01*
X228292Y215500D01*
Y216000D01*
X227792Y216499D01*
X226293D01*
X227792D01*
X228292Y216999D01*
Y217499D01*
X227792Y217999D01*
X226293D01*
X230791D02*
X229792D01*
X229292Y217499D01*
Y215500D01*
X229792Y215000D01*
X230791D01*
X231291Y215500D01*
Y217499D01*
X230791Y217999D01*
X233790D02*
X232791D01*
X232291Y217499D01*
Y215500D01*
X232791Y215000D01*
X233790D01*
X234290Y215500D01*
Y217499D01*
X233790Y217999D01*
X235290D02*
X237289D01*
X236290D01*
Y215000D01*
X258599Y240799D02*
X258100Y241299D01*
X257100D01*
X256600Y240799D01*
Y240299D01*
X257100Y239799D01*
X258100D01*
X258599Y239300D01*
Y238800D01*
X258100Y238300D01*
X257100D01*
X256600Y238800D01*
X259599Y241299D02*
Y238300D01*
X261598D01*
X264597Y241299D02*
X262598D01*
Y238300D01*
X264597D01*
X262598Y239799D02*
X263598D01*
X265597Y237800D02*
X267597D01*
X268596Y238300D02*
Y241299D01*
X270096D01*
X270596Y240799D01*
Y239799D01*
X270096Y239300D01*
X268596D01*
X269596D02*
X270596Y238300D01*
X273594Y240799D02*
X273095Y241299D01*
X272095D01*
X271595Y240799D01*
Y240299D01*
X272095Y239799D01*
X273095D01*
X273594Y239300D01*
Y238800D01*
X273095Y238300D01*
X272095D01*
X271595Y238800D01*
X274594Y241299D02*
X276593D01*
X275594D01*
Y238300D01*
X279599Y84501D02*
Y85500D01*
Y85000D01*
X277100D01*
X276600Y85500D01*
Y86000D01*
X277100Y86500D01*
X276600Y81502D02*
Y83501D01*
X278599Y81502D01*
X279099D01*
X279599Y82002D01*
Y83001D01*
X279099Y83501D01*
X276600Y78503D02*
Y80502D01*
X278599Y78503D01*
X279099D01*
X279599Y79002D01*
Y80002D01*
X279099Y80502D01*
X23999Y134599D02*
X23499Y135099D01*
X22500D01*
X22000Y134599D01*
Y132600D01*
X22500Y132100D01*
X23499D01*
X23999Y132600D01*
Y133599D01*
X23000D01*
X24999Y132100D02*
Y135099D01*
X26998Y132100D01*
Y135099D01*
X27998D02*
Y132100D01*
X29498D01*
X29997Y132600D01*
Y134599D01*
X29498Y135099D01*
X27998D01*
X5392Y33999D02*
X4892Y34499D01*
X3893D01*
X3393Y33999D01*
Y32000D01*
X3893Y31500D01*
X4892D01*
X5392Y32000D01*
Y33000D01*
X4392D01*
X6392Y31500D02*
Y34499D01*
X8391Y31500D01*
Y34499D01*
X9391D02*
Y31500D01*
X10890D01*
X11390Y32000D01*
Y33999D01*
X10890Y34499D01*
X9391D01*
X17700Y14000D02*
Y15999D01*
X18700Y16999D01*
X19699Y15999D01*
Y14000D01*
Y15499D01*
X17700D01*
X20699Y14000D02*
Y16999D01*
X22698Y14000D01*
Y16999D01*
X23698D02*
X25697D01*
X24698D01*
Y14000D01*
X19699Y6499D02*
X19199Y6999D01*
X18200D01*
X17700Y6499D01*
Y4500D01*
X18200Y4000D01*
X19199D01*
X19699Y4500D01*
Y5500D01*
X18700D01*
X20699Y4000D02*
Y6999D01*
X22698Y4000D01*
Y6999D01*
X23698D02*
Y4000D01*
X25198D01*
X25697Y4500D01*
Y6499D01*
X25198Y6999D01*
X23698D01*
X34000Y26500D02*
Y29499D01*
X35500D01*
X35999Y28999D01*
Y27999D01*
X35500Y27500D01*
X34000D01*
X36999Y26500D02*
X37999D01*
X37499D01*
Y29499D01*
X36999Y28999D01*
M02*
