G04*
G04 #@! TF.GenerationSoftware,Altium Limited,Altium Designer,18.1.8 (232)*
G04*
G04 Layer_Color=16711935*
%FSLAX25Y25*%
%MOIN*%
G70*
G01*
G75*
%ADD13C,0.00500*%
D13*
X-19685Y529000D02*
X-0Y529000D01*
X-19685Y529000D02*
X-19685Y0D01*
X0Y0D01*
X-0Y529000D02*
X0Y0D01*
X595000Y-0D02*
X595000Y529000D01*
X595000Y-0D02*
X614685Y0D01*
X614685Y529000D01*
X595000Y529000D02*
X614685Y529000D01*
X297500Y529000D02*
X595000Y529000D01*
X595000Y330500D02*
X595000Y529000D01*
X350500Y330500D02*
X595000Y330500D01*
X350500Y264500D02*
X350500Y330500D01*
X297500Y264500D02*
X350500Y264500D01*
X297500Y264500D02*
Y529000D01*
X0Y529000D02*
X297500Y529000D01*
X297500Y330500D02*
X297500Y529000D01*
X53000Y330500D02*
X297500Y330500D01*
X53000Y264500D02*
X53000Y330500D01*
X0Y264500D02*
X53000Y264500D01*
X0Y264500D02*
Y529000D01*
X297500Y264500D02*
X595000Y264500D01*
X595000Y66000D02*
X595000Y264500D01*
X350500Y66000D02*
X595000Y66000D01*
X350500Y0D02*
X350500Y66000D01*
X297500Y0D02*
X350500Y0D01*
X297500Y0D02*
Y264500D01*
X0Y0D02*
Y264500D01*
Y0D02*
X53000Y0D01*
X53000Y66000D01*
X297500Y66000D01*
X297500Y264500D01*
X0Y264500D02*
X297500Y264500D01*
M02*
