M48
;Layer_Color=9474304
;FILE_FORMAT=2:5
INCH,TZ
;TYPE=PLATED
T1F00S00C0.01200
T2F00S00C0.03543
T3F00S00C0.03937
T4F00S00C0.04134
T5F00S00C0.04331
T6F00S00C0.04724
%
T01
X29479Y204200
X86279Y203900
X110679Y206400
X123079Y195900
X120579Y178400
X133679Y180000
X130779Y166700
X139279Y154300
X140079Y137000
X141279Y119900
X124279Y120800
X128779Y129300
X141379Y198300
X150879Y197600
X160979Y198800
X180679Y205300
X186879Y190300
X197679Y188300
X200279Y202500
X201679Y163300
X186379Y171800
X183279Y154000
X192879Y210700
X187779Y224900
X175879Y220300
X152879Y223500
X139279Y220600
X111179Y223500
X94779Y212100
X80879Y224000
X55579Y226000
X40879Y225200
X29479Y221800
X28079Y211800
T02
X166979Y210000
X156979
T03
X160079Y21600
Y41600
X161379Y105457
Y125143
X152637Y145600
Y161500
X52379Y209700
X42379
X172322Y161500
Y145600
T04
X152179Y176100
Y186100
X162179
Y176100
X172179
Y186100
T05
X72197Y77034
X45479Y105500
Y125500
X125479Y105500
Y145500
X144765Y209900
X67993
X148969Y77034
T06
X40279Y34540
Y64060
M30
