G04 Layer_Color=65535*
%FSLAX25Y25*%
%MOIN*%
G70*
G01*
G75*
%ADD22C,0.01000*%
%ADD23C,0.02000*%
G36*
X83048Y179313D02*
X83982D01*
Y178647D01*
X83048D01*
Y177167D01*
X82308D01*
Y178647D01*
X79301D01*
Y179313D01*
X82465Y183873D01*
X83048D01*
Y179313D01*
D02*
G37*
G36*
X48506Y191475D02*
X46009D01*
Y191465D01*
X45999Y191428D01*
X45990Y191373D01*
X45972Y191299D01*
X45962Y191216D01*
X45935Y191105D01*
X45916Y190994D01*
X45888Y190873D01*
X45833Y190605D01*
X45759Y190318D01*
X45694Y190041D01*
X45657Y189911D01*
X45620Y189791D01*
X45629D01*
X45648Y189800D01*
X45676Y189819D01*
X45722Y189837D01*
X45768Y189856D01*
X45833Y189874D01*
X45972Y189930D01*
X46147Y189976D01*
X46323Y190022D01*
X46517Y190041D01*
X46712Y190050D01*
X46758D01*
X46795Y190041D01*
X46897Y190032D01*
X47026Y190013D01*
X47174Y189985D01*
X47341Y189939D01*
X47507Y189884D01*
X47683Y189810D01*
X47692D01*
X47701Y189800D01*
X47757Y189773D01*
X47840Y189726D01*
X47942Y189662D01*
X48062Y189578D01*
X48173Y189477D01*
X48275Y189356D01*
X48367Y189227D01*
X48377Y189208D01*
X48404Y189162D01*
X48441Y189088D01*
X48488Y188996D01*
X48534Y188885D01*
X48589Y188755D01*
X48636Y188626D01*
X48673Y188487D01*
X48682Y188468D01*
X48691Y188422D01*
X48700Y188348D01*
X48719Y188246D01*
X48737Y188126D01*
X48747Y187987D01*
X48756Y187839D01*
Y187682D01*
Y187664D01*
X48747Y187608D01*
Y187525D01*
X48728Y187414D01*
X48710Y187284D01*
X48673Y187136D01*
X48636Y186970D01*
X48580Y186803D01*
Y186794D01*
X48571Y186785D01*
X48552Y186729D01*
X48515Y186646D01*
X48460Y186544D01*
X48395Y186424D01*
X48312Y186304D01*
X48219Y186184D01*
X48108Y186063D01*
X48099Y186054D01*
X48053Y186017D01*
X47988Y185962D01*
X47896Y185897D01*
X47794Y185823D01*
X47664Y185749D01*
X47516Y185675D01*
X47350Y185601D01*
X47341D01*
X47331Y185592D01*
X47304Y185582D01*
X47276Y185573D01*
X47174Y185545D01*
X47054Y185518D01*
X46906Y185490D01*
X46730Y185471D01*
X46527Y185462D01*
X46286D01*
X46258Y185471D01*
X46212D01*
X46166Y185481D01*
X46101Y185499D01*
X45953Y185527D01*
X45787Y185582D01*
X45602Y185656D01*
X45407Y185758D01*
X45204Y185888D01*
X45195Y185897D01*
X45185Y185906D01*
X45158Y185934D01*
X45121Y185962D01*
X45074Y186008D01*
X45028Y186063D01*
X44973Y186128D01*
X44917Y186202D01*
X44852Y186295D01*
X44797Y186387D01*
X44732Y186498D01*
X44677Y186618D01*
X44621Y186748D01*
X44566Y186896D01*
X44519Y187053D01*
X44482Y187220D01*
X45185Y187414D01*
Y187405D01*
X45195Y187368D01*
X45213Y187312D01*
X45241Y187247D01*
X45269Y187164D01*
X45306Y187072D01*
X45407Y186868D01*
X45537Y186665D01*
X45611Y186563D01*
X45694Y186470D01*
X45787Y186396D01*
X45888Y186322D01*
X45999Y186276D01*
X46120Y186239D01*
X46147D01*
X46184Y186230D01*
X46231D01*
X46286Y186221D01*
X46351D01*
X46508Y186211D01*
X46675Y186221D01*
X46850Y186248D01*
X47026Y186304D01*
X47193Y186378D01*
X47202D01*
X47211Y186387D01*
X47257Y186424D01*
X47331Y186480D01*
X47424Y186563D01*
X47516Y186655D01*
X47618Y186766D01*
X47711Y186896D01*
X47785Y187044D01*
Y187053D01*
X47794Y187062D01*
X47812Y187118D01*
X47840Y187201D01*
X47868Y187312D01*
X47905Y187451D01*
X47923Y187599D01*
X47942Y187775D01*
Y187960D01*
Y187969D01*
Y187978D01*
Y188006D01*
X47933Y188043D01*
X47923Y188135D01*
X47905Y188256D01*
X47868Y188394D01*
X47822Y188533D01*
X47748Y188681D01*
X47664Y188820D01*
X47655Y188838D01*
X47618Y188875D01*
X47563Y188940D01*
X47489Y189014D01*
X47396Y189088D01*
X47285Y189162D01*
X47156Y189227D01*
X47017Y189282D01*
X46998Y189292D01*
X46952Y189301D01*
X46869Y189310D01*
X46758Y189329D01*
X46628Y189338D01*
X46480D01*
X46314Y189319D01*
X46138Y189282D01*
X46129D01*
X46120Y189273D01*
X46092D01*
X46055Y189255D01*
X45972Y189227D01*
X45861Y189171D01*
X45731Y189107D01*
X45602Y189014D01*
X45463Y188894D01*
X45343Y188746D01*
X44677Y188820D01*
X44686Y188838D01*
Y188866D01*
X44704Y188903D01*
X44714Y188968D01*
X44741Y189060D01*
X44769Y189181D01*
X44806Y189329D01*
X44825Y189412D01*
X44843Y189514D01*
X44871Y189625D01*
X44899Y189745D01*
X44926Y189874D01*
X44954Y190013D01*
X44991Y190170D01*
X45028Y190337D01*
X45065Y190513D01*
X45111Y190707D01*
X45158Y190910D01*
X45204Y191132D01*
X45250Y191373D01*
X45306Y191623D01*
X45361Y191891D01*
X45426Y192178D01*
X48506D01*
Y191475D01*
D02*
G37*
G36*
X62041Y183864D02*
X62244Y183836D01*
X62457Y183781D01*
X62661Y183697D01*
X62670D01*
X62688Y183688D01*
X62707Y183670D01*
X62744Y183651D01*
X62836Y183587D01*
X62947Y183503D01*
X63077Y183402D01*
X63197Y183263D01*
X63308Y183106D01*
X63401Y182921D01*
Y182911D01*
X63410Y182893D01*
X63419Y182865D01*
X63428Y182828D01*
X63447Y182782D01*
X63456Y182717D01*
X63484Y182578D01*
X63512Y182403D01*
Y182208D01*
X63502Y181995D01*
X63456Y181764D01*
Y181755D01*
X63447Y181737D01*
X63437Y181709D01*
X63419Y181662D01*
X63401Y181607D01*
X63363Y181542D01*
X63289Y181394D01*
X63234Y181311D01*
X63169Y181228D01*
X63095Y181135D01*
X63012Y181043D01*
X62920Y180950D01*
X62809Y180858D01*
X62688Y180774D01*
X62559Y180682D01*
X62568D01*
X62586Y180673D01*
X62614Y180654D01*
X62651Y180636D01*
X62744Y180580D01*
X62873Y180506D01*
X63003Y180404D01*
X63142Y180284D01*
X63280Y180136D01*
X63401Y179970D01*
Y179961D01*
X63410Y179951D01*
X63428Y179923D01*
X63447Y179886D01*
X63465Y179840D01*
X63493Y179785D01*
X63512Y179720D01*
X63539Y179646D01*
X63576Y179470D01*
X63604Y179258D01*
X63613Y179017D01*
Y178878D01*
X63595Y178740D01*
Y178730D01*
X63586Y178702D01*
Y178665D01*
X63567Y178610D01*
X63558Y178545D01*
X63530Y178471D01*
X63475Y178305D01*
X63391Y178111D01*
X63336Y177999D01*
X63271Y177898D01*
X63197Y177796D01*
X63114Y177694D01*
X63012Y177602D01*
X62910Y177509D01*
X62901Y177500D01*
X62883Y177491D01*
X62855Y177463D01*
X62809Y177435D01*
X62753Y177398D01*
X62688Y177361D01*
X62614Y177324D01*
X62531Y177278D01*
X62327Y177195D01*
X62106Y177130D01*
X61856Y177084D01*
X61726Y177065D01*
X61550D01*
X61514Y177075D01*
X61467D01*
X61402Y177084D01*
X61329Y177093D01*
X61153Y177130D01*
X60949Y177185D01*
X60737Y177269D01*
X60514Y177380D01*
X60404Y177454D01*
X60302Y177528D01*
X60293Y177537D01*
X60274Y177546D01*
X60246Y177574D01*
X60219Y177611D01*
X60172Y177657D01*
X60117Y177713D01*
X60071Y177787D01*
X60006Y177861D01*
X59950Y177953D01*
X59895Y178046D01*
X59830Y178157D01*
X59775Y178277D01*
X59719Y178397D01*
X59673Y178536D01*
X59636Y178684D01*
X59599Y178841D01*
X60302Y178962D01*
Y178952D01*
X60311Y178943D01*
X60320Y178915D01*
X60330Y178878D01*
X60366Y178786D01*
X60422Y178665D01*
X60496Y178536D01*
X60579Y178388D01*
X60681Y178249D01*
X60801Y178120D01*
X60820Y178101D01*
X60866Y178064D01*
X60940Y178018D01*
X61042Y177953D01*
X61171Y177898D01*
X61319Y177851D01*
X61495Y177814D01*
X61680Y177805D01*
X61708D01*
X61736Y177814D01*
X61763D01*
X61865Y177833D01*
X61985Y177870D01*
X62115Y177926D01*
X62253Y177999D01*
X62392Y178101D01*
X62522Y178240D01*
Y178249D01*
X62531Y178259D01*
X62568Y178314D01*
X62624Y178397D01*
X62670Y178508D01*
X62725Y178647D01*
X62772Y178804D01*
X62790Y178980D01*
Y179174D01*
Y179183D01*
Y179202D01*
X62781Y179220D01*
Y179258D01*
X62762Y179359D01*
X62725Y179470D01*
X62679Y179609D01*
X62605Y179738D01*
X62503Y179868D01*
X62383Y179988D01*
X62365Y179998D01*
X62309Y180034D01*
X62272Y180062D01*
X62226Y180090D01*
X62161Y180118D01*
X62096Y180155D01*
X62022Y180183D01*
X61930Y180219D01*
X61837Y180256D01*
X61726Y180294D01*
X61615Y180321D01*
X61486Y180349D01*
X61347Y180377D01*
X61199Y180404D01*
Y180913D01*
X61236D01*
X61273Y180922D01*
X61329Y180932D01*
X61402Y180941D01*
X61476Y180959D01*
X61652Y180997D01*
X61847Y181052D01*
X62041Y181126D01*
X62226Y181219D01*
X62309Y181274D01*
X62383Y181339D01*
X62401Y181357D01*
X62438Y181404D01*
X62494Y181477D01*
X62568Y181588D01*
X62624Y181718D01*
X62679Y181875D01*
X62716Y182051D01*
Y182153D01*
Y182255D01*
Y182264D01*
Y182282D01*
X62707Y182310D01*
Y182347D01*
X62679Y182449D01*
X62642Y182569D01*
X62577Y182708D01*
X62485Y182846D01*
X62365Y182967D01*
X62291Y183031D01*
X62207Y183078D01*
X62198D01*
X62189Y183087D01*
X62161Y183096D01*
X62124Y183115D01*
X62032Y183142D01*
X61911Y183179D01*
X61763Y183198D01*
X61597Y183207D01*
X61412Y183189D01*
X61319Y183161D01*
X61218Y183133D01*
X61208D01*
X61199Y183124D01*
X61171Y183106D01*
X61134Y183087D01*
X61033Y183022D01*
X60977Y182976D01*
X60912Y182921D01*
X60848Y182856D01*
X60783Y182782D01*
X60709Y182689D01*
X60644Y182588D01*
X60570Y182476D01*
X60505Y182347D01*
X60440Y182199D01*
X60376Y182042D01*
X59673Y182162D01*
Y182171D01*
X59682Y182190D01*
X59701Y182227D01*
X59719Y182282D01*
X59737Y182338D01*
X59765Y182412D01*
X59839Y182569D01*
X59932Y182754D01*
X60043Y182948D01*
X60163Y183142D01*
X60311Y183327D01*
X60320Y183337D01*
X60330Y183346D01*
X60357Y183374D01*
X60385Y183402D01*
X60478Y183485D01*
X60607Y183577D01*
X60764Y183670D01*
X60959Y183753D01*
X61181Y183827D01*
X61301Y183855D01*
X61430Y183873D01*
X61458D01*
X61495Y183882D01*
X61847D01*
X62041Y183864D01*
D02*
G37*
G36*
X106864Y189985D02*
X106938D01*
X107022Y189976D01*
X107207Y189948D01*
X107419Y189902D01*
X107632Y189828D01*
X107836Y189726D01*
X107928Y189671D01*
X108011Y189597D01*
X108021D01*
X108030Y189578D01*
X108076Y189523D01*
X108150Y189440D01*
X108233Y189319D01*
X108307Y189162D01*
X108381Y188977D01*
X108428Y188755D01*
X108446Y188635D01*
Y188505D01*
Y186359D01*
Y186350D01*
Y186322D01*
Y186276D01*
X108455Y186221D01*
X108474Y186082D01*
X108520Y185934D01*
Y185925D01*
X108539Y185897D01*
X108557Y185860D01*
X108585Y185814D01*
X108659Y185684D01*
X108761Y185545D01*
X107817D01*
X107808Y185564D01*
X107780Y185601D01*
X107743Y185666D01*
X107706Y185758D01*
Y185767D01*
X107697Y185786D01*
Y185814D01*
X107688Y185851D01*
X107678Y185962D01*
X107669Y186091D01*
X107660Y186082D01*
X107623Y186036D01*
X107558Y185980D01*
X107484Y185915D01*
X107382Y185841D01*
X107271Y185758D01*
X107142Y185684D01*
X107003Y185619D01*
X106985Y185610D01*
X106938Y185592D01*
X106855Y185573D01*
X106753Y185545D01*
X106633Y185508D01*
X106494Y185490D01*
X106337Y185471D01*
X106180Y185462D01*
X106124D01*
X106078Y185471D01*
X106023D01*
X105958Y185481D01*
X105819Y185499D01*
X105653Y185536D01*
X105477Y185592D01*
X105292Y185675D01*
X105125Y185777D01*
X105107Y185795D01*
X105061Y185832D01*
X104987Y185906D01*
X104913Y186008D01*
X104839Y186137D01*
X104765Y186285D01*
X104718Y186470D01*
X104709Y186572D01*
X104700Y186674D01*
Y186683D01*
Y186702D01*
Y186729D01*
X104709Y186766D01*
X104718Y186877D01*
X104746Y187007D01*
X104792Y187155D01*
X104866Y187312D01*
X104959Y187469D01*
X105088Y187608D01*
X105107Y187627D01*
X105125Y187645D01*
X105162Y187664D01*
X105199Y187691D01*
X105255Y187728D01*
X105320Y187765D01*
X105384Y187802D01*
X105468Y187839D01*
X105551Y187876D01*
X105653Y187913D01*
X105764Y187960D01*
X105884Y187987D01*
X106013Y188024D01*
X106152Y188052D01*
X106300Y188080D01*
X106328D01*
X106356Y188089D01*
X106393D01*
X106494Y188108D01*
X106624Y188135D01*
X106772Y188163D01*
X106929Y188191D01*
X107096Y188228D01*
X107253Y188274D01*
X107262D01*
X107271Y188283D01*
X107318Y188293D01*
X107382Y188320D01*
X107466Y188357D01*
X107540Y188404D01*
X107604Y188459D01*
X107651Y188524D01*
X107669Y188552D01*
Y188589D01*
Y188598D01*
Y188626D01*
X107660Y188672D01*
X107651Y188737D01*
X107623Y188801D01*
X107595Y188885D01*
X107549Y188968D01*
X107493Y189051D01*
X107484Y189060D01*
X107456Y189088D01*
X107410Y189125D01*
X107336Y189171D01*
X107225Y189218D01*
X107096Y189255D01*
X106929Y189282D01*
X106837Y189292D01*
X106652D01*
X106568Y189282D01*
X106467Y189273D01*
X106356Y189245D01*
X106245Y189218D01*
X106134Y189171D01*
X106041Y189116D01*
X106032Y189107D01*
X106004Y189088D01*
X105967Y189042D01*
X105930Y188986D01*
X105875Y188922D01*
X105828Y188838D01*
X105791Y188737D01*
X105754Y188626D01*
X104894D01*
Y188635D01*
Y188653D01*
X104903Y188681D01*
X104913Y188727D01*
X104931Y188783D01*
X104940Y188838D01*
X104996Y188986D01*
X105061Y189144D01*
X105162Y189301D01*
X105292Y189467D01*
X105375Y189541D01*
X105458Y189615D01*
X105468D01*
X105477Y189634D01*
X105505Y189652D01*
X105551Y189671D01*
X105597Y189708D01*
X105653Y189736D01*
X105727Y189773D01*
X105801Y189810D01*
X105986Y189874D01*
X106198Y189939D01*
X106448Y189976D01*
X106726Y189995D01*
X106809D01*
X106864Y189985D01*
D02*
G37*
G36*
X121951Y192205D02*
X122034Y192196D01*
X122127Y192187D01*
X122238Y192168D01*
X122349Y192150D01*
X122589Y192085D01*
X122719Y192039D01*
X122848Y191983D01*
X122969Y191919D01*
X123089Y191854D01*
X123200Y191761D01*
X123311Y191669D01*
X123320Y191660D01*
X123339Y191641D01*
X123357Y191613D01*
X123394Y191567D01*
X123440Y191512D01*
X123487Y191447D01*
X123533Y191373D01*
X123588Y191280D01*
X123635Y191179D01*
X123681Y191068D01*
X123727Y190947D01*
X123773Y190818D01*
X123810Y190670D01*
X123829Y190522D01*
X123847Y190355D01*
X123857Y190189D01*
Y190180D01*
Y190152D01*
Y190096D01*
X123847Y190032D01*
X123838Y189958D01*
X123829Y189865D01*
X123810Y189763D01*
X123792Y189652D01*
X123727Y189412D01*
X123681Y189292D01*
X123625Y189162D01*
X123561Y189042D01*
X123496Y188922D01*
X123403Y188811D01*
X123311Y188700D01*
X123302Y188690D01*
X123283Y188672D01*
X123255Y188653D01*
X123209Y188616D01*
X123154Y188570D01*
X123089Y188524D01*
X123006Y188478D01*
X122913Y188431D01*
X122811Y188376D01*
X122700Y188330D01*
X122580Y188283D01*
X122441Y188237D01*
X122293Y188200D01*
X122136Y188182D01*
X121970Y188163D01*
X121794Y188154D01*
X120656D01*
Y185545D01*
X119759D01*
Y192215D01*
X121886D01*
X121951Y192205D01*
D02*
G37*
G36*
X56935Y183920D02*
X57055Y183910D01*
X57175Y183892D01*
X57194D01*
X57231Y183882D01*
X57296Y183864D01*
X57379Y183836D01*
X57471Y183799D01*
X57582Y183753D01*
X57702Y183697D01*
X57823Y183624D01*
X57841Y183614D01*
X57878Y183587D01*
X57943Y183531D01*
X58017Y183466D01*
X58100Y183374D01*
X58193Y183263D01*
X58285Y183133D01*
X58369Y182976D01*
Y182967D01*
X58378Y182957D01*
X58387Y182930D01*
X58406Y182902D01*
X58433Y182809D01*
X58470Y182689D01*
X58498Y182532D01*
X58517Y182356D01*
X58526Y182162D01*
X58517Y181940D01*
Y181931D01*
Y181912D01*
X58507Y181875D01*
X58498Y181829D01*
X58489Y181773D01*
X58470Y181709D01*
X58452Y181625D01*
X58424Y181533D01*
X58387Y181431D01*
X58350Y181320D01*
X58239Y181080D01*
X58174Y180941D01*
X58100Y180802D01*
X58008Y180654D01*
X57915Y180497D01*
X57906Y180488D01*
X57888Y180460D01*
X57850Y180404D01*
X57804Y180340D01*
X57740Y180247D01*
X57656Y180136D01*
X57564Y180007D01*
X57444Y179859D01*
X57314Y179683D01*
X57157Y179489D01*
X56990Y179276D01*
X56796Y179035D01*
X56583Y178777D01*
X56343Y178499D01*
X56084Y178194D01*
X55806Y177870D01*
X58618D01*
Y177167D01*
X54678D01*
Y177324D01*
Y177333D01*
Y177352D01*
X54687Y177380D01*
X54696Y177426D01*
X54706Y177472D01*
X54715Y177537D01*
X54761Y177676D01*
X54826Y177833D01*
X54927Y178009D01*
X54983Y178101D01*
X55057Y178194D01*
X55131Y178286D01*
X55224Y178369D01*
X55233Y178379D01*
X55251Y178388D01*
X55279Y178416D01*
X55316Y178462D01*
X55362Y178508D01*
X55427Y178573D01*
X55492Y178647D01*
X55575Y178730D01*
X55668Y178823D01*
X55760Y178934D01*
X55871Y179054D01*
X55982Y179183D01*
X56102Y179332D01*
X56232Y179489D01*
X56371Y179655D01*
X56509Y179831D01*
X56519Y179840D01*
X56546Y179877D01*
X56583Y179923D01*
X56639Y179998D01*
X56704Y180081D01*
X56768Y180173D01*
X56852Y180284D01*
X56935Y180395D01*
X57101Y180645D01*
X57268Y180904D01*
X57416Y181154D01*
X57481Y181265D01*
X57527Y181376D01*
Y181385D01*
X57536Y181404D01*
X57545Y181431D01*
X57564Y181468D01*
X57601Y181570D01*
X57638Y181700D01*
X57675Y181848D01*
X57702Y182005D01*
X57712Y182171D01*
X57702Y182319D01*
Y182338D01*
X57693Y182384D01*
X57665Y182458D01*
X57638Y182541D01*
X57591Y182643D01*
X57527Y182754D01*
X57444Y182856D01*
X57333Y182957D01*
X57314Y182967D01*
X57277Y182994D01*
X57212Y183041D01*
X57129Y183078D01*
X57018Y183124D01*
X56898Y183161D01*
X56759Y183170D01*
X56593D01*
X56546Y183161D01*
X56463Y183142D01*
X56361Y183115D01*
X56241Y183078D01*
X56112Y183022D01*
X55973Y182948D01*
X55834Y182856D01*
X55816Y182846D01*
X55769Y182809D01*
X55704Y182745D01*
X55621Y182652D01*
X55529Y182541D01*
X55436Y182403D01*
X55344Y182236D01*
X55261Y182042D01*
X54521Y182162D01*
Y182171D01*
X54539Y182199D01*
X54558Y182245D01*
X54576Y182310D01*
X54613Y182384D01*
X54650Y182467D01*
X54743Y182661D01*
X54853Y182874D01*
X54992Y183087D01*
X55140Y183291D01*
X55224Y183383D01*
X55316Y183466D01*
X55325Y183475D01*
X55335Y183485D01*
X55362Y183503D01*
X55399Y183531D01*
X55455Y183559D01*
X55510Y183596D01*
X55649Y183679D01*
X55816Y183753D01*
X56010Y183827D01*
X56232Y183882D01*
X56472Y183920D01*
X56491D01*
X56537Y183929D01*
X56814D01*
X56935Y183920D01*
D02*
G37*
G36*
X46945D02*
X47065Y183910D01*
X47185Y183892D01*
X47204D01*
X47241Y183882D01*
X47306Y183864D01*
X47389Y183836D01*
X47481Y183799D01*
X47592Y183753D01*
X47712Y183697D01*
X47833Y183624D01*
X47851Y183614D01*
X47888Y183587D01*
X47953Y183531D01*
X48027Y183466D01*
X48110Y183374D01*
X48203Y183263D01*
X48295Y183133D01*
X48379Y182976D01*
Y182967D01*
X48388Y182957D01*
X48397Y182930D01*
X48416Y182902D01*
X48443Y182809D01*
X48480Y182689D01*
X48508Y182532D01*
X48526Y182356D01*
X48536Y182162D01*
X48526Y181940D01*
Y181931D01*
Y181912D01*
X48517Y181875D01*
X48508Y181829D01*
X48499Y181773D01*
X48480Y181709D01*
X48462Y181625D01*
X48434Y181533D01*
X48397Y181431D01*
X48360Y181320D01*
X48249Y181080D01*
X48184Y180941D01*
X48110Y180802D01*
X48018Y180654D01*
X47925Y180497D01*
X47916Y180488D01*
X47898Y180460D01*
X47861Y180404D01*
X47814Y180340D01*
X47750Y180247D01*
X47666Y180136D01*
X47574Y180007D01*
X47454Y179859D01*
X47324Y179683D01*
X47167Y179489D01*
X47000Y179276D01*
X46806Y179035D01*
X46593Y178777D01*
X46353Y178499D01*
X46094Y178194D01*
X45816Y177870D01*
X48628D01*
Y177167D01*
X44688D01*
Y177324D01*
Y177333D01*
Y177352D01*
X44697Y177380D01*
X44706Y177426D01*
X44716Y177472D01*
X44725Y177537D01*
X44771Y177676D01*
X44836Y177833D01*
X44938Y178009D01*
X44993Y178101D01*
X45067Y178194D01*
X45141Y178286D01*
X45234Y178369D01*
X45243Y178379D01*
X45261Y178388D01*
X45289Y178416D01*
X45326Y178462D01*
X45372Y178508D01*
X45437Y178573D01*
X45502Y178647D01*
X45585Y178730D01*
X45678Y178823D01*
X45770Y178934D01*
X45881Y179054D01*
X45992Y179183D01*
X46112Y179332D01*
X46242Y179489D01*
X46380Y179655D01*
X46519Y179831D01*
X46529Y179840D01*
X46556Y179877D01*
X46593Y179923D01*
X46649Y179998D01*
X46714Y180081D01*
X46778Y180173D01*
X46861Y180284D01*
X46945Y180395D01*
X47111Y180645D01*
X47278Y180904D01*
X47426Y181154D01*
X47491Y181265D01*
X47537Y181376D01*
Y181385D01*
X47546Y181404D01*
X47555Y181431D01*
X47574Y181468D01*
X47611Y181570D01*
X47648Y181700D01*
X47685Y181848D01*
X47712Y182005D01*
X47722Y182171D01*
X47712Y182319D01*
Y182338D01*
X47703Y182384D01*
X47675Y182458D01*
X47648Y182541D01*
X47602Y182643D01*
X47537Y182754D01*
X47454Y182856D01*
X47343Y182957D01*
X47324Y182967D01*
X47287Y182994D01*
X47222Y183041D01*
X47139Y183078D01*
X47028Y183124D01*
X46908Y183161D01*
X46769Y183170D01*
X46603D01*
X46556Y183161D01*
X46473Y183142D01*
X46371Y183115D01*
X46251Y183078D01*
X46122Y183022D01*
X45983Y182948D01*
X45844Y182856D01*
X45825Y182846D01*
X45779Y182809D01*
X45715Y182745D01*
X45631Y182652D01*
X45539Y182541D01*
X45446Y182403D01*
X45354Y182236D01*
X45270Y182042D01*
X44530Y182162D01*
Y182171D01*
X44549Y182199D01*
X44567Y182245D01*
X44586Y182310D01*
X44623Y182384D01*
X44660Y182467D01*
X44753Y182661D01*
X44864Y182874D01*
X45002Y183087D01*
X45150Y183291D01*
X45234Y183383D01*
X45326Y183466D01*
X45335Y183475D01*
X45344Y183485D01*
X45372Y183503D01*
X45409Y183531D01*
X45465Y183559D01*
X45520Y183596D01*
X45659Y183679D01*
X45825Y183753D01*
X46020Y183827D01*
X46242Y183882D01*
X46482Y183920D01*
X46501D01*
X46547Y183929D01*
X46824D01*
X46945Y183920D01*
D02*
G37*
G36*
X103220Y185462D02*
X102434D01*
X101731Y190457D01*
X101657D01*
X100954Y185462D01*
X100177D01*
X99316Y192215D01*
X100177D01*
X100602Y187960D01*
X100676D01*
X101268Y192215D01*
X102119D01*
X102711Y187960D01*
X102785D01*
X103220Y192215D01*
X104071D01*
X103220Y185462D01*
D02*
G37*
G36*
X111998Y185203D02*
Y185194D01*
X111989Y185175D01*
X111980Y185148D01*
X111970Y185111D01*
X111933Y185018D01*
X111878Y184898D01*
X111813Y184759D01*
X111730Y184630D01*
X111637Y184491D01*
X111526Y184380D01*
X111508Y184371D01*
X111471Y184334D01*
X111406Y184297D01*
X111314Y184241D01*
X111203Y184195D01*
X111064Y184149D01*
X110916Y184112D01*
X110749Y184102D01*
X110629D01*
X110509Y184112D01*
X110379Y184130D01*
X110352D01*
X110315Y184139D01*
X110268Y184149D01*
X110167Y184176D01*
X110046Y184223D01*
Y185009D01*
X110056D01*
X110074Y185000D01*
X110102Y184981D01*
X110148Y184963D01*
X110250Y184926D01*
X110361Y184889D01*
X110370D01*
X110389Y184879D01*
X110416D01*
X110453Y184870D01*
X110537Y184861D01*
X110629Y184852D01*
X110685D01*
X110731Y184861D01*
X110805D01*
X110944Y184898D01*
X111008Y184916D01*
X111055Y184953D01*
X111064Y184963D01*
X111073Y184972D01*
X111101Y185000D01*
X111129Y185046D01*
X111166Y185101D01*
X111203Y185175D01*
X111249Y185268D01*
X111295Y185388D01*
X109575Y189911D01*
X110435D01*
X111684Y186480D01*
X111721D01*
X112932Y189911D01*
X113793D01*
X111998Y185203D01*
D02*
G37*
G36*
X133070Y185462D02*
X132330D01*
X131701Y188857D01*
X131627D01*
X130998Y185462D01*
X130258D01*
X129286Y189911D01*
X130100D01*
X130609Y186988D01*
X130692D01*
X131238Y189911D01*
X132089D01*
X132644Y186988D01*
X132718D01*
X133227Y189911D01*
X134041D01*
X133070Y185462D01*
D02*
G37*
G36*
X91667Y189911D02*
X93267D01*
Y189292D01*
X91667D01*
Y186905D01*
Y186896D01*
Y186859D01*
X91676Y186794D01*
X91685Y186729D01*
X91704Y186646D01*
X91731Y186554D01*
X91768Y186461D01*
X91824Y186378D01*
X91833Y186369D01*
X91852Y186341D01*
X91898Y186313D01*
X91953Y186276D01*
X92037Y186230D01*
X92138Y186202D01*
X92259Y186174D01*
X92407Y186165D01*
X92555D01*
X92656Y186174D01*
X92767Y186184D01*
X92878Y186193D01*
X92989Y186211D01*
X93100Y186239D01*
X93110D01*
X93147Y186258D01*
X93202Y186276D01*
X93267Y186295D01*
X93341Y186322D01*
X93424Y186359D01*
X93581Y186443D01*
Y185656D01*
X93572D01*
X93544Y185647D01*
X93507Y185629D01*
X93452Y185610D01*
X93378Y185592D01*
X93304Y185564D01*
X93128Y185518D01*
X93119D01*
X93082Y185508D01*
X93026Y185499D01*
X92952Y185490D01*
X92851Y185481D01*
X92730Y185471D01*
X92601Y185462D01*
X92379D01*
X92323Y185471D01*
X92268D01*
X92203Y185481D01*
X92037Y185508D01*
X91861Y185555D01*
X91667Y185629D01*
X91482Y185721D01*
X91306Y185851D01*
Y185860D01*
X91287Y185869D01*
X91241Y185925D01*
X91167Y186017D01*
X91093Y186137D01*
X91019Y186295D01*
X90945Y186480D01*
X90899Y186692D01*
X90890Y186813D01*
X90880Y186942D01*
Y189292D01*
X89558D01*
Y189911D01*
X90880D01*
Y191438D01*
X91667D01*
Y189911D01*
D02*
G37*
G36*
X96958Y189985D02*
X97022Y189976D01*
X97106Y189967D01*
X97198Y189948D01*
X97291Y189930D01*
X97503Y189865D01*
X97614Y189828D01*
X97725Y189773D01*
X97836Y189708D01*
X97947Y189643D01*
X98058Y189560D01*
X98160Y189467D01*
X98169Y189458D01*
X98179Y189440D01*
X98206Y189412D01*
X98243Y189366D01*
X98280Y189310D01*
X98327Y189236D01*
X98373Y189153D01*
X98428Y189051D01*
X98475Y188940D01*
X98521Y188811D01*
X98567Y188672D01*
X98604Y188515D01*
X98641Y188339D01*
X98669Y188154D01*
X98678Y187950D01*
X98687Y187728D01*
X95533D01*
Y187719D01*
Y187691D01*
Y187645D01*
X95542Y187590D01*
Y187516D01*
X95552Y187442D01*
X95579Y187257D01*
X95626Y187053D01*
X95690Y186859D01*
X95783Y186674D01*
X95838Y186591D01*
X95903Y186517D01*
X95922Y186498D01*
X95968Y186461D01*
X96051Y186406D01*
X96153Y186341D01*
X96292Y186276D01*
X96449Y186221D01*
X96625Y186184D01*
X96819Y186165D01*
X96893D01*
X96967Y186174D01*
X97069Y186193D01*
X97180Y186221D01*
X97291Y186258D01*
X97402Y186304D01*
X97513Y186378D01*
X97522Y186387D01*
X97559Y186424D01*
X97605Y186470D01*
X97661Y186544D01*
X97725Y186637D01*
X97781Y186748D01*
X97836Y186877D01*
X97873Y187025D01*
X98724D01*
Y187016D01*
Y186998D01*
X98715Y186961D01*
X98706Y186905D01*
X98687Y186850D01*
X98669Y186785D01*
X98623Y186618D01*
X98539Y186443D01*
X98428Y186248D01*
X98364Y186156D01*
X98290Y186063D01*
X98206Y185971D01*
X98105Y185888D01*
X98095D01*
X98077Y185869D01*
X98049Y185851D01*
X98012Y185823D01*
X97957Y185786D01*
X97892Y185749D01*
X97818Y185712D01*
X97744Y185675D01*
X97550Y185601D01*
X97337Y185527D01*
X97087Y185481D01*
X96958Y185471D01*
X96819Y185462D01*
X96726D01*
X96662Y185471D01*
X96578Y185481D01*
X96486Y185490D01*
X96384Y185508D01*
X96273Y185536D01*
X96023Y185610D01*
X95903Y185656D01*
X95774Y185712D01*
X95644Y185786D01*
X95515Y185869D01*
X95394Y185962D01*
X95274Y186063D01*
X95265Y186073D01*
X95246Y186091D01*
X95219Y186128D01*
X95182Y186174D01*
X95135Y186239D01*
X95080Y186313D01*
X95034Y186396D01*
X94978Y186498D01*
X94913Y186609D01*
X94867Y186739D01*
X94812Y186877D01*
X94765Y187025D01*
X94728Y187183D01*
X94701Y187358D01*
X94682Y187534D01*
X94673Y187728D01*
Y187738D01*
Y187775D01*
Y187830D01*
X94682Y187904D01*
X94691Y187987D01*
X94701Y188098D01*
X94719Y188209D01*
X94747Y188330D01*
X94821Y188598D01*
X94867Y188737D01*
X94923Y188875D01*
X94997Y189005D01*
X95080Y189144D01*
X95172Y189264D01*
X95274Y189384D01*
X95283Y189393D01*
X95302Y189412D01*
X95339Y189440D01*
X95385Y189477D01*
X95441Y189523D01*
X95515Y189578D01*
X95598Y189634D01*
X95690Y189689D01*
X95801Y189745D01*
X95912Y189800D01*
X96042Y189856D01*
X96181Y189902D01*
X96329Y189939D01*
X96486Y189967D01*
X96643Y189985D01*
X96819Y189995D01*
X96902D01*
X96958Y189985D01*
D02*
G37*
G36*
X119176Y184028D02*
X114264D01*
Y184500D01*
X119176D01*
Y184028D01*
D02*
G37*
G36*
X59236D02*
X54324D01*
Y184500D01*
X59236D01*
Y184028D01*
D02*
G37*
G36*
X79216D02*
X74304D01*
Y184500D01*
X79216D01*
Y184028D01*
D02*
G37*
G36*
X73638Y191475D02*
X70752D01*
Y189403D01*
X73398D01*
Y188663D01*
X70752D01*
Y186285D01*
X73833D01*
Y185545D01*
X69855D01*
Y192215D01*
X73638D01*
Y191475D01*
D02*
G37*
G36*
X86884Y189985D02*
X86958D01*
X87042Y189976D01*
X87227Y189948D01*
X87439Y189902D01*
X87652Y189828D01*
X87856Y189726D01*
X87948Y189671D01*
X88031Y189597D01*
X88041D01*
X88050Y189578D01*
X88096Y189523D01*
X88170Y189440D01*
X88253Y189319D01*
X88327Y189162D01*
X88401Y188977D01*
X88448Y188755D01*
X88466Y188635D01*
Y188505D01*
Y186359D01*
Y186350D01*
Y186322D01*
Y186276D01*
X88475Y186221D01*
X88494Y186082D01*
X88540Y185934D01*
Y185925D01*
X88559Y185897D01*
X88577Y185860D01*
X88605Y185814D01*
X88679Y185684D01*
X88781Y185545D01*
X87837D01*
X87828Y185564D01*
X87800Y185601D01*
X87763Y185666D01*
X87726Y185758D01*
Y185767D01*
X87717Y185786D01*
Y185814D01*
X87708Y185851D01*
X87698Y185962D01*
X87689Y186091D01*
X87680Y186082D01*
X87643Y186036D01*
X87578Y185980D01*
X87504Y185915D01*
X87402Y185841D01*
X87291Y185758D01*
X87162Y185684D01*
X87023Y185619D01*
X87005Y185610D01*
X86958Y185592D01*
X86875Y185573D01*
X86773Y185545D01*
X86653Y185508D01*
X86514Y185490D01*
X86357Y185471D01*
X86200Y185462D01*
X86144D01*
X86098Y185471D01*
X86043D01*
X85978Y185481D01*
X85839Y185499D01*
X85673Y185536D01*
X85497Y185592D01*
X85312Y185675D01*
X85145Y185777D01*
X85127Y185795D01*
X85081Y185832D01*
X85007Y185906D01*
X84933Y186008D01*
X84859Y186137D01*
X84785Y186285D01*
X84738Y186470D01*
X84729Y186572D01*
X84720Y186674D01*
Y186683D01*
Y186702D01*
Y186729D01*
X84729Y186766D01*
X84738Y186877D01*
X84766Y187007D01*
X84812Y187155D01*
X84886Y187312D01*
X84979Y187469D01*
X85108Y187608D01*
X85127Y187627D01*
X85145Y187645D01*
X85182Y187664D01*
X85219Y187691D01*
X85275Y187728D01*
X85340Y187765D01*
X85404Y187802D01*
X85488Y187839D01*
X85571Y187876D01*
X85673Y187913D01*
X85784Y187960D01*
X85904Y187987D01*
X86033Y188024D01*
X86172Y188052D01*
X86320Y188080D01*
X86348D01*
X86376Y188089D01*
X86413D01*
X86514Y188108D01*
X86644Y188135D01*
X86792Y188163D01*
X86949Y188191D01*
X87116Y188228D01*
X87273Y188274D01*
X87282D01*
X87291Y188283D01*
X87338Y188293D01*
X87402Y188320D01*
X87486Y188357D01*
X87560Y188404D01*
X87624Y188459D01*
X87671Y188524D01*
X87689Y188552D01*
Y188589D01*
Y188598D01*
Y188626D01*
X87680Y188672D01*
X87671Y188737D01*
X87643Y188801D01*
X87615Y188885D01*
X87569Y188968D01*
X87513Y189051D01*
X87504Y189060D01*
X87476Y189088D01*
X87430Y189125D01*
X87356Y189171D01*
X87245Y189218D01*
X87116Y189255D01*
X86949Y189282D01*
X86857Y189292D01*
X86672D01*
X86588Y189282D01*
X86487Y189273D01*
X86376Y189245D01*
X86265Y189218D01*
X86154Y189171D01*
X86061Y189116D01*
X86052Y189107D01*
X86024Y189088D01*
X85987Y189042D01*
X85950Y188986D01*
X85895Y188922D01*
X85848Y188838D01*
X85811Y188737D01*
X85774Y188626D01*
X84914D01*
Y188635D01*
Y188653D01*
X84923Y188681D01*
X84933Y188727D01*
X84951Y188783D01*
X84960Y188838D01*
X85016Y188986D01*
X85081Y189144D01*
X85182Y189301D01*
X85312Y189467D01*
X85395Y189541D01*
X85478Y189615D01*
X85488D01*
X85497Y189634D01*
X85525Y189652D01*
X85571Y189671D01*
X85617Y189708D01*
X85673Y189736D01*
X85747Y189773D01*
X85821Y189810D01*
X86006Y189874D01*
X86218Y189939D01*
X86468Y189976D01*
X86746Y189995D01*
X86829D01*
X86884Y189985D01*
D02*
G37*
G36*
X65674Y186285D02*
X68838D01*
Y185545D01*
X64777D01*
Y192215D01*
X65674D01*
Y186285D01*
D02*
G37*
G36*
X126854Y189985D02*
X126928Y189976D01*
X127011Y189958D01*
X127103Y189939D01*
X127214Y189921D01*
X127446Y189837D01*
X127566Y189791D01*
X127695Y189726D01*
X127816Y189662D01*
X127945Y189569D01*
X128065Y189477D01*
X128186Y189366D01*
X128195Y189356D01*
X128213Y189338D01*
X128241Y189301D01*
X128287Y189255D01*
X128334Y189190D01*
X128389Y189116D01*
X128445Y189033D01*
X128500Y188931D01*
X128556Y188820D01*
X128620Y188690D01*
X128667Y188561D01*
X128713Y188413D01*
X128759Y188256D01*
X128787Y188089D01*
X128805Y187913D01*
X128815Y187728D01*
Y187719D01*
Y187682D01*
Y187627D01*
X128805Y187562D01*
X128796Y187469D01*
X128778Y187377D01*
X128759Y187266D01*
X128741Y187146D01*
X128657Y186877D01*
X128611Y186739D01*
X128546Y186609D01*
X128482Y186470D01*
X128389Y186332D01*
X128297Y186202D01*
X128186Y186082D01*
X128176Y186073D01*
X128158Y186054D01*
X128121Y186026D01*
X128075Y185989D01*
X128019Y185934D01*
X127945Y185888D01*
X127862Y185832D01*
X127769Y185777D01*
X127668Y185712D01*
X127557Y185656D01*
X127298Y185564D01*
X127159Y185518D01*
X127020Y185490D01*
X126863Y185471D01*
X126706Y185462D01*
X126622D01*
X126558Y185471D01*
X126484Y185481D01*
X126400Y185499D01*
X126308Y185518D01*
X126197Y185536D01*
X125966Y185610D01*
X125845Y185666D01*
X125716Y185721D01*
X125586Y185795D01*
X125457Y185878D01*
X125337Y185971D01*
X125216Y186082D01*
X125207Y186091D01*
X125189Y186110D01*
X125161Y186147D01*
X125124Y186193D01*
X125068Y186258D01*
X125022Y186332D01*
X124967Y186424D01*
X124911Y186526D01*
X124846Y186637D01*
X124791Y186757D01*
X124745Y186896D01*
X124698Y187044D01*
X124652Y187201D01*
X124624Y187368D01*
X124606Y187543D01*
X124597Y187728D01*
Y187738D01*
Y187775D01*
Y187830D01*
X124606Y187895D01*
X124615Y187987D01*
X124634Y188080D01*
X124652Y188191D01*
X124671Y188311D01*
X124745Y188579D01*
X124800Y188709D01*
X124856Y188848D01*
X124930Y188986D01*
X125013Y189116D01*
X125105Y189245D01*
X125216Y189366D01*
X125226Y189375D01*
X125244Y189393D01*
X125281Y189421D01*
X125327Y189467D01*
X125392Y189514D01*
X125457Y189569D01*
X125540Y189625D01*
X125642Y189680D01*
X125744Y189736D01*
X125855Y189800D01*
X126114Y189893D01*
X126252Y189939D01*
X126391Y189967D01*
X126548Y189985D01*
X126706Y189995D01*
X126789D01*
X126854Y189985D01*
D02*
G37*
G36*
X136918D02*
X136982Y189976D01*
X137066Y189967D01*
X137158Y189948D01*
X137251Y189930D01*
X137463Y189865D01*
X137574Y189828D01*
X137685Y189773D01*
X137796Y189708D01*
X137907Y189643D01*
X138018Y189560D01*
X138120Y189467D01*
X138129Y189458D01*
X138139Y189440D01*
X138166Y189412D01*
X138203Y189366D01*
X138240Y189310D01*
X138287Y189236D01*
X138333Y189153D01*
X138388Y189051D01*
X138435Y188940D01*
X138481Y188811D01*
X138527Y188672D01*
X138564Y188515D01*
X138601Y188339D01*
X138629Y188154D01*
X138638Y187950D01*
X138647Y187728D01*
X135493D01*
Y187719D01*
Y187691D01*
Y187645D01*
X135502Y187590D01*
Y187516D01*
X135512Y187442D01*
X135539Y187257D01*
X135586Y187053D01*
X135650Y186859D01*
X135743Y186674D01*
X135798Y186591D01*
X135863Y186517D01*
X135882Y186498D01*
X135928Y186461D01*
X136011Y186406D01*
X136113Y186341D01*
X136252Y186276D01*
X136409Y186221D01*
X136585Y186184D01*
X136779Y186165D01*
X136853D01*
X136927Y186174D01*
X137029Y186193D01*
X137140Y186221D01*
X137251Y186258D01*
X137362Y186304D01*
X137473Y186378D01*
X137482Y186387D01*
X137519Y186424D01*
X137565Y186470D01*
X137621Y186544D01*
X137685Y186637D01*
X137741Y186748D01*
X137796Y186877D01*
X137833Y187025D01*
X138684D01*
Y187016D01*
Y186998D01*
X138675Y186961D01*
X138666Y186905D01*
X138647Y186850D01*
X138629Y186785D01*
X138583Y186618D01*
X138499Y186443D01*
X138388Y186248D01*
X138324Y186156D01*
X138250Y186063D01*
X138166Y185971D01*
X138065Y185888D01*
X138055D01*
X138037Y185869D01*
X138009Y185851D01*
X137972Y185823D01*
X137917Y185786D01*
X137852Y185749D01*
X137778Y185712D01*
X137704Y185675D01*
X137510Y185601D01*
X137297Y185527D01*
X137047Y185481D01*
X136918Y185471D01*
X136779Y185462D01*
X136686D01*
X136622Y185471D01*
X136538Y185481D01*
X136446Y185490D01*
X136344Y185508D01*
X136233Y185536D01*
X135983Y185610D01*
X135863Y185656D01*
X135734Y185712D01*
X135604Y185786D01*
X135475Y185869D01*
X135354Y185962D01*
X135234Y186063D01*
X135225Y186073D01*
X135206Y186091D01*
X135179Y186128D01*
X135142Y186174D01*
X135095Y186239D01*
X135040Y186313D01*
X134994Y186396D01*
X134938Y186498D01*
X134873Y186609D01*
X134827Y186739D01*
X134772Y186877D01*
X134725Y187025D01*
X134688Y187183D01*
X134661Y187358D01*
X134642Y187534D01*
X134633Y187728D01*
Y187738D01*
Y187775D01*
Y187830D01*
X134642Y187904D01*
X134651Y187987D01*
X134661Y188098D01*
X134679Y188209D01*
X134707Y188330D01*
X134781Y188598D01*
X134827Y188737D01*
X134883Y188875D01*
X134957Y189005D01*
X135040Y189144D01*
X135132Y189264D01*
X135234Y189384D01*
X135243Y189393D01*
X135262Y189412D01*
X135299Y189440D01*
X135345Y189477D01*
X135401Y189523D01*
X135475Y189578D01*
X135558Y189634D01*
X135650Y189689D01*
X135761Y189745D01*
X135872Y189800D01*
X136002Y189856D01*
X136141Y189902D01*
X136289Y189939D01*
X136446Y189967D01*
X136603Y189985D01*
X136779Y189995D01*
X136862D01*
X136918Y189985D01*
D02*
G37*
G36*
X106196Y47146D02*
X105627D01*
X103396Y50470D01*
Y47146D01*
X102872D01*
Y51345D01*
X103440D01*
X105671Y48064D01*
Y51345D01*
X106196D01*
Y47146D01*
D02*
G37*
G36*
X120149D02*
X119580D01*
X117393Y50470D01*
Y47146D01*
X116868D01*
Y51345D01*
X117437D01*
X119624Y48064D01*
Y51345D01*
X120149D01*
Y47146D01*
D02*
G37*
G36*
X75537Y178129D02*
X75592Y178120D01*
X75666Y178101D01*
X75731Y178074D01*
X75796Y178036D01*
X75851Y177981D01*
X75860Y177972D01*
X75870Y177953D01*
X75897Y177926D01*
X75925Y177879D01*
X75944Y177824D01*
X75971Y177759D01*
X75981Y177676D01*
X75990Y177593D01*
Y177583D01*
Y177546D01*
X75981Y177500D01*
X75971Y177445D01*
X75953Y177380D01*
X75925Y177306D01*
X75888Y177241D01*
X75833Y177185D01*
X75823Y177176D01*
X75805Y177167D01*
X75768Y177139D01*
X75722Y177121D01*
X75666Y177093D01*
X75601Y177065D01*
X75527Y177056D01*
X75444Y177047D01*
X75407D01*
X75370Y177056D01*
X75324Y177065D01*
X75259Y177084D01*
X75194Y177102D01*
X75129Y177139D01*
X75065Y177185D01*
X75056Y177195D01*
X75037Y177213D01*
X75009Y177241D01*
X74982Y177287D01*
X74945Y177343D01*
X74917Y177417D01*
X74898Y177500D01*
X74889Y177593D01*
Y177602D01*
Y177629D01*
X74898Y177676D01*
X74908Y177731D01*
X74926Y177787D01*
X74945Y177851D01*
X74982Y177907D01*
X75028Y177963D01*
X75037Y177972D01*
X75056Y177981D01*
X75083Y178009D01*
X75129Y178036D01*
X75194Y178064D01*
X75259Y178092D01*
X75342Y178120D01*
X75444Y178138D01*
X75490D01*
X75537Y178129D01*
D02*
G37*
G36*
X110132Y50863D02*
X108733D01*
Y47146D01*
X108164D01*
Y50863D01*
X106808D01*
Y51345D01*
X110132D01*
Y50863D01*
D02*
G37*
G36*
X111357Y47146D02*
X110789D01*
Y51345D01*
X111357D01*
Y47146D01*
D02*
G37*
G36*
X48154Y168287D02*
X47377D01*
X45426Y175039D01*
X46360D01*
X47729Y169924D01*
X47803D01*
X49172Y175039D01*
X50106D01*
X48154Y168287D01*
D02*
G37*
G36*
X53307Y168407D02*
X52530D01*
Y173791D01*
X52520Y173781D01*
X52511Y173772D01*
X52474Y173744D01*
X52437Y173707D01*
X52391Y173661D01*
X52326Y173606D01*
X52261Y173541D01*
X52178Y173476D01*
X51993Y173328D01*
X51771Y173171D01*
X51521Y172995D01*
X51244Y172819D01*
Y173559D01*
X51253Y173569D01*
X51290Y173587D01*
X51336Y173624D01*
X51410Y173680D01*
X51484Y173735D01*
X51586Y173818D01*
X51688Y173902D01*
X51808Y174003D01*
X51928Y174105D01*
X52058Y174225D01*
X52197Y174355D01*
X52326Y174494D01*
X52594Y174790D01*
X52844Y175113D01*
X53307D01*
Y168407D01*
D02*
G37*
G36*
X65547Y178129D02*
X65602Y178120D01*
X65676Y178101D01*
X65741Y178074D01*
X65806Y178036D01*
X65861Y177981D01*
X65870Y177972D01*
X65879Y177953D01*
X65907Y177926D01*
X65935Y177879D01*
X65953Y177824D01*
X65981Y177759D01*
X65991Y177676D01*
X66000Y177593D01*
Y177583D01*
Y177546D01*
X65991Y177500D01*
X65981Y177445D01*
X65963Y177380D01*
X65935Y177306D01*
X65898Y177241D01*
X65843Y177185D01*
X65833Y177176D01*
X65815Y177167D01*
X65778Y177139D01*
X65732Y177121D01*
X65676Y177093D01*
X65611Y177065D01*
X65537Y177056D01*
X65454Y177047D01*
X65417D01*
X65380Y177056D01*
X65334Y177065D01*
X65269Y177084D01*
X65204Y177102D01*
X65140Y177139D01*
X65075Y177185D01*
X65065Y177195D01*
X65047Y177213D01*
X65019Y177241D01*
X64991Y177287D01*
X64955Y177343D01*
X64927Y177417D01*
X64908Y177500D01*
X64899Y177593D01*
Y177602D01*
Y177629D01*
X64908Y177676D01*
X64918Y177731D01*
X64936Y177787D01*
X64955Y177851D01*
X64991Y177907D01*
X65038Y177963D01*
X65047Y177972D01*
X65065Y177981D01*
X65093Y178009D01*
X65140Y178036D01*
X65204Y178064D01*
X65269Y178092D01*
X65352Y178120D01*
X65454Y178138D01*
X65500D01*
X65547Y178129D01*
D02*
G37*
G36*
X71772Y183864D02*
X71874Y183855D01*
X71994Y183845D01*
X72234Y183799D01*
X72253D01*
X72290Y183781D01*
X72355Y183762D01*
X72438Y183735D01*
X72540Y183688D01*
X72650Y183624D01*
X72771Y183559D01*
X72900Y183466D01*
X72919Y183457D01*
X72956Y183420D01*
X73021Y183364D01*
X73095Y183281D01*
X73178Y183179D01*
X73261Y183059D01*
X73344Y182911D01*
X73409Y182745D01*
Y182736D01*
X73418Y182726D01*
Y182699D01*
X73427Y182661D01*
X73446Y182560D01*
X73465Y182430D01*
X73474Y182273D01*
X73465Y182079D01*
X73446Y181875D01*
X73391Y181644D01*
Y181635D01*
X73381Y181616D01*
X73372Y181588D01*
X73353Y181542D01*
X73326Y181487D01*
X73298Y181431D01*
X73215Y181292D01*
X73159Y181219D01*
X73095Y181135D01*
X73011Y181061D01*
X72928Y180978D01*
X72836Y180895D01*
X72724Y180821D01*
X72604Y180747D01*
X72475Y180682D01*
X72484D01*
X72502Y180673D01*
X72540Y180664D01*
X72586Y180645D01*
X72641Y180626D01*
X72697Y180599D01*
X72845Y180534D01*
X72993Y180441D01*
X73150Y180340D01*
X73289Y180219D01*
X73353Y180146D01*
X73409Y180071D01*
X73418Y180053D01*
X73455Y179998D01*
X73501Y179914D01*
X73548Y179794D01*
X73603Y179646D01*
X73640Y179480D01*
X73677Y179285D01*
X73686Y179072D01*
Y179063D01*
Y179045D01*
Y179017D01*
Y178980D01*
X73677Y178869D01*
X73668Y178740D01*
X73640Y178592D01*
X73612Y178434D01*
X73566Y178277D01*
X73511Y178138D01*
X73501Y178120D01*
X73483Y178083D01*
X73446Y178018D01*
X73400Y177935D01*
X73335Y177842D01*
X73270Y177741D01*
X73196Y177648D01*
X73113Y177556D01*
X73104Y177546D01*
X73076Y177518D01*
X73030Y177472D01*
X72965Y177426D01*
X72882Y177361D01*
X72780Y177306D01*
X72660Y177241D01*
X72530Y177185D01*
X72512Y177176D01*
X72465Y177167D01*
X72382Y177139D01*
X72271Y177121D01*
X72142Y177093D01*
X71985Y177065D01*
X71799Y177056D01*
X71596Y177047D01*
X71504D01*
X71393Y177056D01*
X71263Y177065D01*
X71106Y177084D01*
X70949Y177102D01*
X70782Y177139D01*
X70616Y177185D01*
X70597Y177195D01*
X70551Y177213D01*
X70477Y177241D01*
X70375Y177287D01*
X70273Y177343D01*
X70153Y177417D01*
X70042Y177500D01*
X69931Y177593D01*
X69922Y177602D01*
X69885Y177639D01*
X69839Y177703D01*
X69783Y177778D01*
X69727Y177870D01*
X69663Y177981D01*
X69607Y178111D01*
X69561Y178240D01*
Y178259D01*
X69543Y178305D01*
X69533Y178379D01*
X69515Y178481D01*
X69496Y178610D01*
X69487Y178749D01*
X69469Y178906D01*
Y179082D01*
Y179091D01*
Y179100D01*
Y179128D01*
Y179165D01*
X69478Y179248D01*
X69496Y179368D01*
X69524Y179507D01*
X69570Y179655D01*
X69626Y179822D01*
X69700Y179988D01*
Y179998D01*
X69709Y180007D01*
X69746Y180062D01*
X69801Y180146D01*
X69885Y180247D01*
X69996Y180368D01*
X70135Y180488D01*
X70292Y180608D01*
X70486Y180719D01*
X70477D01*
X70468Y180728D01*
X70412Y180765D01*
X70329Y180821D01*
X70227Y180895D01*
X70125Y180987D01*
X70024Y181089D01*
X69931Y181200D01*
X69857Y181320D01*
X69848Y181339D01*
X69829Y181376D01*
X69811Y181450D01*
X69774Y181542D01*
X69746Y181653D01*
X69718Y181783D01*
X69691Y181922D01*
X69681Y182079D01*
Y182088D01*
Y182097D01*
Y182153D01*
Y182236D01*
X69691Y182338D01*
X69700Y182449D01*
X69727Y182578D01*
X69755Y182699D01*
X69801Y182819D01*
X69811Y182837D01*
X69829Y182874D01*
X69857Y182930D01*
X69903Y183013D01*
X69959Y183096D01*
X70033Y183198D01*
X70116Y183300D01*
X70209Y183402D01*
X70218Y183411D01*
X70255Y183448D01*
X70310Y183494D01*
X70384Y183549D01*
X70477Y183614D01*
X70578Y183679D01*
X70689Y183725D01*
X70810Y183772D01*
X70828Y183781D01*
X70865Y183790D01*
X70939Y183809D01*
X71023Y183827D01*
X71134Y183845D01*
X71254Y183855D01*
X71393Y183873D01*
X71670D01*
X71772Y183864D01*
D02*
G37*
G36*
X104534Y81481D02*
X104840Y81394D01*
X105190Y81306D01*
X105583Y81131D01*
X105933Y80913D01*
X106327Y80607D01*
X106371Y80563D01*
X106458Y80475D01*
X106677Y80257D01*
X106721Y80213D01*
X106764Y80125D01*
X106939Y79863D01*
X120149Y56987D01*
X120193Y56943D01*
X120236Y56812D01*
X120324Y56550D01*
X120455Y56243D01*
X120543Y55893D01*
X120586Y55456D01*
Y55019D01*
X120543Y54537D01*
Y54494D01*
X120499Y54406D01*
X120455Y54231D01*
X120411Y54056D01*
Y54013D01*
X120368Y53925D01*
X120280Y53794D01*
X120193Y53575D01*
X120149D01*
X120105Y53531D01*
X120018Y53400D01*
X119886Y53182D01*
X119668Y52963D01*
X119405Y52701D01*
X119099Y52438D01*
X118705Y52219D01*
X118268Y52044D01*
X118224D01*
X118093Y52001D01*
X117918Y51957D01*
X117743D01*
X117699Y51913D01*
X117524D01*
X117306Y51869D01*
X90668D01*
X90406Y51913D01*
X90099Y52001D01*
X89706Y52088D01*
X89312Y52263D01*
X88919Y52482D01*
X88525Y52788D01*
X88481Y52832D01*
X88394Y52919D01*
X88175Y53138D01*
X88131Y53182D01*
X88087Y53269D01*
X87912Y53575D01*
X87869Y53619D01*
X87825Y53750D01*
X87738Y53969D01*
X87606Y54275D01*
X87519Y54625D01*
X87475Y55019D01*
Y55456D01*
X87519Y55937D01*
Y55981D01*
X87563Y56112D01*
X87606Y56287D01*
X87650Y56418D01*
Y56462D01*
X87694Y56550D01*
X87781Y56681D01*
X87869Y56856D01*
Y56899D01*
Y56943D01*
X87912D01*
X101078Y79776D01*
Y79819D01*
X101166Y79907D01*
X101341Y80169D01*
X101690Y80563D01*
X102084Y80913D01*
X102172Y80957D01*
X102347Y81044D01*
X102390Y81088D01*
X102478Y81131D01*
X102653Y81219D01*
X102828Y81306D01*
X103090Y81394D01*
X103396Y81438D01*
X103703Y81525D01*
X104271D01*
X104534Y81481D01*
D02*
G37*
G36*
X102041Y50863D02*
X99547D01*
Y49551D01*
X101865D01*
Y49070D01*
X99547D01*
Y47627D01*
X102128D01*
Y47146D01*
X98979D01*
Y51345D01*
X102041D01*
Y50863D01*
D02*
G37*
G36*
X81982Y192279D02*
X82056Y192270D01*
X82148Y192252D01*
X82241Y192233D01*
X82343Y192205D01*
X82454Y192168D01*
X82574Y192122D01*
X82685Y192076D01*
X82805Y192011D01*
X82916Y191928D01*
X83027Y191845D01*
X83129Y191743D01*
X83231Y191623D01*
X83240Y191613D01*
X83249Y191595D01*
X83277Y191558D01*
X83314Y191502D01*
X83351Y191438D01*
X83388Y191364D01*
X83434Y191271D01*
X83490Y191160D01*
X83536Y191049D01*
X83582Y190920D01*
X83619Y190772D01*
X83656Y190624D01*
X83693Y190457D01*
X83721Y190291D01*
X83730Y190106D01*
X83739Y189911D01*
X82888D01*
Y189921D01*
Y189948D01*
Y189995D01*
Y190050D01*
X82879Y190115D01*
X82870Y190198D01*
X82851Y190374D01*
X82824Y190577D01*
X82768Y190781D01*
X82703Y190975D01*
X82657Y191058D01*
X82611Y191142D01*
Y191151D01*
X82602Y191160D01*
X82565Y191206D01*
X82500Y191271D01*
X82417Y191345D01*
X82306Y191419D01*
X82167Y191484D01*
X82010Y191530D01*
X81926Y191549D01*
X81778D01*
X81732Y191539D01*
X81621Y191512D01*
X81482Y191465D01*
X81408Y191438D01*
X81325Y191391D01*
X81251Y191336D01*
X81168Y191280D01*
X81094Y191197D01*
X81020Y191114D01*
X80955Y191012D01*
X80890Y190901D01*
Y190892D01*
X80881Y190873D01*
X80863Y190836D01*
X80844Y190781D01*
X80816Y190707D01*
X80798Y190624D01*
X80770Y190513D01*
X80742Y190392D01*
X80705Y190254D01*
X80678Y190096D01*
X80659Y189921D01*
X80631Y189726D01*
X80613Y189504D01*
X80594Y189273D01*
X80585Y189023D01*
Y188746D01*
Y188727D01*
Y188681D01*
Y188607D01*
X80594Y188515D01*
Y188394D01*
X80604Y188256D01*
X80622Y188108D01*
X80631Y187950D01*
X80678Y187617D01*
X80752Y187294D01*
X80798Y187136D01*
X80844Y186988D01*
X80909Y186859D01*
X80974Y186748D01*
X80983Y186739D01*
X80992Y186720D01*
X81011Y186702D01*
X81038Y186665D01*
X81122Y186572D01*
X81233Y186480D01*
X81362Y186378D01*
X81519Y186285D01*
X81603Y186248D01*
X81686Y186230D01*
X81778Y186211D01*
X81871Y186202D01*
X81917D01*
X81954Y186211D01*
X82047Y186221D01*
X82158Y186248D01*
X82287Y186295D01*
X82426Y186359D01*
X82546Y186452D01*
X82666Y186572D01*
X82676Y186591D01*
X82713Y186646D01*
X82759Y186729D01*
X82814Y186859D01*
X82842Y186933D01*
X82870Y187016D01*
X82898Y187109D01*
X82916Y187220D01*
X82935Y187331D01*
X82953Y187451D01*
X82962Y187590D01*
Y187728D01*
Y188154D01*
X81751D01*
Y188894D01*
X83739D01*
Y185462D01*
X83083D01*
X82962Y186008D01*
X82953Y185999D01*
X82935Y185971D01*
X82898Y185925D01*
X82842Y185869D01*
X82777Y185814D01*
X82694Y185749D01*
X82592Y185684D01*
X82472Y185619D01*
X82454Y185610D01*
X82417Y185592D01*
X82343Y185573D01*
X82259Y185545D01*
X82148Y185508D01*
X82028Y185490D01*
X81889Y185471D01*
X81751Y185462D01*
X81714D01*
X81667Y185471D01*
X81612D01*
X81538Y185490D01*
X81455Y185499D01*
X81362Y185527D01*
X81260Y185555D01*
X81149Y185601D01*
X81038Y185647D01*
X80918Y185712D01*
X80789Y185786D01*
X80668Y185869D01*
X80539Y185971D01*
X80409Y186091D01*
X80289Y186221D01*
X80280Y186230D01*
X80261Y186258D01*
X80234Y186304D01*
X80187Y186369D01*
X80141Y186452D01*
X80086Y186554D01*
X80030Y186674D01*
X79965Y186813D01*
X79910Y186970D01*
X79845Y187155D01*
X79790Y187358D01*
X79743Y187571D01*
X79697Y187812D01*
X79669Y188080D01*
X79651Y188357D01*
X79642Y188663D01*
Y188672D01*
Y188681D01*
Y188709D01*
Y188746D01*
Y188838D01*
X79651Y188959D01*
X79660Y189116D01*
X79669Y189292D01*
X79688Y189486D01*
X79716Y189689D01*
X79743Y189911D01*
X79780Y190133D01*
X79836Y190365D01*
X79891Y190587D01*
X79956Y190809D01*
X80030Y191021D01*
X80123Y191216D01*
X80224Y191391D01*
X80234Y191401D01*
X80252Y191428D01*
X80289Y191475D01*
X80335Y191530D01*
X80391Y191604D01*
X80465Y191678D01*
X80548Y191752D01*
X80650Y191845D01*
X80761Y191928D01*
X80881Y192002D01*
X81011Y192085D01*
X81149Y192150D01*
X81307Y192205D01*
X81473Y192252D01*
X81649Y192279D01*
X81834Y192289D01*
X81917D01*
X81982Y192279D01*
D02*
G37*
G36*
X61900D02*
X61983Y192270D01*
X62076Y192261D01*
X62187Y192242D01*
X62298Y192215D01*
X62538Y192141D01*
X62659Y192094D01*
X62779Y192039D01*
X62899Y191965D01*
X63001Y191882D01*
X63103Y191789D01*
X63195Y191687D01*
X63204Y191678D01*
X63214Y191660D01*
X63241Y191632D01*
X63269Y191586D01*
X63297Y191530D01*
X63343Y191456D01*
X63380Y191382D01*
X63426Y191299D01*
X63510Y191105D01*
X63574Y190883D01*
X63630Y190642D01*
X63639Y190513D01*
X63648Y190383D01*
X62751D01*
Y190392D01*
Y190402D01*
Y190457D01*
Y190540D01*
X62733Y190642D01*
X62705Y190762D01*
X62668Y190892D01*
X62603Y191031D01*
X62511Y191160D01*
X62501Y191179D01*
X62464Y191216D01*
X62400Y191271D01*
X62316Y191336D01*
X62205Y191401D01*
X62067Y191456D01*
X61909Y191493D01*
X61734Y191512D01*
X61660D01*
X61567Y191502D01*
X61465Y191484D01*
X61345Y191447D01*
X61216Y191401D01*
X61095Y191336D01*
X60984Y191253D01*
X60975Y191243D01*
X60947Y191206D01*
X60901Y191151D01*
X60855Y191077D01*
X60799Y190975D01*
X60762Y190864D01*
X60725Y190725D01*
X60716Y190577D01*
Y190559D01*
Y190522D01*
X60725Y190457D01*
X60744Y190374D01*
X60772Y190272D01*
X60809Y190170D01*
X60855Y190069D01*
X60929Y189967D01*
X60938Y189958D01*
X60975Y189921D01*
X61049Y189865D01*
X61095Y189837D01*
X61151Y189800D01*
X61225Y189754D01*
X61299Y189708D01*
X61391Y189662D01*
X61493Y189606D01*
X61613Y189551D01*
X61743Y189495D01*
X61891Y189430D01*
X62048Y189366D01*
X62057D01*
X62085Y189347D01*
X62131Y189329D01*
X62187Y189301D01*
X62261Y189273D01*
X62344Y189227D01*
X62538Y189125D01*
X62751Y189005D01*
X62973Y188866D01*
X63186Y188700D01*
X63278Y188616D01*
X63371Y188524D01*
X63380Y188515D01*
X63389Y188505D01*
X63417Y188478D01*
X63445Y188441D01*
X63482Y188394D01*
X63519Y188339D01*
X63611Y188209D01*
X63695Y188043D01*
X63769Y187849D01*
X63824Y187645D01*
X63833Y187534D01*
X63843Y187414D01*
Y187405D01*
Y187377D01*
Y187331D01*
X63833Y187266D01*
X63824Y187192D01*
X63815Y187099D01*
X63796Y187007D01*
X63769Y186896D01*
X63704Y186674D01*
X63658Y186554D01*
X63602Y186433D01*
X63537Y186313D01*
X63463Y186202D01*
X63380Y186091D01*
X63278Y185989D01*
X63269Y185980D01*
X63251Y185971D01*
X63223Y185943D01*
X63177Y185906D01*
X63121Y185869D01*
X63047Y185823D01*
X62964Y185777D01*
X62871Y185730D01*
X62770Y185675D01*
X62649Y185629D01*
X62529Y185582D01*
X62390Y185545D01*
X62242Y185508D01*
X62085Y185481D01*
X61909Y185471D01*
X61734Y185462D01*
X61641D01*
X61576Y185471D01*
X61493Y185481D01*
X61401Y185490D01*
X61290Y185508D01*
X61179Y185527D01*
X60938Y185592D01*
X60809Y185638D01*
X60679Y185693D01*
X60559Y185758D01*
X60429Y185832D01*
X60318Y185915D01*
X60207Y186008D01*
X60198Y186017D01*
X60180Y186036D01*
X60161Y186063D01*
X60124Y186110D01*
X60078Y186156D01*
X60032Y186221D01*
X59985Y186295D01*
X59939Y186387D01*
X59884Y186480D01*
X59837Y186581D01*
X59745Y186813D01*
X59708Y186942D01*
X59689Y187081D01*
X59671Y187229D01*
X59662Y187377D01*
Y187645D01*
X60568D01*
Y187414D01*
Y187405D01*
Y187386D01*
Y187358D01*
X60577Y187321D01*
X60587Y187210D01*
X60614Y187081D01*
X60651Y186942D01*
X60716Y186794D01*
X60799Y186646D01*
X60910Y186517D01*
X60929Y186507D01*
X60975Y186470D01*
X61049Y186415D01*
X61142Y186359D01*
X61262Y186304D01*
X61410Y186248D01*
X61567Y186211D01*
X61734Y186202D01*
X61798D01*
X61835Y186211D01*
X61946Y186221D01*
X62085Y186248D01*
X62233Y186285D01*
X62381Y186341D01*
X62529Y186424D01*
X62649Y186535D01*
X62659Y186554D01*
X62696Y186591D01*
X62742Y186665D01*
X62797Y186757D01*
X62853Y186877D01*
X62899Y187016D01*
X62936Y187173D01*
X62945Y187340D01*
Y187358D01*
X62936Y187405D01*
X62927Y187479D01*
X62899Y187580D01*
X62862Y187691D01*
X62797Y187812D01*
X62714Y187932D01*
X62594Y188061D01*
X62575Y188080D01*
X62529Y188117D01*
X62446Y188182D01*
X62335Y188265D01*
X62187Y188357D01*
X62020Y188459D01*
X61808Y188561D01*
X61576Y188663D01*
X61567D01*
X61539Y188681D01*
X61484Y188700D01*
X61428Y188727D01*
X61345Y188755D01*
X61262Y188792D01*
X61058Y188894D01*
X60836Y189005D01*
X60614Y189144D01*
X60402Y189282D01*
X60309Y189366D01*
X60226Y189440D01*
Y189449D01*
X60207Y189458D01*
X60189Y189486D01*
X60161Y189514D01*
X60096Y189606D01*
X60022Y189726D01*
X59948Y189884D01*
X59884Y190050D01*
X59837Y190244D01*
X59828Y190346D01*
X59819Y190457D01*
Y190466D01*
Y190494D01*
Y190540D01*
X59828Y190596D01*
X59837Y190661D01*
X59847Y190744D01*
X59893Y190929D01*
X59958Y191142D01*
X60004Y191253D01*
X60059Y191364D01*
X60124Y191475D01*
X60198Y191576D01*
X60281Y191687D01*
X60383Y191780D01*
X60392Y191789D01*
X60411Y191798D01*
X60439Y191826D01*
X60485Y191863D01*
X60540Y191900D01*
X60605Y191937D01*
X60679Y191983D01*
X60772Y192039D01*
X60966Y192131D01*
X61197Y192205D01*
X61456Y192270D01*
X61595Y192279D01*
X61734Y192289D01*
X61826D01*
X61900Y192279D01*
D02*
G37*
G36*
X52012D02*
X52086Y192270D01*
X52178Y192252D01*
X52271Y192233D01*
X52373Y192205D01*
X52484Y192168D01*
X52604Y192122D01*
X52715Y192076D01*
X52835Y192011D01*
X52946Y191928D01*
X53057Y191845D01*
X53159Y191743D01*
X53261Y191623D01*
X53270Y191613D01*
X53279Y191595D01*
X53307Y191558D01*
X53344Y191502D01*
X53381Y191438D01*
X53418Y191364D01*
X53464Y191271D01*
X53520Y191160D01*
X53566Y191049D01*
X53612Y190920D01*
X53649Y190772D01*
X53686Y190624D01*
X53723Y190457D01*
X53751Y190291D01*
X53760Y190106D01*
X53769Y189911D01*
X52918D01*
Y189921D01*
Y189948D01*
Y189995D01*
Y190050D01*
X52909Y190115D01*
X52900Y190198D01*
X52881Y190374D01*
X52854Y190577D01*
X52798Y190781D01*
X52733Y190975D01*
X52687Y191058D01*
X52641Y191142D01*
Y191151D01*
X52632Y191160D01*
X52595Y191206D01*
X52530Y191271D01*
X52447Y191345D01*
X52336Y191419D01*
X52197Y191484D01*
X52040Y191530D01*
X51956Y191549D01*
X51808D01*
X51762Y191539D01*
X51651Y191512D01*
X51512Y191465D01*
X51438Y191438D01*
X51355Y191391D01*
X51281Y191336D01*
X51198Y191280D01*
X51124Y191197D01*
X51050Y191114D01*
X50985Y191012D01*
X50920Y190901D01*
Y190892D01*
X50911Y190873D01*
X50893Y190836D01*
X50874Y190781D01*
X50846Y190707D01*
X50828Y190624D01*
X50800Y190513D01*
X50772Y190392D01*
X50735Y190254D01*
X50708Y190096D01*
X50689Y189921D01*
X50661Y189726D01*
X50643Y189504D01*
X50624Y189273D01*
X50615Y189023D01*
Y188746D01*
Y188727D01*
Y188681D01*
Y188607D01*
X50624Y188515D01*
Y188394D01*
X50634Y188256D01*
X50652Y188108D01*
X50661Y187950D01*
X50708Y187617D01*
X50782Y187294D01*
X50828Y187136D01*
X50874Y186988D01*
X50939Y186859D01*
X51004Y186748D01*
X51013Y186739D01*
X51022Y186720D01*
X51041Y186702D01*
X51068Y186665D01*
X51152Y186572D01*
X51263Y186480D01*
X51392Y186378D01*
X51549Y186285D01*
X51633Y186248D01*
X51716Y186230D01*
X51808Y186211D01*
X51901Y186202D01*
X51947D01*
X51984Y186211D01*
X52077Y186221D01*
X52188Y186248D01*
X52317Y186295D01*
X52456Y186359D01*
X52576Y186452D01*
X52696Y186572D01*
X52706Y186591D01*
X52743Y186646D01*
X52789Y186729D01*
X52844Y186859D01*
X52872Y186933D01*
X52900Y187016D01*
X52928Y187109D01*
X52946Y187220D01*
X52965Y187331D01*
X52983Y187451D01*
X52992Y187590D01*
Y187728D01*
Y188154D01*
X51781D01*
Y188894D01*
X53769D01*
Y185462D01*
X53113D01*
X52992Y186008D01*
X52983Y185999D01*
X52965Y185971D01*
X52928Y185925D01*
X52872Y185869D01*
X52807Y185814D01*
X52724Y185749D01*
X52622Y185684D01*
X52502Y185619D01*
X52484Y185610D01*
X52447Y185592D01*
X52373Y185573D01*
X52289Y185545D01*
X52178Y185508D01*
X52058Y185490D01*
X51919Y185471D01*
X51781Y185462D01*
X51744D01*
X51697Y185471D01*
X51642D01*
X51568Y185490D01*
X51485Y185499D01*
X51392Y185527D01*
X51290Y185555D01*
X51179Y185601D01*
X51068Y185647D01*
X50948Y185712D01*
X50819Y185786D01*
X50698Y185869D01*
X50569Y185971D01*
X50439Y186091D01*
X50319Y186221D01*
X50310Y186230D01*
X50291Y186258D01*
X50264Y186304D01*
X50217Y186369D01*
X50171Y186452D01*
X50116Y186554D01*
X50060Y186674D01*
X49995Y186813D01*
X49940Y186970D01*
X49875Y187155D01*
X49820Y187358D01*
X49773Y187571D01*
X49727Y187812D01*
X49699Y188080D01*
X49681Y188357D01*
X49672Y188663D01*
Y188672D01*
Y188681D01*
Y188709D01*
Y188746D01*
Y188838D01*
X49681Y188959D01*
X49690Y189116D01*
X49699Y189292D01*
X49718Y189486D01*
X49746Y189689D01*
X49773Y189911D01*
X49810Y190133D01*
X49866Y190365D01*
X49921Y190587D01*
X49986Y190809D01*
X50060Y191021D01*
X50153Y191216D01*
X50254Y191391D01*
X50264Y191401D01*
X50282Y191428D01*
X50319Y191475D01*
X50365Y191530D01*
X50421Y191604D01*
X50495Y191678D01*
X50578Y191752D01*
X50680Y191845D01*
X50791Y191928D01*
X50911Y192002D01*
X51041Y192085D01*
X51179Y192150D01*
X51337Y192205D01*
X51503Y192252D01*
X51679Y192279D01*
X51864Y192289D01*
X51947D01*
X52012Y192279D01*
D02*
G37*
G36*
X143134Y189134D02*
X143097D01*
X143060Y189144D01*
X143013D01*
X142949Y189153D01*
X142699D01*
X142505Y189125D01*
X142292Y189088D01*
X142088Y189014D01*
X141987Y188968D01*
X141885Y188912D01*
X141876D01*
X141866Y188894D01*
X141839Y188875D01*
X141802Y188848D01*
X141709Y188764D01*
X141654Y188709D01*
X141589Y188644D01*
X141524Y188570D01*
X141459Y188487D01*
X141385Y188394D01*
X141311Y188293D01*
X141247Y188182D01*
X141173Y188052D01*
X141099Y187913D01*
X141034Y187765D01*
Y185545D01*
X140248D01*
Y189911D01*
X141034D01*
Y188792D01*
X141052Y188811D01*
X141071Y188838D01*
X141099Y188885D01*
X141173Y188996D01*
X141274Y189134D01*
X141404Y189282D01*
X141552Y189430D01*
X141718Y189578D01*
X141903Y189699D01*
X141913D01*
X141931Y189708D01*
X141959Y189726D01*
X141996Y189745D01*
X142051Y189763D01*
X142107Y189791D01*
X142181Y189819D01*
X142255Y189847D01*
X142440Y189902D01*
X142643Y189948D01*
X142875Y189985D01*
X143134Y189995D01*
Y189134D01*
D02*
G37*
G36*
X51838Y183910D02*
X51903Y183901D01*
X51968Y183892D01*
X52134Y183845D01*
X52319Y183781D01*
X52421Y183735D01*
X52523Y183679D01*
X52624Y183614D01*
X52726Y183531D01*
X52828Y183448D01*
X52920Y183346D01*
X52930Y183337D01*
X52939Y183318D01*
X52966Y183291D01*
X53004Y183244D01*
X53040Y183189D01*
X53087Y183124D01*
X53142Y183041D01*
X53198Y182957D01*
X53253Y182856D01*
X53309Y182754D01*
X53364Y182634D01*
X53420Y182504D01*
X53512Y182227D01*
X53586Y181922D01*
Y181912D01*
X53596Y181885D01*
X53605Y181838D01*
X53614Y181773D01*
X53623Y181690D01*
X53633Y181598D01*
X53642Y181477D01*
X53660Y181357D01*
X53670Y181219D01*
X53679Y181070D01*
X53688Y180904D01*
Y180728D01*
X53697Y180552D01*
Y180358D01*
X53679Y179951D01*
Y179942D01*
Y179905D01*
X53670Y179840D01*
Y179766D01*
X53660Y179674D01*
X53642Y179563D01*
X53633Y179443D01*
X53614Y179313D01*
X53559Y179017D01*
X53494Y178721D01*
X53401Y178416D01*
X53346Y178277D01*
X53290Y178138D01*
Y178129D01*
X53272Y178111D01*
X53253Y178074D01*
X53225Y178027D01*
X53198Y177972D01*
X53152Y177898D01*
X53050Y177750D01*
X52911Y177593D01*
X52735Y177435D01*
X52532Y177287D01*
X52421Y177223D01*
X52301Y177167D01*
X52291D01*
X52273Y177158D01*
X52236Y177148D01*
X52189Y177130D01*
X52125Y177111D01*
X52051Y177102D01*
X51977Y177084D01*
X51884Y177075D01*
X51681Y177065D01*
X51459Y177075D01*
X51338Y177093D01*
X51218Y177130D01*
X51098Y177167D01*
X50968Y177223D01*
X50959D01*
X50941Y177241D01*
X50904Y177260D01*
X50858Y177287D01*
X50811Y177315D01*
X50747Y177361D01*
X50608Y177454D01*
X50450Y177583D01*
X50293Y177731D01*
X50155Y177907D01*
X50034Y178101D01*
Y178111D01*
X50025Y178129D01*
X50007Y178157D01*
X49988Y178194D01*
X49970Y178249D01*
X49942Y178305D01*
X49886Y178453D01*
X49822Y178619D01*
X49757Y178814D01*
X49701Y179026D01*
X49646Y179248D01*
Y179258D01*
X49637Y179276D01*
Y179313D01*
X49627Y179359D01*
X49618Y179424D01*
X49609Y179498D01*
X49599Y179581D01*
X49590Y179683D01*
X49581Y179794D01*
X49572Y179914D01*
X49562Y180053D01*
Y180201D01*
X49553Y180358D01*
Y180525D01*
Y180710D01*
X49562Y180895D01*
Y180904D01*
Y180941D01*
X49572Y180997D01*
Y181070D01*
X49581Y181154D01*
X49590Y181255D01*
X49599Y181367D01*
X49618Y181487D01*
X49655Y181746D01*
X49711Y182023D01*
X49775Y182291D01*
X49812Y182412D01*
X49859Y182532D01*
Y182541D01*
X49868Y182560D01*
X49886Y182588D01*
X49905Y182634D01*
X49933Y182680D01*
X49970Y182745D01*
X50043Y182884D01*
X50145Y183041D01*
X50275Y183207D01*
X50414Y183364D01*
X50580Y183522D01*
X50589Y183531D01*
X50599Y183540D01*
X50626Y183559D01*
X50663Y183587D01*
X50710Y183614D01*
X50765Y183651D01*
X50904Y183725D01*
X51070Y183790D01*
X51265Y183855D01*
X51486Y183901D01*
X51607Y183920D01*
X51792D01*
X51838Y183910D01*
D02*
G37*
G36*
X94823Y50863D02*
X93467D01*
Y47146D01*
X92899D01*
Y50863D01*
X91499D01*
Y51345D01*
X94823D01*
Y50863D01*
D02*
G37*
G36*
X98410D02*
X97010D01*
Y47146D01*
X96486D01*
Y50863D01*
X95086D01*
Y51345D01*
X98410D01*
Y50863D01*
D02*
G37*
G36*
X114506Y51388D02*
X114856Y51301D01*
X115206Y51126D01*
X115294Y51082D01*
X115469Y50951D01*
X115687Y50688D01*
X115906Y50382D01*
Y50339D01*
X115950Y50295D01*
X116037Y50032D01*
X116125Y49682D01*
X116168Y49245D01*
Y49201D01*
Y49158D01*
X116125Y48851D01*
X116081Y48501D01*
X115906Y48108D01*
X115862Y48020D01*
X115731Y47802D01*
X115469Y47583D01*
X115163Y47364D01*
X115075Y47320D01*
X114856Y47233D01*
X114550Y47146D01*
X114156Y47102D01*
X114069D01*
X113806Y47146D01*
X113457Y47233D01*
X113107Y47364D01*
X113019Y47408D01*
X112844Y47583D01*
X112582Y47802D01*
X112363Y48151D01*
Y48195D01*
X112319Y48239D01*
X112276Y48458D01*
X112188Y48808D01*
X112144Y49201D01*
Y49245D01*
Y49376D01*
X112188Y49551D01*
X112232Y49814D01*
X112407Y50339D01*
X112538Y50601D01*
X112713Y50820D01*
X112757Y50863D01*
X112801Y50907D01*
X112932Y50995D01*
X113107Y51126D01*
X113544Y51345D01*
X113850Y51388D01*
X114156Y51432D01*
X114244D01*
X114506Y51388D01*
D02*
G37*
G36*
X91805Y47146D02*
X91193D01*
X90712Y48414D01*
X88962D01*
X88481Y47146D01*
X87912D01*
X89487Y51345D01*
X90099D01*
X91805Y47146D01*
D02*
G37*
%LPC*%
G36*
X82308Y182393D02*
X80124Y179313D01*
X82308D01*
Y182393D01*
D02*
G37*
G36*
X107669Y187765D02*
X107660D01*
X107632Y187756D01*
X107586Y187738D01*
X107521Y187719D01*
X107456Y187701D01*
X107373Y187673D01*
X107216Y187627D01*
X107207D01*
X107179Y187617D01*
X107123Y187608D01*
X107049Y187590D01*
X106948Y187571D01*
X106818Y187553D01*
X106670Y187525D01*
X106494Y187497D01*
X106467D01*
X106439Y187488D01*
X106402Y187479D01*
X106300Y187460D01*
X106180Y187432D01*
X106050Y187395D01*
X105930Y187349D01*
X105819Y187284D01*
X105773Y187257D01*
X105736Y187220D01*
X105727Y187210D01*
X105708Y187183D01*
X105680Y187146D01*
X105653Y187090D01*
X105616Y187016D01*
X105588Y186942D01*
X105569Y186850D01*
X105560Y186748D01*
Y186739D01*
Y186711D01*
X105569Y186665D01*
X105579Y186609D01*
X105606Y186544D01*
X105634Y186480D01*
X105680Y186406D01*
X105736Y186341D01*
X105745Y186332D01*
X105773Y186313D01*
X105810Y186285D01*
X105865Y186258D01*
X105939Y186221D01*
X106032Y186193D01*
X106143Y186174D01*
X106263Y186165D01*
X106328D01*
X106393Y186174D01*
X106494Y186193D01*
X106605Y186211D01*
X106735Y186248D01*
X106874Y186295D01*
X107022Y186359D01*
X107031D01*
X107040Y186369D01*
X107086Y186396D01*
X107160Y186443D01*
X107253Y186507D01*
X107355Y186600D01*
X107466Y186711D01*
X107577Y186840D01*
X107669Y186988D01*
Y187765D01*
D02*
G37*
G36*
X121553Y191475D02*
X120656D01*
Y188894D01*
X121674D01*
X121729Y188903D01*
X121794Y188912D01*
X121951Y188931D01*
X122118Y188959D01*
X122293Y189005D01*
X122460Y189070D01*
X122608Y189162D01*
X122626Y189171D01*
X122663Y189218D01*
X122719Y189292D01*
X122784Y189393D01*
X122821Y189458D01*
X122848Y189532D01*
X122876Y189615D01*
X122904Y189717D01*
X122932Y189819D01*
X122941Y189930D01*
X122959Y190050D01*
Y190189D01*
Y190198D01*
Y190226D01*
Y190263D01*
X122950Y190309D01*
Y190365D01*
X122941Y190439D01*
X122913Y190596D01*
X122876Y190762D01*
X122811Y190929D01*
X122728Y191077D01*
X122673Y191142D01*
X122608Y191197D01*
X122589Y191206D01*
X122543Y191243D01*
X122460Y191290D01*
X122349Y191336D01*
X122201Y191391D01*
X122016Y191428D01*
X121803Y191465D01*
X121553Y191475D01*
D02*
G37*
G36*
X96736Y189329D02*
X96671D01*
X96597Y189319D01*
X96504Y189301D01*
X96393Y189273D01*
X96273Y189236D01*
X96153Y189181D01*
X96033Y189107D01*
X96023Y189097D01*
X95986Y189070D01*
X95931Y189014D01*
X95857Y188931D01*
X95783Y188829D01*
X95709Y188700D01*
X95635Y188533D01*
X95570Y188348D01*
X97790D01*
Y188357D01*
Y188376D01*
X97781Y188404D01*
X97772Y188441D01*
X97753Y188533D01*
X97716Y188644D01*
X97670Y188774D01*
X97614Y188903D01*
X97531Y189014D01*
X97439Y189107D01*
X97429Y189116D01*
X97392Y189144D01*
X97328Y189181D01*
X97254Y189218D01*
X97152Y189255D01*
X97032Y189292D01*
X96893Y189319D01*
X96736Y189329D01*
D02*
G37*
G36*
X87689Y187765D02*
X87680D01*
X87652Y187756D01*
X87606Y187738D01*
X87541Y187719D01*
X87476Y187701D01*
X87393Y187673D01*
X87236Y187627D01*
X87227D01*
X87199Y187617D01*
X87143Y187608D01*
X87069Y187590D01*
X86968Y187571D01*
X86838Y187553D01*
X86690Y187525D01*
X86514Y187497D01*
X86487D01*
X86459Y187488D01*
X86422Y187479D01*
X86320Y187460D01*
X86200Y187432D01*
X86070Y187395D01*
X85950Y187349D01*
X85839Y187284D01*
X85793Y187257D01*
X85756Y187220D01*
X85747Y187210D01*
X85728Y187183D01*
X85700Y187146D01*
X85673Y187090D01*
X85636Y187016D01*
X85608Y186942D01*
X85589Y186850D01*
X85580Y186748D01*
Y186739D01*
Y186711D01*
X85589Y186665D01*
X85599Y186609D01*
X85626Y186544D01*
X85654Y186480D01*
X85700Y186406D01*
X85756Y186341D01*
X85765Y186332D01*
X85793Y186313D01*
X85830Y186285D01*
X85885Y186258D01*
X85959Y186221D01*
X86052Y186193D01*
X86163Y186174D01*
X86283Y186165D01*
X86348D01*
X86413Y186174D01*
X86514Y186193D01*
X86625Y186211D01*
X86755Y186248D01*
X86894Y186295D01*
X87042Y186359D01*
X87051D01*
X87060Y186369D01*
X87106Y186396D01*
X87180Y186443D01*
X87273Y186507D01*
X87375Y186600D01*
X87486Y186711D01*
X87597Y186840D01*
X87689Y186988D01*
Y187765D01*
D02*
G37*
G36*
X126789Y189292D02*
X126659D01*
X126632Y189282D01*
X126539Y189273D01*
X126428Y189245D01*
X126289Y189199D01*
X126151Y189125D01*
X125993Y189023D01*
X125919Y188968D01*
X125845Y188894D01*
X125827Y188875D01*
X125781Y188820D01*
X125725Y188727D01*
X125651Y188607D01*
X125577Y188441D01*
X125522Y188237D01*
X125475Y188006D01*
X125457Y187728D01*
Y187719D01*
Y187691D01*
Y187654D01*
X125466Y187599D01*
Y187534D01*
X125475Y187460D01*
X125503Y187284D01*
X125549Y187099D01*
X125623Y186905D01*
X125716Y186720D01*
X125781Y186628D01*
X125845Y186554D01*
X125855D01*
X125864Y186535D01*
X125919Y186489D01*
X125993Y186433D01*
X126104Y186359D01*
X126234Y186285D01*
X126373Y186230D01*
X126539Y186184D01*
X126706Y186165D01*
X126752D01*
X126789Y186174D01*
X126872Y186184D01*
X126992Y186211D01*
X127122Y186258D01*
X127270Y186332D01*
X127418Y186424D01*
X127566Y186554D01*
X127584Y186572D01*
X127631Y186628D01*
X127686Y186720D01*
X127760Y186850D01*
X127834Y187007D01*
X127862Y187109D01*
X127890Y187210D01*
X127917Y187331D01*
X127936Y187451D01*
X127954Y187590D01*
Y187728D01*
Y187738D01*
Y187765D01*
Y187802D01*
X127945Y187858D01*
Y187923D01*
X127936Y187997D01*
X127908Y188163D01*
X127862Y188357D01*
X127788Y188552D01*
X127695Y188737D01*
X127566Y188894D01*
Y188903D01*
X127547Y188912D01*
X127501Y188959D01*
X127418Y189023D01*
X127316Y189097D01*
X127187Y189162D01*
X127039Y189227D01*
X126881Y189273D01*
X126789Y189292D01*
D02*
G37*
G36*
X136696Y189329D02*
X136631D01*
X136557Y189319D01*
X136464Y189301D01*
X136353Y189273D01*
X136233Y189236D01*
X136113Y189181D01*
X135993Y189107D01*
X135983Y189097D01*
X135946Y189070D01*
X135891Y189014D01*
X135817Y188931D01*
X135743Y188829D01*
X135669Y188700D01*
X135595Y188533D01*
X135530Y188348D01*
X137750D01*
Y188357D01*
Y188376D01*
X137741Y188404D01*
X137732Y188441D01*
X137713Y188533D01*
X137676Y188644D01*
X137630Y188774D01*
X137574Y188903D01*
X137491Y189014D01*
X137399Y189107D01*
X137389Y189116D01*
X137352Y189144D01*
X137288Y189181D01*
X137214Y189218D01*
X137112Y189255D01*
X136992Y189292D01*
X136853Y189319D01*
X136696Y189329D01*
D02*
G37*
G36*
X71642Y180247D02*
X71439D01*
X71411Y180238D01*
X71374D01*
X71282Y180219D01*
X71161Y180192D01*
X71032Y180146D01*
X70884Y180081D01*
X70745Y179998D01*
X70616Y179896D01*
X70606Y179877D01*
X70569Y179840D01*
X70514Y179776D01*
X70449Y179683D01*
X70394Y179572D01*
X70338Y179433D01*
X70292Y179285D01*
X70273Y179119D01*
Y179110D01*
Y179100D01*
Y179072D01*
Y179035D01*
Y178952D01*
X70283Y178841D01*
X70301Y178712D01*
X70329Y178573D01*
X70366Y178434D01*
X70421Y178296D01*
X70431Y178277D01*
X70458Y178240D01*
X70504Y178175D01*
X70569Y178111D01*
X70653Y178027D01*
X70773Y177953D01*
X70902Y177889D01*
X71069Y177842D01*
X71087D01*
X71115Y177833D01*
X71152D01*
X71245Y177824D01*
X71365Y177814D01*
X71513Y177805D01*
X71679Y177814D01*
X71855Y177833D01*
X72040Y177861D01*
X72049D01*
X72059Y177870D01*
X72086Y177879D01*
X72123Y177889D01*
X72216Y177926D01*
X72318Y177972D01*
X72438Y178046D01*
X72549Y178138D01*
X72660Y178259D01*
X72743Y178407D01*
Y178416D01*
X72752Y178425D01*
X72771Y178481D01*
X72808Y178564D01*
X72836Y178675D01*
X72863Y178804D01*
X72891Y178952D01*
Y179110D01*
X72882Y179267D01*
Y179276D01*
Y179285D01*
X72863Y179341D01*
X72845Y179424D01*
X72799Y179516D01*
X72734Y179637D01*
X72650Y179757D01*
X72540Y179877D01*
X72391Y179988D01*
X72373Y179998D01*
X72318Y180034D01*
X72234Y180081D01*
X72114Y180136D01*
X71975Y180183D01*
X71818Y180219D01*
X71642Y180247D01*
D02*
G37*
G36*
Y183179D02*
X71439Y183170D01*
X71411D01*
X71383Y183161D01*
X71346D01*
X71245Y183142D01*
X71124Y183115D01*
X70995Y183069D01*
X70865Y183013D01*
X70736Y182939D01*
X70634Y182837D01*
X70625Y182828D01*
X70597Y182791D01*
X70560Y182726D01*
X70523Y182643D01*
X70477Y182551D01*
X70440Y182430D01*
X70412Y182301D01*
X70403Y182162D01*
Y182143D01*
Y182097D01*
X70421Y182023D01*
X70440Y181922D01*
X70468Y181810D01*
X70514Y181690D01*
X70578Y181552D01*
X70671Y181422D01*
X70680Y181404D01*
X70727Y181367D01*
X70791Y181311D01*
X70884Y181246D01*
X71004Y181182D01*
X71152Y181126D01*
X71328Y181089D01*
X71531Y181070D01*
X71587D01*
X71633Y181080D01*
X71735Y181089D01*
X71864Y181117D01*
X72003Y181154D01*
X72151Y181219D01*
X72290Y181302D01*
X72410Y181422D01*
X72419Y181440D01*
X72456Y181487D01*
X72502Y181561D01*
X72558Y181662D01*
X72604Y181783D01*
X72650Y181922D01*
X72678Y182079D01*
X72688Y182255D01*
Y182264D01*
Y182273D01*
Y182301D01*
X72678Y182338D01*
X72669Y182421D01*
X72641Y182532D01*
X72595Y182643D01*
X72530Y182763D01*
X72447Y182884D01*
X72336Y182976D01*
X72318Y182985D01*
X72271Y183013D01*
X72197Y183050D01*
X72096Y183087D01*
X71975Y183133D01*
X71818Y183161D01*
X71642Y183179D01*
D02*
G37*
G36*
X104052Y79294D02*
X103965D01*
X103746Y79251D01*
X103440Y79207D01*
X103090Y79032D01*
X103047Y78988D01*
X103003Y78944D01*
X102959D01*
X102915Y78901D01*
X102784Y78769D01*
X102609Y78594D01*
X102434Y78332D01*
X89881Y56637D01*
Y56593D01*
Y56550D01*
X89837Y56506D01*
X89793Y56331D01*
X89749Y56287D01*
X89706Y56068D01*
Y56025D01*
Y55937D01*
X89662Y55806D01*
Y55631D01*
X89706Y55237D01*
X89881Y54800D01*
X89925D01*
X89968Y54712D01*
X90056Y54581D01*
X90099Y54537D01*
X90231Y54363D01*
X90274D01*
X90318Y54275D01*
X90581Y54144D01*
X90974Y53969D01*
X91237Y53925D01*
X91499Y53881D01*
X116606D01*
Y53925D01*
X116912D01*
X116999Y53969D01*
X117174D01*
X117262Y54013D01*
X117524Y54144D01*
X117831Y54406D01*
X118181Y54800D01*
X118224Y54887D01*
X118312Y55062D01*
X118356Y55369D01*
X118399Y55718D01*
Y55762D01*
Y55893D01*
Y55981D01*
X118356Y56156D01*
X118268Y56375D01*
X118137Y56637D01*
Y56681D01*
X105627Y78376D01*
X105583D01*
X105540Y78420D01*
X105452Y78594D01*
Y78638D01*
X105365Y78682D01*
X105277Y78769D01*
X105234Y78813D01*
X105190Y78857D01*
X104927Y79032D01*
X104534Y79163D01*
X104315Y79251D01*
X104052D01*
Y79294D01*
D02*
G37*
%LPD*%
G36*
X105802Y74789D02*
Y74658D01*
Y74439D01*
Y74133D01*
Y73827D01*
Y73433D01*
Y72646D01*
Y72602D01*
Y72471D01*
Y72252D01*
Y71990D01*
Y71684D01*
Y71334D01*
Y70546D01*
Y70503D01*
X105758Y70415D01*
Y70284D01*
X105715Y70109D01*
Y69890D01*
X105671Y69584D01*
Y69540D01*
Y69409D01*
X105627Y69103D01*
X105583Y68928D01*
Y68709D01*
X105540Y68403D01*
X105496Y68097D01*
X105452Y67703D01*
X105408Y67310D01*
X105321Y66829D01*
X105277Y66260D01*
X105190Y65648D01*
X105102Y64991D01*
Y64948D01*
Y64816D01*
Y64641D01*
X105059Y64467D01*
Y64248D01*
X105015Y63942D01*
Y63898D01*
Y63810D01*
X104971Y63504D01*
X104884Y63154D01*
X104840Y63067D01*
X104796Y62979D01*
X103178D01*
Y63067D01*
X103134Y63198D01*
Y63417D01*
X103047Y63810D01*
Y64029D01*
X103003Y64335D01*
X102959Y64685D01*
X102915Y65035D01*
X102828Y65516D01*
X102784Y65997D01*
Y66041D01*
Y66129D01*
X102740Y66260D01*
Y66435D01*
X102697Y66916D01*
X102609Y67441D01*
X102565Y67966D01*
X102522Y68447D01*
X102478Y68622D01*
Y68797D01*
X102434Y68884D01*
Y68928D01*
Y68972D01*
Y69016D01*
X102390Y69234D01*
Y69497D01*
X102347Y69715D01*
Y69759D01*
Y69890D01*
Y70109D01*
X102303Y70459D01*
Y70503D01*
Y70634D01*
Y70853D01*
Y71159D01*
Y71465D01*
Y71859D01*
X102259Y72646D01*
Y72690D01*
Y72821D01*
Y73040D01*
Y73346D01*
Y73652D01*
Y74046D01*
Y74833D01*
X105802D01*
Y74789D01*
D02*
G37*
G36*
X105583Y61536D02*
Y61449D01*
Y61273D01*
Y61055D01*
Y60530D01*
Y59918D01*
Y59874D01*
Y59786D01*
Y59611D01*
Y59436D01*
Y58912D01*
Y58343D01*
X102259D01*
Y58387D01*
Y58474D01*
Y58649D01*
Y58824D01*
Y59349D01*
Y59918D01*
Y59961D01*
Y60049D01*
Y60224D01*
Y60442D01*
Y60967D01*
Y61580D01*
X105583D01*
Y61536D01*
D02*
G37*
%LPC*%
G36*
X51727Y183198D02*
X51681D01*
X51644Y183189D01*
X51551Y183179D01*
X51440Y183142D01*
X51311Y183087D01*
X51163Y183004D01*
X51089Y182939D01*
X51015Y182874D01*
X50950Y182800D01*
X50876Y182708D01*
Y182699D01*
X50858Y182680D01*
X50839Y182652D01*
X50820Y182615D01*
X50784Y182560D01*
X50756Y182495D01*
X50719Y182412D01*
X50673Y182319D01*
X50636Y182218D01*
X50599Y182097D01*
X50552Y181968D01*
X50515Y181829D01*
X50478Y181672D01*
X50441Y181505D01*
X50414Y181320D01*
X50386Y181126D01*
Y181117D01*
Y181080D01*
X50376Y181024D01*
X50367Y180941D01*
Y180849D01*
X50358Y180747D01*
Y180617D01*
X50349Y180488D01*
Y180340D01*
Y180192D01*
X50367Y179868D01*
X50404Y179535D01*
X50460Y179211D01*
Y179202D01*
X50469Y179174D01*
X50478Y179128D01*
X50497Y179072D01*
X50524Y179008D01*
X50552Y178934D01*
X50617Y178749D01*
X50710Y178554D01*
X50820Y178360D01*
X50950Y178175D01*
X51024Y178101D01*
X51107Y178027D01*
X51117D01*
X51126Y178009D01*
X51154Y177999D01*
X51181Y177972D01*
X51274Y177926D01*
X51394Y177879D01*
X51533Y177842D01*
X51681Y177824D01*
X51764D01*
X51847Y177833D01*
X51940Y177851D01*
X52023Y177889D01*
X52032D01*
X52042Y177898D01*
X52097Y177935D01*
X52180Y177990D01*
X52282Y178074D01*
X52402Y178194D01*
X52513Y178342D01*
X52569Y178425D01*
X52615Y178517D01*
X52661Y178629D01*
X52708Y178740D01*
Y178749D01*
X52717Y178767D01*
X52726Y178804D01*
X52745Y178850D01*
X52754Y178915D01*
X52772Y178989D01*
X52791Y179063D01*
X52819Y179156D01*
X52856Y179368D01*
X52883Y179609D01*
X52911Y179868D01*
X52920Y180146D01*
Y180155D01*
Y180183D01*
Y180219D01*
Y180275D01*
Y180340D01*
Y180423D01*
Y180506D01*
X52911Y180608D01*
Y180821D01*
X52902Y181052D01*
X52883Y181292D01*
X52865Y181533D01*
Y181542D01*
Y181561D01*
X52856Y181598D01*
Y181644D01*
X52846Y181690D01*
X52828Y181755D01*
X52800Y181912D01*
X52754Y182088D01*
X52689Y182282D01*
X52615Y182476D01*
X52513Y182671D01*
Y182680D01*
X52504Y182689D01*
X52458Y182754D01*
X52393Y182837D01*
X52301Y182930D01*
X52189Y183022D01*
X52060Y183106D01*
X51903Y183170D01*
X51820Y183189D01*
X51727Y183198D01*
D02*
G37*
G36*
X114156Y50951D02*
X114069D01*
X113806Y50907D01*
X113457Y50776D01*
X113150Y50557D01*
X113063Y50470D01*
X112932Y50207D01*
X112844Y50032D01*
X112801Y49814D01*
X112713Y49507D01*
Y49201D01*
Y49158D01*
Y49070D01*
X112757Y48939D01*
Y48764D01*
X112888Y48370D01*
X113107Y47976D01*
X113194Y47889D01*
X113413Y47758D01*
X113719Y47627D01*
X114156Y47539D01*
X114244D01*
X114506Y47583D01*
X114856Y47714D01*
X115163Y47976D01*
Y48020D01*
X115250Y48064D01*
X115381Y48326D01*
X115512Y48720D01*
X115600Y49245D01*
Y49289D01*
Y49332D01*
Y49551D01*
X115512Y49814D01*
X115425Y50120D01*
X115381Y50207D01*
X115294Y50339D01*
X115119Y50557D01*
X114900Y50732D01*
X114856Y50776D01*
X114681Y50863D01*
X114419Y50907D01*
X114156Y50951D01*
D02*
G37*
G36*
X89793Y50907D02*
Y50820D01*
X89749Y50645D01*
X89662Y50426D01*
X89575Y50120D01*
X89093Y48895D01*
X90537D01*
X90099Y50032D01*
Y50076D01*
X90056Y50120D01*
X89968Y50339D01*
X89881Y50601D01*
X89793Y50907D01*
D02*
G37*
%LPD*%
D22*
X206616Y221031D02*
G03*
X206616Y221031I-7874J0D01*
G01*
X17616Y12369D02*
G03*
X17616Y12369I-7874J0D01*
G01*
X206596Y12468D02*
G03*
X206596Y12468I-7874J0D01*
G01*
X17616Y221031D02*
G03*
X17616Y221031I-7874J0D01*
G01*
X147179Y191100D02*
X176179D01*
X177179D01*
Y190100D02*
Y191100D01*
Y171100D02*
Y190100D01*
X147179Y171100D02*
Y191100D01*
Y171100D02*
X177179D01*
X139090Y177324D02*
X137090D01*
X138090D01*
Y172325D01*
X137090Y171326D01*
X136091D01*
X135091Y172325D01*
X141089Y176324D02*
X142089Y177324D01*
X144088D01*
X145088Y176324D01*
Y175324D01*
X144088Y174325D01*
X143088D01*
X144088D01*
X145088Y173325D01*
Y172325D01*
X144088Y171326D01*
X142089D01*
X141089Y172325D01*
X172711Y199598D02*
X169379D01*
Y197099D01*
X171045Y197932D01*
X171878D01*
X172711Y197099D01*
Y195433D01*
X171878Y194600D01*
X170212D01*
X169379Y195433D01*
X174377Y199598D02*
Y196266D01*
X176043Y194600D01*
X177710Y196266D01*
Y199598D01*
X148611Y198965D02*
X147778Y199798D01*
X146112D01*
X145279Y198965D01*
Y195633D01*
X146112Y194800D01*
X147778D01*
X148611Y195633D01*
Y197299D01*
X146945D01*
X150277Y194800D02*
Y199798D01*
X153610Y194800D01*
Y199798D01*
X155276D02*
Y194800D01*
X157775D01*
X158608Y195633D01*
Y198965D01*
X157775Y199798D01*
X155276D01*
D23*
X145279Y13097D02*
Y3100D01*
X151944D01*
X56179Y2800D02*
Y12797D01*
X62844Y2800D01*
Y12797D01*
M02*
