G04 Layer_Color=128*
%FSLAX25Y25*%
%MOIN*%
G70*
G01*
G75*
%ADD10C,0.00394*%
%ADD11C,0.00200*%
D10*
X121158Y34011D02*
X126670D01*
X121158Y10389D02*
X126670D01*
Y34011D01*
X121158Y10389D02*
Y34011D01*
X81760D02*
X87272D01*
X81760Y10389D02*
X87272D01*
Y34011D01*
X81760Y10389D02*
Y34011D01*
D11*
X159411Y105457D02*
X163347D01*
X161379Y103489D02*
Y107426D01*
X159411Y125143D02*
X163347D01*
X161379Y123174D02*
Y127111D01*
X70031Y77034D02*
X74362D01*
X72197Y74869D02*
Y79200D01*
X146804Y77034D02*
X151135D01*
X148969Y74869D02*
Y79200D01*
X150112Y176100D02*
X154246D01*
X152179Y174033D02*
Y178167D01*
X150112Y186100D02*
X154246D01*
X152179Y184033D02*
Y188167D01*
X160112Y176100D02*
X164246D01*
X162179Y174033D02*
Y178167D01*
X160112Y186100D02*
X164246D01*
X162179Y184033D02*
Y188167D01*
X170112Y176100D02*
X174246D01*
X172179Y174033D02*
Y178167D01*
X170112Y186100D02*
X174246D01*
X172179Y184033D02*
Y188167D01*
X155207Y210000D02*
X158751D01*
X156979Y208228D02*
Y211772D01*
X165207Y210000D02*
X168751D01*
X166979Y208228D02*
Y211772D01*
X65827Y209900D02*
X70158D01*
X67993Y207735D02*
Y212065D01*
X142600Y209900D02*
X146931D01*
X144765Y207735D02*
Y212065D01*
X37917Y34540D02*
X42641D01*
X40279Y32178D02*
Y36902D01*
X37917Y64060D02*
X42641D01*
X40279Y61698D02*
Y66422D01*
X43314Y105500D02*
X47644D01*
X45479Y103335D02*
Y107665D01*
X43314Y125500D02*
X47644D01*
X45479Y123335D02*
Y127665D01*
X123314Y105500D02*
X127644D01*
X125479Y103335D02*
Y107665D01*
X123314Y145500D02*
X127644D01*
X125479Y143335D02*
Y147665D01*
X150669Y145600D02*
X154605D01*
X152637Y143631D02*
Y147569D01*
X170353Y145600D02*
X174291D01*
X172322Y143631D02*
Y147569D01*
X150669Y161500D02*
X154605D01*
X152637Y159531D02*
Y163469D01*
X170353Y161500D02*
X174291D01*
X172322Y159531D02*
Y163469D01*
X158110Y41600D02*
X162048D01*
X160079Y39632D02*
Y43569D01*
X158110Y21600D02*
X162048D01*
X160079Y19632D02*
Y23569D01*
X50410Y209700D02*
X54347D01*
X52379Y207732D02*
Y211668D01*
X40411Y209700D02*
X44348D01*
X42379Y207732D02*
Y211668D01*
X120764Y22199D02*
X127063D01*
X123914Y19050D02*
Y25349D01*
X81367Y22199D02*
X87666D01*
X84516Y19050D02*
Y25349D01*
X28879Y221800D02*
X30079D01*
X29479Y221200D02*
Y222400D01*
X27479Y211800D02*
X28679D01*
X28079Y211200D02*
Y212400D01*
X28879Y204200D02*
X30079D01*
X29479Y203600D02*
Y204800D01*
X40279Y225200D02*
X41479D01*
X40879Y224600D02*
Y225800D01*
X54979Y226000D02*
X56179D01*
X55579Y225400D02*
Y226600D01*
X80279Y224000D02*
X81479D01*
X80879Y223400D02*
Y224600D01*
X110579Y223500D02*
X111779D01*
X111179Y222900D02*
Y224100D01*
X94179Y212100D02*
X95379D01*
X94779Y211500D02*
Y212700D01*
X85679Y203900D02*
X86879D01*
X86279Y203300D02*
Y204500D01*
X110079Y206400D02*
X111279D01*
X110679Y205800D02*
Y207000D01*
X122479Y195900D02*
X123679D01*
X123079Y195300D02*
Y196500D01*
X119979Y178400D02*
X121179D01*
X120579Y177800D02*
Y179000D01*
X130179Y166700D02*
X131379D01*
X130779Y166100D02*
Y167300D01*
X138679Y154300D02*
X139879D01*
X139279Y153700D02*
Y154900D01*
X139479Y137000D02*
X140679D01*
X140079Y136400D02*
Y137600D01*
X140679Y119900D02*
X141879D01*
X141279Y119300D02*
Y120500D01*
X123679Y120800D02*
X124879D01*
X124279Y120200D02*
Y121400D01*
X128179Y129300D02*
X129379D01*
X128779Y128700D02*
Y129900D01*
X201079Y163300D02*
X202279D01*
X201679Y162700D02*
Y163900D01*
X197079Y188300D02*
X198279D01*
X197679Y187700D02*
Y188900D01*
X199679Y202500D02*
X200879D01*
X200279Y201900D02*
Y203100D01*
X187179Y224900D02*
X188379D01*
X187779Y224300D02*
Y225500D01*
X192279Y210700D02*
X193479D01*
X192879Y210100D02*
Y211300D01*
X186279Y190300D02*
X187479D01*
X186879Y189700D02*
Y190900D01*
X185779Y171800D02*
X186979D01*
X186379Y171200D02*
Y172400D01*
X182679Y154000D02*
X183879D01*
X183279Y153400D02*
Y154600D01*
X180079Y205300D02*
X181279D01*
X180679Y204700D02*
Y205900D01*
X175279Y220300D02*
X176479D01*
X175879Y219700D02*
Y220900D01*
X152279Y223500D02*
X153479D01*
X152879Y222900D02*
Y224100D01*
X138679Y220600D02*
X139879D01*
X139279Y220000D02*
Y221200D01*
X150279Y197600D02*
X151479D01*
X150879Y197000D02*
Y198200D01*
X160379Y198800D02*
X161579D01*
X160979Y198200D02*
Y199400D01*
X133079Y180000D02*
X134279D01*
X133679Y179400D02*
Y180600D01*
X140779Y198300D02*
X141979D01*
X141379Y197700D02*
Y198900D01*
M02*
