G04 Layer_Color=16711935*
%FSLAX25Y25*%
%MOIN*%
G70*
G01*
G75*
%ADD42O,0.07887X0.12611*%
%ADD43O,0.12611X0.07887*%
%ADD44R,0.07300X0.07300*%
%ADD45C,0.07300*%
%ADD46R,0.06706X0.06706*%
%ADD47C,0.06706*%
%ADD48C,0.06800*%
%ADD49R,0.06800X0.06800*%
%ADD50R,0.06706X0.06706*%
D42*
X219370Y183780D02*
D03*
X209370D02*
D03*
X48228Y348819D02*
D03*
X53898Y234764D02*
D03*
X333976Y248976D02*
D03*
X323976D02*
D03*
X313976D02*
D03*
X253976Y193976D02*
D03*
X243976D02*
D03*
Y133976D02*
D03*
X233976D02*
D03*
X98976Y198976D02*
D03*
X88976D02*
D03*
X78976D02*
D03*
X68976Y198976D02*
D03*
D43*
X158268Y251280D02*
D03*
X283976Y28976D02*
D03*
X273976Y63976D02*
D03*
Y73976D02*
D03*
Y83976D02*
D03*
D44*
X169700Y223100D02*
D03*
D45*
Y213100D02*
D03*
Y203100D02*
D03*
Y193100D02*
D03*
Y183100D02*
D03*
Y173100D02*
D03*
Y163100D02*
D03*
Y153100D02*
D03*
Y143100D02*
D03*
Y133100D02*
D03*
X179700D02*
D03*
Y143100D02*
D03*
Y153100D02*
D03*
Y163100D02*
D03*
Y173100D02*
D03*
Y183100D02*
D03*
Y193100D02*
D03*
Y203100D02*
D03*
Y213100D02*
D03*
Y223100D02*
D03*
D46*
X260468Y125091D02*
D03*
X38876Y227876D02*
D03*
X22776Y147476D02*
D03*
D47*
X260468Y115091D02*
D03*
Y105091D02*
D03*
Y95091D02*
D03*
X38876Y237876D02*
D03*
Y247876D02*
D03*
X22776Y167476D02*
D03*
Y157476D02*
D03*
X19976Y58576D02*
D03*
X29976D02*
D03*
D48*
X39076Y299576D02*
D03*
Y269576D02*
D03*
Y279576D02*
D03*
Y289576D02*
D03*
D49*
Y259576D02*
D03*
D50*
X39976Y58576D02*
D03*
M02*
