M48
;Layer_Color=9474304
;FILE_FORMAT=2:5
INCH,TZ
;TYPE=PLATED
T1F00S00C0.01181
T2F00S00C0.01200
T3F00S00C0.03500
T4F00S00C0.03543
T5F00S00C0.04000
T6F00S00C0.05906
%
T01
X20000Y20000
X40000
X50000Y40000
X30000
X70000
X90000
X110000
X130000
X150000
X170000
X190000
X200000Y20000
X180000
X160000
X140000
X120000
X100000
X80000
X60000
X220000
X240000
X260000
X280000
X300000
X320000
X330000Y40000
X310000
X290000
X270000
X250000
X230000
X240000Y60000
X260000
X250000Y80000
X230000
X240000Y100000
X220000
X230000Y120000
X250000
X270000
X290000
X310000
X330000
X320000Y140000
X300000
X280000
X260000
X270000Y160000
X290000
X310000
X330000
X320000Y180000
X300000
X280000
X260000
X240000
X250000Y160000
X230000
X220000Y140000
X230000Y200000
X270000
X290000
X310000
X330000
X320000Y100000
X300000
X280000
X290000Y80000
X310000
X330000
X320000Y60000
X300000
X220000
X200000
X180000
X160000
X140000
X120000
X100000
X80000
X60000
X70000Y80000
X90000
X110000
X130000
X150000
X140000Y100000
X120000
X100000
X80000
X60000
X70000Y120000
X90000
X110000
X130000
X120000Y140000
X100000
X80000
X60000
X70000Y160000
X90000
X80000Y180000
X130000Y160000
X190000
X210000
X200000Y180000
X210000Y200000
X190000
X200000Y140000
X210000Y120000
X190000
X170000
X180000Y100000
X200000
X210000Y80000
X190000
X50000
X40000Y100000
X20000
X30000Y120000
X50000
X40000Y140000
X20000
Y180000
X40000
X30000Y200000
X40000Y220000
X20000
X30000Y240000
X20000Y260000
X30000Y280000
X50000
Y320000
X30000
X40000Y340000
X20000
Y300000
X60000
X70000Y320000
X90000
X110000
X130000
X150000
X170000
X190000
X210000
X200000Y340000
X180000
X160000
X140000
X120000
X100000
Y300000
X120000
X140000
X160000
X180000
X200000
X210000Y280000
X190000
X170000
X150000
X130000
X110000
X90000
X70000
X60000Y260000
X70000Y240000
X90000
X110000
X130000
X150000
X170000
X190000
X210000
X200000Y260000
X180000
X160000
X140000
X120000
X100000
X60000Y340000
X200000Y220000
X220000
X240000
X260000
X280000
X300000
X320000
X330000Y240000
X310000
X290000
X270000
X250000
X230000
X240000Y260000
X260000
X280000
X300000
X320000
X330000Y280000
X310000
X290000
X270000
X250000
X230000
X240000Y300000
X260000
X280000
X300000
X320000
X330000Y320000
X310000
X290000
X270000
X250000
X230000
X240000Y340000
X260000
X280000
X300000
X320000
X220000
Y300000
Y260000
T02
X60000Y145000
X63500Y145500
X66000Y150000
Y160000
Y165000
X62500Y168500
X112000Y190500
X127500Y190000
X142500
X51500Y169500
X47000Y169000
X42000Y166000
X38500
X35000Y166500
X31500
X33500Y163000
X37000
X40000Y162500
X43500
X41500Y153000
X43000Y149500
X44500Y146500
X47500Y145000
X50500
X55000
X39000Y150000
X35000Y150500
X31000Y150000
X29500Y153500
X33000
X37000
X29500Y163000
X28000Y96500
X32000
X38500
X41000Y94500
X41500Y90500
X41000Y87000
X41500Y83000
Y76500
X38000Y73500
Y70000
Y66500
X34500Y68500
Y72000
X35000Y75000
X24500Y74000
X22500Y72000
Y68500
X25000Y70500
Y65500
X21000Y74500
X18500Y77500
Y81500
X19000Y86500
X18500Y91500
X23000Y96000
T03
X39076Y259576
Y269576
Y279576
Y289576
Y299576
T04
X260468Y95091
Y105091
Y115091
Y125091
X22776Y147476
Y157476
Y167476
X19976Y58576
X29976
X39976
X38876Y227876
Y237876
Y247876
T05
X169700Y133100
Y143100
Y153100
Y163100
Y173100
Y183100
Y193100
Y203100
X179700
Y193100
Y183100
Y173100
Y163100
Y153100
Y143100
Y133100
Y213100
X169700
Y223100
X179700
T06
X283976Y28976
X273976Y63976
Y73976
Y83976
X243976Y133976
X233976
X219370Y183780
X243976Y193976
X253976
X209370Y183780
X98976Y198976
X88976
X78976
X68976Y198976
X53898Y234764
X48228Y348819
X158268Y251280
X313976Y248976
X323976
X333976
M30
