G04 Layer_Color=255*
%FSLAX25Y25*%
%MOIN*%
G70*
G01*
G75*
%ADD19O,0.07087X0.11811*%
%ADD20O,0.11811X0.07087*%
%ADD21R,0.06500X0.06500*%
%ADD22C,0.06500*%
%ADD23R,0.05905X0.05905*%
%ADD24C,0.05905*%
%ADD25C,0.06000*%
%ADD26R,0.06000X0.06000*%
%ADD27R,0.05905X0.05905*%
D19*
X219370Y183780D02*
D03*
X209370D02*
D03*
X48228Y348819D02*
D03*
X53898Y234764D02*
D03*
X333976Y248976D02*
D03*
X323976D02*
D03*
X313976D02*
D03*
X253976Y193976D02*
D03*
X243976D02*
D03*
Y133976D02*
D03*
X233976D02*
D03*
X98976Y198976D02*
D03*
X88976D02*
D03*
X78976D02*
D03*
X68976Y198976D02*
D03*
D20*
X158268Y251280D02*
D03*
X283976Y28976D02*
D03*
X273976Y63976D02*
D03*
Y73976D02*
D03*
Y83976D02*
D03*
D21*
X169700Y223100D02*
D03*
D22*
Y213100D02*
D03*
Y203100D02*
D03*
Y193100D02*
D03*
Y183100D02*
D03*
Y173100D02*
D03*
Y163100D02*
D03*
Y153100D02*
D03*
Y143100D02*
D03*
Y133100D02*
D03*
X179700D02*
D03*
Y143100D02*
D03*
Y153100D02*
D03*
Y163100D02*
D03*
Y173100D02*
D03*
Y183100D02*
D03*
Y193100D02*
D03*
Y203100D02*
D03*
Y213100D02*
D03*
Y223100D02*
D03*
D23*
X260468Y125091D02*
D03*
X38876Y227876D02*
D03*
X22776Y147476D02*
D03*
D24*
X260468Y115091D02*
D03*
Y105091D02*
D03*
Y95091D02*
D03*
X38876Y237876D02*
D03*
Y247876D02*
D03*
X22776Y167476D02*
D03*
Y157476D02*
D03*
X19976Y58576D02*
D03*
X29976D02*
D03*
D25*
X39076Y299576D02*
D03*
Y269576D02*
D03*
Y279576D02*
D03*
Y289576D02*
D03*
D26*
Y259576D02*
D03*
D27*
X39976Y58576D02*
D03*
M02*
