G04 Layer_Physical_Order=2*
G04 Layer_Color=16711680*
%FSLAX25Y25*%
%MOIN*%
G70*
G01*
G75*
%ADD17C,0.04000*%
%ADD19O,0.07087X0.11811*%
%ADD20O,0.11811X0.07087*%
%ADD21R,0.06500X0.06500*%
%ADD22C,0.06500*%
%ADD23R,0.05905X0.05905*%
%ADD24C,0.05905*%
%ADD25C,0.06000*%
%ADD26R,0.06000X0.06000*%
%ADD27R,0.05905X0.05905*%
%ADD28C,0.02362*%
%ADD29C,0.02400*%
G36*
X348051Y2549D02*
X315541Y2549D01*
Y11811D01*
X315347Y12787D01*
X314795Y13613D01*
X313968Y14166D01*
X312992Y14360D01*
X64961D01*
X63985Y14166D01*
X63158Y13613D01*
X62606Y12787D01*
X62412Y11811D01*
Y2549D01*
X2549Y2549D01*
Y357951D01*
X348051D01*
Y2549D01*
D02*
G37*
%LPC*%
G36*
X243976Y141930D02*
X242529Y141739D01*
X241181Y141181D01*
X240023Y140292D01*
X239281Y139325D01*
X239199Y139291D01*
X238754D01*
X238672Y139325D01*
X237930Y140292D01*
X236772Y141181D01*
X235423Y141739D01*
X233976Y141930D01*
X232529Y141739D01*
X231181Y141181D01*
X230023Y140292D01*
X229134Y139134D01*
X228576Y137786D01*
X228385Y136339D01*
Y131614D01*
X228576Y130167D01*
X229134Y128819D01*
X230023Y127661D01*
X231181Y126772D01*
X232529Y126214D01*
X233976Y126023D01*
X235423Y126214D01*
X236772Y126772D01*
X237930Y127661D01*
X238672Y128628D01*
X238754Y128662D01*
X239199D01*
X239281Y128628D01*
X240023Y127661D01*
X241181Y126772D01*
X242529Y126214D01*
X243976Y126023D01*
X245424Y126214D01*
X246772Y126772D01*
X247930Y127661D01*
X248818Y128819D01*
X249377Y130167D01*
X249568Y131614D01*
Y136339D01*
X249377Y137786D01*
X248818Y139134D01*
X247930Y140292D01*
X246772Y141181D01*
X245424Y141739D01*
X243976Y141930D01*
D02*
G37*
G36*
X172950Y228389D02*
X166450D01*
X165670Y228234D01*
X165008Y227792D01*
X164566Y227131D01*
X164411Y226350D01*
Y219850D01*
X164566Y219070D01*
X165008Y218408D01*
X165670Y217966D01*
X166405Y217820D01*
X166477Y217694D01*
X166564Y217311D01*
X165956Y216844D01*
X165114Y215748D01*
X164585Y214471D01*
X164405Y213100D01*
X164585Y211730D01*
X165114Y210452D01*
X165956Y209356D01*
X167052Y208514D01*
X167449Y208350D01*
Y207850D01*
X167052Y207686D01*
X165956Y206844D01*
X165848Y206704D01*
X165583Y206594D01*
X164747Y205953D01*
X164747Y205953D01*
X152147Y193353D01*
X151506Y192517D01*
X151103Y191544D01*
X150965Y190500D01*
X150965Y190500D01*
Y96500D01*
X150965Y96500D01*
X151103Y95456D01*
X151506Y94483D01*
X152147Y93647D01*
X219671Y26124D01*
X220506Y25482D01*
X221479Y25079D01*
X222524Y24942D01*
X222524Y24942D01*
X274627D01*
X274646Y24938D01*
X275208Y24926D01*
X276281Y24835D01*
X276720Y24768D01*
X277685Y24546D01*
X278093Y24419D01*
X278508Y24265D01*
X278909Y24092D01*
X279345Y23874D01*
X279415Y23855D01*
X279476Y23814D01*
X279698Y23770D01*
X280167Y23576D01*
X281614Y23385D01*
X286339D01*
X287786Y23576D01*
X289134Y24134D01*
X290292Y25023D01*
X291181Y26181D01*
X291739Y27529D01*
X291930Y28976D01*
X291739Y30424D01*
X291181Y31772D01*
X290292Y32930D01*
X289134Y33819D01*
X287786Y34377D01*
X286339Y34568D01*
X281614D01*
X280167Y34377D01*
X279698Y34183D01*
X279476Y34139D01*
X279415Y34098D01*
X279345Y34079D01*
X278909Y33861D01*
X278508Y33688D01*
X278093Y33534D01*
X277685Y33407D01*
X276720Y33185D01*
X276281Y33117D01*
X275208Y33027D01*
X274646Y33015D01*
X274627Y33011D01*
X224195D01*
X159035Y98171D01*
Y188829D01*
X164022Y193816D01*
X164470Y193595D01*
X164405Y193100D01*
X164585Y191730D01*
X165114Y190452D01*
X165956Y189356D01*
X167052Y188514D01*
X167449Y188350D01*
Y187850D01*
X167052Y187686D01*
X165956Y186844D01*
X165114Y185748D01*
X164585Y184471D01*
X164405Y183100D01*
X164585Y181730D01*
X165114Y180452D01*
X165956Y179356D01*
X167052Y178514D01*
X167449Y178350D01*
Y177850D01*
X167052Y177686D01*
X165956Y176844D01*
X165114Y175748D01*
X164585Y174471D01*
X164405Y173100D01*
X164585Y171730D01*
X165114Y170452D01*
X165956Y169356D01*
X167052Y168514D01*
X167449Y168350D01*
Y167850D01*
X167052Y167686D01*
X165956Y166844D01*
X165114Y165748D01*
X164585Y164471D01*
X164405Y163100D01*
X164585Y161730D01*
X165114Y160452D01*
X165956Y159356D01*
X167052Y158514D01*
X167449Y158350D01*
Y157850D01*
X167052Y157686D01*
X165956Y156844D01*
X165114Y155748D01*
X164585Y154471D01*
X164405Y153100D01*
X164585Y151730D01*
X165114Y150452D01*
X165956Y149356D01*
X167052Y148514D01*
X167449Y148350D01*
Y147850D01*
X167052Y147686D01*
X165956Y146844D01*
X165114Y145748D01*
X164585Y144471D01*
X164405Y143100D01*
X164585Y141730D01*
X165114Y140452D01*
X165956Y139356D01*
X167052Y138514D01*
X167449Y138350D01*
Y137850D01*
X167052Y137686D01*
X165956Y136844D01*
X165114Y135748D01*
X164585Y134471D01*
X164405Y133100D01*
X164585Y131730D01*
X165114Y130452D01*
X165956Y129356D01*
X167052Y128514D01*
X168330Y127985D01*
X169700Y127805D01*
X171071Y127985D01*
X172348Y128514D01*
X173444Y129356D01*
X174286Y130452D01*
X174450Y130849D01*
X174950D01*
X175114Y130452D01*
X175956Y129356D01*
X177052Y128514D01*
X178330Y127985D01*
X179700Y127805D01*
X181071Y127985D01*
X182348Y128514D01*
X183444Y129356D01*
X184286Y130452D01*
X184815Y131730D01*
X184995Y133100D01*
X184815Y134471D01*
X184286Y135748D01*
X183444Y136844D01*
X182348Y137686D01*
X181951Y137850D01*
Y138350D01*
X182348Y138514D01*
X183444Y139356D01*
X184286Y140452D01*
X184815Y141730D01*
X184995Y143100D01*
X184815Y144471D01*
X184286Y145748D01*
X183444Y146844D01*
X182348Y147686D01*
X181951Y147850D01*
Y148350D01*
X182348Y148514D01*
X183444Y149356D01*
X184286Y150452D01*
X184815Y151730D01*
X184995Y153100D01*
X184815Y154471D01*
X184286Y155748D01*
X183444Y156844D01*
X182348Y157686D01*
X181951Y157850D01*
Y158350D01*
X182348Y158514D01*
X183444Y159356D01*
X184286Y160452D01*
X184815Y161730D01*
X184995Y163100D01*
X184815Y164471D01*
X184286Y165748D01*
X183444Y166844D01*
X182348Y167686D01*
X181951Y167850D01*
Y168350D01*
X182348Y168514D01*
X183444Y169356D01*
X184286Y170452D01*
X184815Y171730D01*
X184995Y173100D01*
X184815Y174471D01*
X184286Y175748D01*
X183444Y176844D01*
X182348Y177686D01*
X181951Y177850D01*
Y178350D01*
X182348Y178514D01*
X183444Y179356D01*
X184286Y180452D01*
X184815Y181730D01*
X184995Y183100D01*
X184815Y184471D01*
X184286Y185748D01*
X183444Y186844D01*
X182348Y187686D01*
X181951Y187850D01*
Y188350D01*
X182348Y188514D01*
X183444Y189356D01*
X184286Y190452D01*
X184815Y191730D01*
X184995Y193100D01*
X184815Y194471D01*
X184286Y195748D01*
X183444Y196844D01*
X182348Y197686D01*
X181951Y197850D01*
Y198350D01*
X182348Y198514D01*
X183444Y199356D01*
X184286Y200452D01*
X184815Y201730D01*
X184995Y203100D01*
X184815Y204471D01*
X184286Y205748D01*
X183444Y206844D01*
X182348Y207686D01*
X181951Y207850D01*
Y208350D01*
X182348Y208514D01*
X183444Y209356D01*
X184286Y210452D01*
X184815Y211730D01*
X184864Y212100D01*
X179700D01*
Y214100D01*
X184864D01*
X184815Y214471D01*
X184286Y215748D01*
X183444Y216844D01*
X182348Y217686D01*
X181951Y217850D01*
Y218350D01*
X182348Y218514D01*
X183444Y219356D01*
X184286Y220452D01*
X184815Y221730D01*
X184864Y222100D01*
X179700D01*
Y223100D01*
X178700D01*
Y228264D01*
X178330Y228215D01*
X177052Y227686D01*
X175956Y226844D01*
X175489Y226237D01*
X175106Y226324D01*
X174980Y226395D01*
X174834Y227131D01*
X174392Y227792D01*
X173731Y228234D01*
X172950Y228389D01*
D02*
G37*
G36*
X263421Y130083D02*
X257515D01*
X256735Y129928D01*
X256073Y129486D01*
X255631Y128824D01*
X255476Y128044D01*
Y122139D01*
X255631Y121358D01*
X256073Y120697D01*
X256735Y120255D01*
X257515Y120099D01*
X258310D01*
X258409Y119599D01*
X257970Y119418D01*
X256936Y118624D01*
X256142Y117589D01*
X255643Y116384D01*
X255472Y115091D01*
X255643Y113798D01*
X256142Y112594D01*
X256936Y111559D01*
X257970Y110765D01*
X258943Y110362D01*
Y109821D01*
X257970Y109418D01*
X256936Y108624D01*
X256142Y107589D01*
X255643Y106384D01*
X255472Y105091D01*
X255643Y103798D01*
X256142Y102594D01*
X256936Y101559D01*
X257970Y100765D01*
X258943Y100362D01*
Y99821D01*
X257970Y99418D01*
X256936Y98624D01*
X256142Y97589D01*
X255643Y96384D01*
X255472Y95091D01*
X255643Y93799D01*
X256142Y92594D01*
X256936Y91559D01*
X257970Y90765D01*
X259175Y90266D01*
X260468Y90096D01*
X261761Y90266D01*
X262966Y90765D01*
X264000Y91559D01*
X264794Y92594D01*
X265293Y93799D01*
X265463Y95091D01*
X265293Y96384D01*
X264794Y97589D01*
X264000Y98624D01*
X262966Y99418D01*
X261992Y99821D01*
Y100362D01*
X262966Y100765D01*
X264000Y101559D01*
X264794Y102594D01*
X265293Y103798D01*
X265463Y105091D01*
X265293Y106384D01*
X264794Y107589D01*
X264000Y108624D01*
X262966Y109418D01*
X261992Y109821D01*
Y110362D01*
X262966Y110765D01*
X264000Y111559D01*
X264794Y112594D01*
X265293Y113798D01*
X265463Y115091D01*
X265293Y116384D01*
X264794Y117589D01*
X264000Y118624D01*
X262966Y119418D01*
X262527Y119599D01*
X262626Y120099D01*
X263421D01*
X264201Y120255D01*
X264862Y120697D01*
X265304Y121358D01*
X265460Y122139D01*
Y128044D01*
X265304Y128824D01*
X264862Y129486D01*
X264201Y129928D01*
X263421Y130083D01*
D02*
G37*
G36*
X22776Y167476D02*
D01*
Y166476D01*
X17913D01*
X17951Y166183D01*
X18450Y164979D01*
X19244Y163944D01*
X20279Y163150D01*
X21252Y162747D01*
Y162206D01*
X20279Y161803D01*
X19244Y161009D01*
X18450Y159974D01*
X17951Y158769D01*
X17781Y157476D01*
X17951Y156184D01*
X18450Y154979D01*
X19244Y153944D01*
X20279Y153150D01*
X20718Y152968D01*
X20618Y152468D01*
X19824D01*
X19043Y152313D01*
X18382Y151871D01*
X17940Y151209D01*
X17785Y150429D01*
Y148476D01*
X22776D01*
X27768D01*
Y150429D01*
X27613Y151209D01*
X27171Y151871D01*
X26509Y152313D01*
X25729Y152468D01*
X24935D01*
X24835Y152968D01*
X25274Y153150D01*
X26309Y153944D01*
X27103Y154979D01*
X27602Y156184D01*
X27772Y157476D01*
X27602Y158769D01*
X27103Y159974D01*
X26309Y161009D01*
X25274Y161803D01*
X24301Y162206D01*
Y162747D01*
X25274Y163150D01*
X26309Y163944D01*
X27103Y164979D01*
X27602Y166183D01*
X27640Y166476D01*
X22776D01*
Y167476D01*
D02*
G37*
G36*
X27768Y146476D02*
X23776D01*
Y142484D01*
X25729D01*
X26509Y142640D01*
X27171Y143082D01*
X27613Y143743D01*
X27768Y144524D01*
Y146476D01*
D02*
G37*
G36*
X21776D02*
X17785D01*
Y144524D01*
X17940Y143743D01*
X18382Y143082D01*
X19043Y142640D01*
X19824Y142484D01*
X21776D01*
Y146476D01*
D02*
G37*
G36*
X276339Y89568D02*
X271614D01*
X270167Y89377D01*
X268819Y88819D01*
X267661Y87930D01*
X266772Y86772D01*
X266214Y85423D01*
X266023Y83976D01*
X266214Y82529D01*
X266772Y81181D01*
X267661Y80023D01*
X268628Y79281D01*
X268662Y79199D01*
Y78754D01*
X268628Y78672D01*
X267661Y77930D01*
X266772Y76772D01*
X266214Y75424D01*
X266023Y73976D01*
X266214Y72529D01*
X266772Y71181D01*
X267661Y70023D01*
X268628Y69281D01*
X268662Y69199D01*
Y68754D01*
X268628Y68672D01*
X267661Y67930D01*
X266772Y66772D01*
X266214Y65424D01*
X266023Y63976D01*
X266214Y62529D01*
X266772Y61181D01*
X267661Y60023D01*
X268819Y59134D01*
X270167Y58576D01*
X271614Y58385D01*
X276339D01*
X277786Y58576D01*
X279134Y59134D01*
X280292Y60023D01*
X281181Y61181D01*
X281739Y62529D01*
X281930Y63976D01*
X281739Y65424D01*
X281181Y66772D01*
X280292Y67930D01*
X279325Y68672D01*
X279291Y68754D01*
Y69199D01*
X279325Y69281D01*
X280292Y70023D01*
X281181Y71181D01*
X281739Y72529D01*
X281930Y73976D01*
X281739Y75424D01*
X281181Y76772D01*
X280292Y77930D01*
X279325Y78672D01*
X279291Y78754D01*
Y79199D01*
X279325Y79281D01*
X280292Y80023D01*
X281181Y81181D01*
X281739Y82529D01*
X281930Y83976D01*
X281739Y85423D01*
X281181Y86772D01*
X280292Y87930D01*
X279134Y88819D01*
X277786Y89377D01*
X276339Y89568D01*
D02*
G37*
G36*
X18976Y57576D02*
X15113D01*
X15151Y57284D01*
X15650Y56079D01*
X16444Y55044D01*
X17479Y54250D01*
X18684Y53751D01*
X18976Y53713D01*
Y57576D01*
D02*
G37*
G36*
X44968D02*
X40976D01*
Y53584D01*
X42929D01*
X43709Y53740D01*
X44371Y54182D01*
X44813Y54843D01*
X44968Y55624D01*
Y57576D01*
D02*
G37*
G36*
X29976Y63572D02*
X28684Y63402D01*
X27479Y62903D01*
X26444Y62109D01*
X25650Y61074D01*
X25247Y60101D01*
X24706D01*
X24303Y61074D01*
X23509Y62109D01*
X22474Y62903D01*
X21269Y63402D01*
X20976Y63440D01*
Y58576D01*
Y53713D01*
X21269Y53751D01*
X22474Y54250D01*
X23509Y55044D01*
X24303Y56079D01*
X24706Y57052D01*
X25247D01*
X25650Y56079D01*
X26444Y55044D01*
X27479Y54250D01*
X28684Y53751D01*
X29976Y53581D01*
X31269Y53751D01*
X32474Y54250D01*
X33509Y55044D01*
X34303Y56079D01*
X34484Y56518D01*
X34984Y56418D01*
Y55624D01*
X35140Y54843D01*
X35582Y54182D01*
X36243Y53740D01*
X37024Y53584D01*
X38976D01*
Y58576D01*
Y63568D01*
X37024D01*
X36243Y63413D01*
X35582Y62971D01*
X35140Y62309D01*
X34984Y61529D01*
Y60735D01*
X34484Y60635D01*
X34303Y61074D01*
X33509Y62109D01*
X32474Y62903D01*
X31269Y63402D01*
X29976Y63572D01*
D02*
G37*
G36*
X42929Y63568D02*
X40976D01*
Y59576D01*
X44968D01*
Y61529D01*
X44813Y62309D01*
X44371Y62971D01*
X43709Y63413D01*
X42929Y63568D01*
D02*
G37*
G36*
X18976Y63440D02*
X18684Y63402D01*
X17479Y62903D01*
X16444Y62109D01*
X15650Y61074D01*
X15151Y59869D01*
X15113Y59576D01*
X18976D01*
Y63440D01*
D02*
G37*
G36*
X38876Y252872D02*
X37584Y252702D01*
X36379Y252203D01*
X35344Y251409D01*
X34550Y250374D01*
X34051Y249169D01*
X33881Y247876D01*
X34051Y246584D01*
X34550Y245379D01*
X35344Y244344D01*
X36379Y243550D01*
X37352Y243147D01*
Y242606D01*
X36379Y242203D01*
X35344Y241409D01*
X34550Y240374D01*
X34051Y239169D01*
X33881Y237876D01*
X34051Y236583D01*
X34550Y235379D01*
X35344Y234344D01*
X36379Y233550D01*
X36818Y233368D01*
X36718Y232868D01*
X35924D01*
X35143Y232713D01*
X34482Y232271D01*
X34040Y231610D01*
X33885Y230829D01*
Y228876D01*
X38876D01*
X43868D01*
Y230829D01*
X43713Y231610D01*
X43271Y232271D01*
X42610Y232713D01*
X41829Y232868D01*
X41035D01*
X40935Y233368D01*
X41374Y233550D01*
X42409Y234344D01*
X43203Y235379D01*
X43702Y236583D01*
X43872Y237876D01*
X43702Y239169D01*
X43203Y240374D01*
X42409Y241409D01*
X41374Y242203D01*
X40401Y242606D01*
Y243147D01*
X41374Y243550D01*
X42409Y244344D01*
X43203Y245379D01*
X43702Y246584D01*
X43872Y247876D01*
X43702Y249169D01*
X43203Y250374D01*
X42409Y251409D01*
X41374Y252203D01*
X40169Y252702D01*
X38876Y252872D01*
D02*
G37*
G36*
X180700Y228264D02*
Y224100D01*
X184864D01*
X184815Y224471D01*
X184286Y225748D01*
X183444Y226844D01*
X182348Y227686D01*
X181071Y228215D01*
X180700Y228264D01*
D02*
G37*
G36*
X43868Y226876D02*
X39876D01*
Y222884D01*
X41829D01*
X42610Y223040D01*
X43271Y223482D01*
X43713Y224143D01*
X43868Y224924D01*
Y226876D01*
D02*
G37*
G36*
X39076Y304620D02*
X37771Y304448D01*
X36555Y303944D01*
X35510Y303142D01*
X34709Y302098D01*
X34205Y300882D01*
X34033Y299576D01*
X34205Y298271D01*
X34709Y297055D01*
X35510Y296010D01*
X36555Y295209D01*
X37429Y294847D01*
Y294306D01*
X36555Y293944D01*
X35510Y293143D01*
X34709Y292098D01*
X34205Y290882D01*
X34033Y289576D01*
X34205Y288271D01*
X34709Y287055D01*
X35510Y286010D01*
X36555Y285209D01*
X37429Y284847D01*
Y284306D01*
X36555Y283944D01*
X35510Y283142D01*
X34709Y282098D01*
X34205Y280882D01*
X34033Y279576D01*
X34205Y278271D01*
X34709Y277055D01*
X35510Y276010D01*
X36555Y275209D01*
X37429Y274847D01*
Y274306D01*
X36555Y273944D01*
X35510Y273143D01*
X34709Y272098D01*
X34205Y270882D01*
X34033Y269576D01*
X34205Y268271D01*
X34709Y267055D01*
X35510Y266010D01*
X36555Y265209D01*
X36780Y265116D01*
X36681Y264616D01*
X36076D01*
X35296Y264460D01*
X34635Y264018D01*
X34192Y263357D01*
X34037Y262576D01*
Y256576D01*
X34192Y255796D01*
X34635Y255135D01*
X35296Y254693D01*
X36076Y254537D01*
X42076D01*
X42857Y254693D01*
X43518Y255135D01*
X43960Y255796D01*
X44116Y256576D01*
Y262576D01*
X43960Y263357D01*
X43518Y264018D01*
X42857Y264460D01*
X42076Y264616D01*
X41472D01*
X41373Y265116D01*
X41598Y265209D01*
X42643Y266010D01*
X43444Y267055D01*
X43948Y268271D01*
X44120Y269576D01*
X43948Y270882D01*
X43444Y272098D01*
X42643Y273143D01*
X41598Y273944D01*
X40724Y274306D01*
Y274847D01*
X41598Y275209D01*
X42643Y276010D01*
X43444Y277055D01*
X43948Y278271D01*
X44120Y279576D01*
X43948Y280882D01*
X43444Y282098D01*
X42643Y283142D01*
X41598Y283944D01*
X40724Y284306D01*
Y284847D01*
X41598Y285209D01*
X42643Y286010D01*
X43444Y287055D01*
X43948Y288271D01*
X44120Y289576D01*
X43948Y290882D01*
X43444Y292098D01*
X42643Y293143D01*
X41598Y293944D01*
X40724Y294306D01*
Y294847D01*
X41598Y295209D01*
X42643Y296010D01*
X43444Y297055D01*
X43948Y298271D01*
X44120Y299576D01*
X43948Y300882D01*
X43444Y302098D01*
X42643Y303142D01*
X41598Y303944D01*
X40382Y304448D01*
X39076Y304620D01*
D02*
G37*
G36*
X333976Y256930D02*
X332529Y256739D01*
X331181Y256181D01*
X330023Y255292D01*
X329281Y254325D01*
X329199Y254291D01*
X328754D01*
X328672Y254325D01*
X327930Y255292D01*
X326772Y256181D01*
X325424Y256739D01*
X323976Y256930D01*
X322529Y256739D01*
X321181Y256181D01*
X320023Y255292D01*
X319281Y254325D01*
X319199Y254291D01*
X318754D01*
X318672Y254325D01*
X317930Y255292D01*
X316772Y256181D01*
X315423Y256739D01*
X313976Y256930D01*
X312529Y256739D01*
X311181Y256181D01*
X310023Y255292D01*
X309134Y254134D01*
X308576Y252786D01*
X308385Y251339D01*
Y246614D01*
X308576Y245167D01*
X309134Y243819D01*
X310023Y242661D01*
X311181Y241772D01*
X312529Y241214D01*
X313976Y241023D01*
X315423Y241214D01*
X316772Y241772D01*
X317930Y242661D01*
X318672Y243628D01*
X318754Y243662D01*
X319199D01*
X319281Y243628D01*
X320023Y242661D01*
X321181Y241772D01*
X322529Y241214D01*
X323976Y241023D01*
X325424Y241214D01*
X326772Y241772D01*
X327930Y242661D01*
X328672Y243628D01*
X328754Y243662D01*
X329199D01*
X329281Y243628D01*
X330023Y242661D01*
X331181Y241772D01*
X332529Y241214D01*
X333976Y241023D01*
X335423Y241214D01*
X336772Y241772D01*
X337930Y242661D01*
X338819Y243819D01*
X339377Y245167D01*
X339568Y246614D01*
Y251339D01*
X339377Y252786D01*
X338819Y254134D01*
X337930Y255292D01*
X336772Y256181D01*
X335423Y256739D01*
X333976Y256930D01*
D02*
G37*
G36*
X48228Y356772D02*
X46781Y356582D01*
X45433Y356023D01*
X44275Y355135D01*
X43386Y353977D01*
X42828Y352628D01*
X42637Y351181D01*
Y346457D01*
X42828Y345010D01*
X43386Y343661D01*
X44275Y342503D01*
X45433Y341615D01*
X46781Y341056D01*
X48228Y340866D01*
X49676Y341056D01*
X51024Y341615D01*
X52182Y342503D01*
X53070Y343661D01*
X53536Y344784D01*
X63510D01*
X75965Y332329D01*
Y240000D01*
X75965Y240000D01*
X76103Y238956D01*
X76506Y237983D01*
X77147Y237147D01*
X84942Y229352D01*
Y205187D01*
X84281Y204325D01*
X84199Y204291D01*
X83754D01*
X83672Y204325D01*
X82930Y205292D01*
X81772Y206181D01*
X80423Y206739D01*
X79976Y206798D01*
Y198976D01*
Y191155D01*
X80423Y191214D01*
X81772Y191772D01*
X82930Y192661D01*
X83672Y193628D01*
X83754Y193662D01*
X84199D01*
X84281Y193628D01*
X85023Y192661D01*
X86181Y191772D01*
X87529Y191214D01*
X88976Y191023D01*
X90424Y191214D01*
X91772Y191772D01*
X92930Y192661D01*
X93672Y193628D01*
X93754Y193662D01*
X94199D01*
X94281Y193628D01*
X95023Y192661D01*
X96181Y191772D01*
X97529Y191214D01*
X98976Y191023D01*
X100424Y191214D01*
X101772Y191772D01*
X102930Y192661D01*
X103819Y193819D01*
X104377Y195167D01*
X104568Y196614D01*
Y201339D01*
X104377Y202786D01*
X103819Y204134D01*
X103011Y205187D01*
Y205805D01*
X104853Y207647D01*
X104853Y207647D01*
X105494Y208483D01*
X105897Y209456D01*
X106035Y210500D01*
Y244329D01*
X108951Y247245D01*
X152058D01*
X153110Y246438D01*
X154458Y245879D01*
X155906Y245689D01*
X160630D01*
X162077Y245879D01*
X163426Y246438D01*
X164584Y247326D01*
X165472Y248484D01*
X166031Y249833D01*
X166221Y251280D01*
X166031Y252727D01*
X165472Y254075D01*
X164584Y255233D01*
X163426Y256122D01*
X162077Y256680D01*
X160630Y256871D01*
X155906D01*
X154458Y256680D01*
X153110Y256122D01*
X152058Y255314D01*
X107280D01*
X106235Y255177D01*
X105262Y254774D01*
X104427Y254132D01*
X104427Y254132D01*
X99147Y248853D01*
X98506Y248017D01*
X98103Y247044D01*
X97966Y246000D01*
X97966Y246000D01*
Y212171D01*
X96124Y210329D01*
X95482Y209494D01*
X95079Y208521D01*
X94942Y207476D01*
X94942Y207476D01*
Y205187D01*
X94281Y204325D01*
X94199Y204291D01*
X93754D01*
X93672Y204325D01*
X93011Y205187D01*
Y231024D01*
X93011Y231024D01*
X92874Y232068D01*
X92470Y233041D01*
X91829Y233876D01*
X84035Y241671D01*
Y334000D01*
X83897Y335044D01*
X83494Y336017D01*
X82853Y336853D01*
X68034Y351672D01*
X67198Y352313D01*
X66225Y352716D01*
X65181Y352853D01*
X65181Y352853D01*
X53536D01*
X53070Y353977D01*
X52182Y355135D01*
X51024Y356023D01*
X49676Y356582D01*
X48228Y356772D01*
D02*
G37*
G36*
X37876Y226876D02*
X33885D01*
Y224924D01*
X34040Y224143D01*
X34482Y223482D01*
X35143Y223040D01*
X35924Y222884D01*
X37876D01*
Y226876D01*
D02*
G37*
G36*
X219370Y191733D02*
X217923Y191542D01*
X216575Y190984D01*
X215417Y190095D01*
X214674Y189128D01*
X214592Y189094D01*
X214148D01*
X214066Y189128D01*
X213324Y190095D01*
X212166Y190984D01*
X210817Y191542D01*
X209370Y191733D01*
X207923Y191542D01*
X206575Y190984D01*
X205417Y190095D01*
X204528Y188937D01*
X203970Y187589D01*
X203779Y186142D01*
Y181417D01*
X203970Y179970D01*
X204528Y178622D01*
X205417Y177464D01*
X206575Y176575D01*
X207923Y176017D01*
X209370Y175826D01*
X210817Y176017D01*
X212166Y176575D01*
X213324Y177464D01*
X214066Y178431D01*
X214148Y178465D01*
X214592D01*
X214674Y178431D01*
X215417Y177464D01*
X216575Y176575D01*
X217923Y176017D01*
X219370Y175826D01*
X220817Y176017D01*
X222166Y176575D01*
X223324Y177464D01*
X224212Y178622D01*
X224771Y179970D01*
X224961Y181417D01*
Y186142D01*
X224771Y187589D01*
X224212Y188937D01*
X223324Y190095D01*
X222166Y190984D01*
X220817Y191542D01*
X219370Y191733D01*
D02*
G37*
G36*
X23776Y172340D02*
Y168476D01*
X27640D01*
X27602Y168769D01*
X27103Y169974D01*
X26309Y171009D01*
X25274Y171803D01*
X24069Y172302D01*
X23776Y172340D01*
D02*
G37*
G36*
X21776Y172340D02*
X21484Y172302D01*
X20279Y171803D01*
X19244Y171009D01*
X18450Y169974D01*
X17951Y168769D01*
X17913Y168476D01*
X21776D01*
Y172340D01*
D02*
G37*
G36*
X253976Y201930D02*
X252529Y201739D01*
X251181Y201181D01*
X250023Y200292D01*
X249281Y199325D01*
X249199Y199291D01*
X248754D01*
X248672Y199325D01*
X247930Y200292D01*
X246772Y201181D01*
X245424Y201739D01*
X243976Y201930D01*
X242529Y201739D01*
X241181Y201181D01*
X240023Y200292D01*
X239134Y199134D01*
X238576Y197786D01*
X238385Y196339D01*
Y191614D01*
X238576Y190167D01*
X239134Y188819D01*
X240023Y187661D01*
X241181Y186772D01*
X242529Y186214D01*
X243976Y186023D01*
X245424Y186214D01*
X246772Y186772D01*
X247930Y187661D01*
X248672Y188628D01*
X248754Y188662D01*
X249199D01*
X249281Y188628D01*
X250023Y187661D01*
X251181Y186772D01*
X252529Y186214D01*
X253976Y186023D01*
X255423Y186214D01*
X256772Y186772D01*
X257930Y187661D01*
X258819Y188819D01*
X259377Y190167D01*
X259568Y191614D01*
Y196339D01*
X259377Y197786D01*
X258819Y199134D01*
X257930Y200292D01*
X256772Y201181D01*
X255423Y201739D01*
X253976Y201930D01*
D02*
G37*
G36*
X53898Y242717D02*
X52451Y242527D01*
X51102Y241968D01*
X49944Y241080D01*
X49056Y239922D01*
X48497Y238573D01*
X48307Y237126D01*
Y232402D01*
X48497Y230955D01*
X49056Y229606D01*
X49944Y228448D01*
X51102Y227559D01*
X52451Y227001D01*
X53898Y226811D01*
X54966Y226951D01*
X55466Y226537D01*
Y206000D01*
X55466Y206000D01*
X55603Y204956D01*
X56006Y203983D01*
X56647Y203147D01*
X63416Y196378D01*
X63576Y195167D01*
X64134Y193819D01*
X65023Y192661D01*
X66181Y191772D01*
X67529Y191214D01*
X68976Y191023D01*
X70424Y191214D01*
X71772Y191772D01*
X72930Y192661D01*
X73672Y193628D01*
X73754Y193662D01*
X74199Y193662D01*
X74281Y193628D01*
X75023Y192661D01*
X76181Y191772D01*
X77529Y191214D01*
X77976Y191155D01*
Y198976D01*
Y206798D01*
X77529Y206739D01*
X76181Y206181D01*
X75023Y205292D01*
X74281Y204325D01*
X74199Y204291D01*
X73754Y204291D01*
X73672Y204325D01*
X72930Y205292D01*
X71772Y206181D01*
X70424Y206739D01*
X68976Y206930D01*
X67529Y206739D01*
X66181Y206181D01*
X65527Y205679D01*
X63534Y207671D01*
Y229162D01*
X63397Y230206D01*
X62994Y231179D01*
X62353Y232014D01*
X62353Y232014D01*
X59489Y234878D01*
Y237126D01*
X59298Y238573D01*
X58740Y239922D01*
X57851Y241080D01*
X56693Y241968D01*
X55345Y242527D01*
X53898Y242717D01*
D02*
G37*
%LPD*%
G36*
X168186Y200224D02*
X168094Y200252D01*
X167983Y200249D01*
X167853Y200214D01*
X167704Y200147D01*
X167536Y200049D01*
X167350Y199920D01*
X167145Y199759D01*
X166678Y199343D01*
X166416Y199088D01*
X163813Y202141D01*
X166757Y204478D01*
X168186Y200224D01*
D02*
G37*
G36*
X280256Y25698D02*
X279770Y25941D01*
X279268Y26158D01*
X278751Y26350D01*
X278217Y26516D01*
X277103Y26772D01*
X276523Y26861D01*
X275315Y26964D01*
X274687Y26976D01*
Y30976D01*
X275315Y30989D01*
X276523Y31091D01*
X277103Y31181D01*
X278217Y31437D01*
X278751Y31603D01*
X279268Y31795D01*
X279770Y32012D01*
X280256Y32255D01*
Y25698D01*
D02*
G37*
D17*
X53898Y234764D02*
X59500Y229162D01*
Y206000D02*
Y229162D01*
Y206000D02*
X66524Y198976D01*
X68976D01*
X88976Y198976D02*
Y231024D01*
X80000Y240000D02*
X88976Y231024D01*
X80000Y240000D02*
Y334000D01*
X48228Y348819D02*
X65181D01*
X80000Y334000D01*
X102000Y210500D02*
Y246000D01*
X98976Y207476D02*
X102000Y210500D01*
X98976Y198976D02*
Y207476D01*
X107280Y251280D02*
X158268D01*
X102000Y246000D02*
X107280Y251280D01*
X167600Y203100D02*
X169700D01*
X155000Y190500D02*
X167600Y203100D01*
X155000Y96500D02*
Y190500D01*
X222524Y28976D02*
X283976D01*
X155000Y96500D02*
X222524Y28976D01*
D19*
X219370Y183780D02*
D03*
X209370D02*
D03*
X48228Y348819D02*
D03*
X53898Y234764D02*
D03*
X333976Y248976D02*
D03*
X323976D02*
D03*
X313976D02*
D03*
X253976Y193976D02*
D03*
X243976D02*
D03*
Y133976D02*
D03*
X233976D02*
D03*
X98976Y198976D02*
D03*
X88976D02*
D03*
X78976D02*
D03*
X68976Y198976D02*
D03*
D20*
X158268Y251280D02*
D03*
X283976Y28976D02*
D03*
X273976Y63976D02*
D03*
Y73976D02*
D03*
Y83976D02*
D03*
D21*
X169700Y223100D02*
D03*
D22*
Y213100D02*
D03*
Y203100D02*
D03*
Y193100D02*
D03*
Y183100D02*
D03*
Y173100D02*
D03*
Y163100D02*
D03*
Y153100D02*
D03*
Y143100D02*
D03*
Y133100D02*
D03*
X179700D02*
D03*
Y143100D02*
D03*
Y153100D02*
D03*
Y163100D02*
D03*
Y173100D02*
D03*
Y183100D02*
D03*
Y193100D02*
D03*
Y203100D02*
D03*
Y213100D02*
D03*
Y223100D02*
D03*
D23*
X260468Y125091D02*
D03*
X38876Y227876D02*
D03*
X22776Y147476D02*
D03*
D24*
X260468Y115091D02*
D03*
Y105091D02*
D03*
Y95091D02*
D03*
X38876Y237876D02*
D03*
Y247876D02*
D03*
X22776Y167476D02*
D03*
Y157476D02*
D03*
X19976Y58576D02*
D03*
X29976D02*
D03*
D25*
X39076Y299576D02*
D03*
Y269576D02*
D03*
Y279576D02*
D03*
Y289576D02*
D03*
D26*
Y259576D02*
D03*
D27*
X39976Y58576D02*
D03*
D28*
X320000Y340000D02*
D03*
X330000Y320000D02*
D03*
X320000Y300000D02*
D03*
X330000Y280000D02*
D03*
X320000Y260000D02*
D03*
X330000Y240000D02*
D03*
X320000Y220000D02*
D03*
X330000Y200000D02*
D03*
X320000Y180000D02*
D03*
X330000Y160000D02*
D03*
X320000Y140000D02*
D03*
X330000Y120000D02*
D03*
X320000Y100000D02*
D03*
X330000Y80000D02*
D03*
X320000Y60000D02*
D03*
X330000Y40000D02*
D03*
X320000Y20000D02*
D03*
X300000Y340000D02*
D03*
X310000Y320000D02*
D03*
X300000Y300000D02*
D03*
X310000Y280000D02*
D03*
X300000Y260000D02*
D03*
X310000Y240000D02*
D03*
X300000Y220000D02*
D03*
X310000Y200000D02*
D03*
X300000Y180000D02*
D03*
X310000Y160000D02*
D03*
X300000Y140000D02*
D03*
X310000Y120000D02*
D03*
X300000Y100000D02*
D03*
X310000Y80000D02*
D03*
X300000Y60000D02*
D03*
X310000Y40000D02*
D03*
X300000Y20000D02*
D03*
X280000Y340000D02*
D03*
X290000Y320000D02*
D03*
X280000Y300000D02*
D03*
X290000Y280000D02*
D03*
X280000Y260000D02*
D03*
X290000Y240000D02*
D03*
X280000Y220000D02*
D03*
X290000Y200000D02*
D03*
X280000Y180000D02*
D03*
X290000Y160000D02*
D03*
X280000Y140000D02*
D03*
X290000Y120000D02*
D03*
X280000Y100000D02*
D03*
X290000Y80000D02*
D03*
Y40000D02*
D03*
X280000Y20000D02*
D03*
X260000Y340000D02*
D03*
X270000Y320000D02*
D03*
X260000Y300000D02*
D03*
X270000Y280000D02*
D03*
X260000Y260000D02*
D03*
X270000Y240000D02*
D03*
X260000Y220000D02*
D03*
X270000Y200000D02*
D03*
X260000Y180000D02*
D03*
X270000Y160000D02*
D03*
X260000Y140000D02*
D03*
X270000Y120000D02*
D03*
X260000Y60000D02*
D03*
X270000Y40000D02*
D03*
X260000Y20000D02*
D03*
X240000Y340000D02*
D03*
X250000Y320000D02*
D03*
X240000Y300000D02*
D03*
X250000Y280000D02*
D03*
X240000Y260000D02*
D03*
X250000Y240000D02*
D03*
X240000Y220000D02*
D03*
Y180000D02*
D03*
X250000Y160000D02*
D03*
Y120000D02*
D03*
X240000Y100000D02*
D03*
X250000Y80000D02*
D03*
X240000Y60000D02*
D03*
X250000Y40000D02*
D03*
X240000Y20000D02*
D03*
X220000Y340000D02*
D03*
X230000Y320000D02*
D03*
X220000Y300000D02*
D03*
X230000Y280000D02*
D03*
X220000Y260000D02*
D03*
X230000Y240000D02*
D03*
X220000Y220000D02*
D03*
X230000Y200000D02*
D03*
Y160000D02*
D03*
X220000Y140000D02*
D03*
X230000Y120000D02*
D03*
X220000Y100000D02*
D03*
X230000Y80000D02*
D03*
X220000Y60000D02*
D03*
X230000Y40000D02*
D03*
X220000Y20000D02*
D03*
X200000Y340000D02*
D03*
X210000Y320000D02*
D03*
X200000Y300000D02*
D03*
X210000Y280000D02*
D03*
X200000Y260000D02*
D03*
X210000Y240000D02*
D03*
X200000Y220000D02*
D03*
X210000Y200000D02*
D03*
X200000Y180000D02*
D03*
X210000Y160000D02*
D03*
X200000Y140000D02*
D03*
X210000Y120000D02*
D03*
X200000Y100000D02*
D03*
X210000Y80000D02*
D03*
X200000Y60000D02*
D03*
Y20000D02*
D03*
X180000Y340000D02*
D03*
X190000Y320000D02*
D03*
X180000Y300000D02*
D03*
X190000Y280000D02*
D03*
X180000Y260000D02*
D03*
X190000Y240000D02*
D03*
Y200000D02*
D03*
Y160000D02*
D03*
Y120000D02*
D03*
X180000Y100000D02*
D03*
X190000Y80000D02*
D03*
X180000Y60000D02*
D03*
X190000Y40000D02*
D03*
X180000Y20000D02*
D03*
X160000Y340000D02*
D03*
X170000Y320000D02*
D03*
X160000Y300000D02*
D03*
X170000Y280000D02*
D03*
X160000Y260000D02*
D03*
X170000Y240000D02*
D03*
Y120000D02*
D03*
X160000Y60000D02*
D03*
X170000Y40000D02*
D03*
X160000Y20000D02*
D03*
X140000Y340000D02*
D03*
X150000Y320000D02*
D03*
X140000Y300000D02*
D03*
X150000Y280000D02*
D03*
X140000Y260000D02*
D03*
X150000Y240000D02*
D03*
X140000Y100000D02*
D03*
X150000Y80000D02*
D03*
X140000Y60000D02*
D03*
X150000Y40000D02*
D03*
X140000Y20000D02*
D03*
X120000Y340000D02*
D03*
X130000Y320000D02*
D03*
X120000Y300000D02*
D03*
X130000Y280000D02*
D03*
X120000Y260000D02*
D03*
X130000Y240000D02*
D03*
Y160000D02*
D03*
X120000Y140000D02*
D03*
X130000Y120000D02*
D03*
X120000Y100000D02*
D03*
X130000Y80000D02*
D03*
X120000Y60000D02*
D03*
X130000Y40000D02*
D03*
X120000Y20000D02*
D03*
X100000Y340000D02*
D03*
X110000Y320000D02*
D03*
X100000Y300000D02*
D03*
X110000Y280000D02*
D03*
X100000Y260000D02*
D03*
X110000Y240000D02*
D03*
X100000Y140000D02*
D03*
X110000Y120000D02*
D03*
X100000Y100000D02*
D03*
X110000Y80000D02*
D03*
X100000Y60000D02*
D03*
X110000Y40000D02*
D03*
X100000Y20000D02*
D03*
X90000Y320000D02*
D03*
Y280000D02*
D03*
Y240000D02*
D03*
X80000Y180000D02*
D03*
X90000Y160000D02*
D03*
X80000Y140000D02*
D03*
X90000Y120000D02*
D03*
X80000Y100000D02*
D03*
X90000Y80000D02*
D03*
X80000Y60000D02*
D03*
X90000Y40000D02*
D03*
X80000Y20000D02*
D03*
X60000Y340000D02*
D03*
X70000Y320000D02*
D03*
X60000Y300000D02*
D03*
X70000Y280000D02*
D03*
X60000Y260000D02*
D03*
X70000Y240000D02*
D03*
Y160000D02*
D03*
X60000Y140000D02*
D03*
X70000Y120000D02*
D03*
X60000Y100000D02*
D03*
X70000Y80000D02*
D03*
X60000Y60000D02*
D03*
X70000Y40000D02*
D03*
X60000Y20000D02*
D03*
X40000Y340000D02*
D03*
X50000Y320000D02*
D03*
Y280000D02*
D03*
X40000Y220000D02*
D03*
Y180000D02*
D03*
Y140000D02*
D03*
X50000Y120000D02*
D03*
X40000Y100000D02*
D03*
X50000Y80000D02*
D03*
Y40000D02*
D03*
X40000Y20000D02*
D03*
X20000Y340000D02*
D03*
X30000Y320000D02*
D03*
X20000Y300000D02*
D03*
X30000Y280000D02*
D03*
X20000Y260000D02*
D03*
X30000Y240000D02*
D03*
X20000Y220000D02*
D03*
X30000Y200000D02*
D03*
X20000Y180000D02*
D03*
Y140000D02*
D03*
X30000Y120000D02*
D03*
X20000Y100000D02*
D03*
X30000Y40000D02*
D03*
X20000Y20000D02*
D03*
D29*
X22500Y72000D02*
D03*
Y68500D02*
D03*
X38000Y70000D02*
D03*
Y66500D02*
D03*
X25000Y65500D02*
D03*
Y70500D02*
D03*
X24500Y74000D02*
D03*
X21000Y74500D02*
D03*
X18500Y77500D02*
D03*
Y81500D02*
D03*
X19000Y86500D02*
D03*
X18500Y91500D02*
D03*
X23000Y96000D02*
D03*
X28000Y96500D02*
D03*
X32000D02*
D03*
X38500D02*
D03*
X41000Y94500D02*
D03*
X41500Y90500D02*
D03*
X41000Y87000D02*
D03*
X41500Y83000D02*
D03*
Y76500D02*
D03*
X38000Y73500D02*
D03*
X35000Y75000D02*
D03*
X34500Y72000D02*
D03*
Y68500D02*
D03*
X44500Y146500D02*
D03*
X47500Y145000D02*
D03*
X50500D02*
D03*
X55000D02*
D03*
X60000D02*
D03*
X63500Y145500D02*
D03*
X66000Y150000D02*
D03*
Y160000D02*
D03*
Y165000D02*
D03*
X62500Y168500D02*
D03*
X51500Y169500D02*
D03*
X47000Y169000D02*
D03*
X43000Y149500D02*
D03*
X39000Y150000D02*
D03*
X35000Y150500D02*
D03*
X31000Y150000D02*
D03*
X42000Y166000D02*
D03*
X38500D02*
D03*
X35000Y166500D02*
D03*
X31500D02*
D03*
X41500Y153000D02*
D03*
X37000Y153500D02*
D03*
X33000D02*
D03*
X29500D02*
D03*
X43500Y162500D02*
D03*
X40000D02*
D03*
X37000Y163000D02*
D03*
X33500D02*
D03*
X29500D02*
D03*
X142500Y190000D02*
D03*
X127500D02*
D03*
X112000Y190500D02*
D03*
M02*
